<?xml version="1.0" encoding="UTF-8" standalone="no"?>
<!DOCTYPE svg PUBLIC "-//W3C//DTD SVG 1.1//EN" "http://www.w3.org/Graphics/SVG/1.1/DTD/svg11.dtd">
<svg width="100%" height="100%" viewBox="0 0 1025 1024" version="1.1" xmlns="http://www.w3.org/2000/svg" xmlns:xlink="http://www.w3.org/1999/xlink" xml:space="preserve" xmlns:serif="http://www.serif.com/" style="fill-rule:evenodd;clip-rule:evenodd;stroke-linejoin:round;stroke-miterlimit:2;">
    <path d="M924.903,1024L100.098,1024C45.186,1024 0,978.814 0,923.902L0,222.217C-0,167.305 45.186,122.119 100.098,122.119L924.903,122.119C979.815,122.119 1025,167.305 1025,222.217L1025,923.902C1025,978.814 979.815,1024 924.903,1024ZM924.903,202.197L100.098,202.197C89.115,202.197 80.078,211.235 80.078,222.217L80.078,923.902C80.078,934.885 89.115,943.922 100.098,943.922L924.903,943.922C935.886,943.922 944.923,934.885 944.923,923.902L944.923,222.217C944.923,211.235 935.886,202.197 924.903,202.197Z" style="fill:rgb(255,255,0);fill-rule:nonzero;"/>
    <path d="M237.232,282.276C183.967,282.276 140.137,238.445 140.137,185.181L140.137,97.095C140.137,43.83 183.967,0 237.232,0C290.496,0 334.326,43.83 334.326,97.095C334.326,119.06 316.252,137.134 294.287,137.134C272.323,137.134 254.248,119.06 254.248,97.095C254.246,87.761 246.565,80.082 237.232,80.082C227.898,80.082 220.217,87.761 220.215,97.095L220.215,185.181C220.215,194.516 227.897,202.197 237.232,202.197C259.196,202.197 277.271,220.272 277.271,242.237C277.271,264.201 259.196,282.276 237.232,282.276ZM787.769,282.276C734.505,282.276 690.674,238.445 690.674,185.181L690.674,97.095C690.674,43.83 734.505,-0 787.769,-0C841.034,-0 884.864,43.83 884.864,97.095C884.861,119.057 866.787,137.128 844.825,137.128C822.863,137.128 804.789,119.057 804.786,97.095C804.786,87.76 797.104,80.078 787.769,80.078C778.434,80.078 770.753,87.76 770.753,97.095L770.753,185.181C770.753,194.516 778.434,202.197 787.769,202.197C809.734,202.197 827.808,220.272 827.808,242.237C827.808,264.201 809.734,282.276 787.769,282.276ZM512.5,282.276C459.236,282.276 415.406,238.445 415.406,185.181L415.406,97.095C415.406,43.83 459.236,0 512.5,0C565.765,0 609.595,43.83 609.595,97.095C609.592,119.057 591.519,137.128 569.556,137.128C547.594,137.128 529.521,119.057 529.517,97.095C529.517,87.76 521.836,80.078 512.5,80.078C503.165,80.078 495.484,87.76 495.484,97.095L495.484,185.181C495.484,194.516 503.165,202.197 512.5,202.197C534.465,202.197 552.54,220.272 552.54,242.237C552.54,264.201 534.465,282.276 512.5,282.276ZM950.929,428.418L65.064,428.418C43.101,428.415 25.031,410.342 25.031,388.379C25.031,366.417 43.101,348.344 65.064,348.34L950.929,348.34C972.891,348.344 990.961,366.417 990.961,388.379C990.961,410.342 972.891,428.415 950.929,428.418ZM213.208,653.638C173.125,653.635 140.144,620.65 140.144,580.567C140.144,540.481 173.129,507.496 213.215,507.496C253.301,507.496 286.286,540.481 286.286,580.567C286.286,580.901 286.284,581.234 286.28,581.568C285.736,621.275 252.919,653.642 213.208,653.638ZM412.403,653.638C372.32,653.635 339.338,620.65 339.338,580.567C339.338,540.481 372.324,507.496 412.41,507.496C452.495,507.496 485.481,540.481 485.481,580.567C485.481,580.901 485.479,581.234 485.474,581.568C484.93,621.275 452.113,653.642 412.403,653.638ZM612.598,653.638C572.515,653.635 539.534,620.65 539.534,580.567C539.534,540.481 572.519,507.496 612.605,507.496C652.691,507.496 685.676,540.481 685.676,580.567C685.676,580.901 685.674,581.234 685.67,581.568C685.126,621.275 652.309,653.642 612.598,653.638ZM812.794,653.638C772.711,653.635 739.729,620.65 739.729,580.567C739.729,540.481 772.715,507.496 812.801,507.496C852.886,507.496 885.872,540.481 885.872,580.567C885.872,580.901 885.87,581.234 885.865,581.568C885.321,621.275 852.504,653.642 812.794,653.638ZM213.208,860.841C173.125,860.837 140.144,827.852 140.144,787.769C140.144,747.684 173.129,714.698 213.215,714.698C253.301,714.698 286.286,747.684 286.286,787.769C286.286,788.103 286.284,788.437 286.28,788.77C285.736,828.477 252.919,860.844 213.208,860.841ZM412.403,860.841C372.32,860.837 339.338,827.852 339.338,787.769C339.338,747.684 372.324,714.698 412.41,714.698C452.495,714.698 485.481,747.684 485.481,787.769C485.481,788.103 485.479,788.437 485.474,788.77C484.93,828.477 452.113,860.844 412.403,860.841ZM612.598,860.841C572.515,860.837 539.534,827.852 539.534,787.769C539.534,747.684 572.519,714.698 612.605,714.698C652.691,714.698 685.676,747.684 685.676,787.769C685.676,788.103 685.674,788.437 685.67,788.77C685.126,828.477 652.309,860.844 612.598,860.841Z" style="fill:rgb(255,255,0);fill-rule:nonzero;"/>
</svg>
