<?xml version="1.0" encoding="UTF-8" standalone="no"?>
<!DOCTYPE svg PUBLIC "-//W3C//DTD SVG 1.1//EN" "http://www.w3.org/Graphics/SVG/1.1/DTD/svg11.dtd">
<svg width="100%" height="100%" viewBox="0 0 600 100" version="1.1" xmlns="http://www.w3.org/2000/svg" xmlns:xlink="http://www.w3.org/1999/xlink" xml:space="preserve" xmlns:serif="http://www.serif.com/" style="fill-rule:evenodd;clip-rule:evenodd;stroke-miterlimit:2;">
    <g transform="matrix(0.956098,0,0,0.956098,11.6888,3.39024)">
        <g transform="matrix(102.4,0,0,102.4,0,100)">
            <path d="M0.806,-0.22L0.815,-0.211C0.791,-0.187 0.763,-0.167 0.732,-0.149C0.67,-0.115 0.605,-0.098 0.538,-0.098C0.47,-0.098 0.405,-0.115 0.343,-0.149C0.281,-0.184 0.233,-0.232 0.198,-0.293C0.164,-0.355 0.147,-0.42 0.147,-0.488C0.147,-0.556 0.164,-0.622 0.199,-0.684C0.234,-0.747 0.283,-0.795 0.345,-0.828C0.407,-0.862 0.472,-0.879 0.538,-0.879C0.603,-0.879 0.667,-0.862 0.729,-0.829C0.761,-0.811 0.79,-0.79 0.814,-0.765L0.806,-0.756C0.782,-0.781 0.754,-0.801 0.723,-0.818C0.663,-0.85 0.601,-0.867 0.538,-0.867C0.473,-0.867 0.411,-0.85 0.351,-0.818C0.291,-0.785 0.244,-0.739 0.21,-0.678C0.176,-0.617 0.159,-0.554 0.159,-0.488C0.159,-0.422 0.176,-0.36 0.209,-0.3C0.242,-0.24 0.289,-0.193 0.349,-0.16C0.409,-0.126 0.472,-0.11 0.538,-0.11C0.603,-0.11 0.666,-0.126 0.726,-0.16C0.756,-0.176 0.783,-0.196 0.806,-0.22ZM0.867,-0.16L0.884,-0.142C0.854,-0.112 0.819,-0.086 0.781,-0.064C0.703,-0.021 0.622,-0 0.537,-0C0.453,-0 0.372,-0.021 0.294,-0.064C0.217,-0.107 0.157,-0.168 0.114,-0.245C0.071,-0.322 0.049,-0.403 0.049,-0.488C0.049,-0.573 0.071,-0.655 0.115,-0.733C0.158,-0.811 0.219,-0.872 0.297,-0.914C0.375,-0.956 0.455,-0.977 0.537,-0.977C0.619,-0.977 0.699,-0.956 0.777,-0.914C0.817,-0.892 0.853,-0.866 0.884,-0.834L0.867,-0.817C0.837,-0.847 0.803,-0.872 0.765,-0.893C0.691,-0.932 0.615,-0.952 0.537,-0.952C0.459,-0.952 0.383,-0.932 0.309,-0.892C0.235,-0.852 0.177,-0.795 0.136,-0.721C0.094,-0.647 0.074,-0.569 0.074,-0.488C0.074,-0.407 0.094,-0.33 0.135,-0.257C0.176,-0.184 0.233,-0.127 0.307,-0.086C0.38,-0.045 0.457,-0.024 0.537,-0.024C0.618,-0.024 0.695,-0.045 0.769,-0.086C0.805,-0.106 0.838,-0.131 0.867,-0.16ZM0.754,-0.705L0.746,-0.696C0.727,-0.715 0.705,-0.731 0.682,-0.744C0.635,-0.769 0.587,-0.781 0.538,-0.781C0.488,-0.781 0.44,-0.769 0.393,-0.743C0.347,-0.718 0.31,-0.682 0.284,-0.635C0.258,-0.588 0.245,-0.539 0.245,-0.488C0.245,-0.437 0.257,-0.388 0.283,-0.342C0.309,-0.296 0.345,-0.26 0.392,-0.234C0.438,-0.208 0.487,-0.195 0.538,-0.195C0.588,-0.195 0.637,-0.208 0.684,-0.234C0.707,-0.247 0.728,-0.262 0.746,-0.28L0.754,-0.272C0.735,-0.253 0.714,-0.237 0.689,-0.224C0.641,-0.197 0.59,-0.183 0.538,-0.183C0.485,-0.183 0.434,-0.197 0.386,-0.223C0.337,-0.25 0.3,-0.288 0.273,-0.336C0.246,-0.385 0.232,-0.435 0.232,-0.488C0.232,-0.541 0.246,-0.592 0.273,-0.641C0.301,-0.69 0.339,-0.728 0.387,-0.754C0.436,-0.78 0.486,-0.793 0.538,-0.793C0.589,-0.793 0.639,-0.78 0.688,-0.754C0.713,-0.741 0.735,-0.724 0.754,-0.705Z" style="fill:none;fill-rule:nonzero;stroke:white;stroke-width:0.02px;"/>
        </g>
        <g transform="matrix(102.4,0,0,102.4,92.5,100)">
            <path d="M0.074,-0.024L0.733,-0.024L0.733,-0L0.049,-0L0.049,-0.977L0.733,-0.977L0.733,-0.952L0.074,-0.952L0.074,-0.024ZM0.159,-0.11L0.733,-0.11L0.733,-0.098L0.147,-0.098L0.147,-0.879L0.733,-0.879L0.733,-0.867L0.159,-0.867L0.159,-0.11ZM0.245,-0.195L0.733,-0.195L0.733,-0.183L0.232,-0.183L0.232,-0.793L0.733,-0.793L0.733,-0.781L0.245,-0.781L0.245,-0.195ZM0.635,-0.562L0.293,-0.562L0.293,-0.586L0.635,-0.586L0.635,-0.562ZM0.293,-0.391L0.293,-0.403L0.635,-0.403L0.635,-0.391L0.293,-0.391ZM0.293,-0.476L0.293,-0.488L0.635,-0.488L0.635,-0.476L0.293,-0.476Z" style="fill:none;fill-rule:nonzero;stroke:white;stroke-width:0.02px;"/>
        </g>
        <g transform="matrix(102.4,0,0,102.4,172.5,100)">
            <path d="M0.581,-0.35L0.756,-0L0.729,-0L0.549,-0.359L0.57,-0.372C0.611,-0.399 0.643,-0.434 0.667,-0.477C0.695,-0.527 0.709,-0.579 0.709,-0.635C0.709,-0.69 0.695,-0.743 0.666,-0.794C0.638,-0.845 0.598,-0.884 0.548,-0.911C0.497,-0.938 0.445,-0.952 0.391,-0.952L0.073,-0.952L0.073,-0L0.049,-0L0.049,-0.977L0.391,-0.976L0.391,-0.977C0.449,-0.977 0.505,-0.962 0.56,-0.932C0.614,-0.903 0.657,-0.861 0.688,-0.806C0.718,-0.751 0.733,-0.694 0.733,-0.635C0.733,-0.575 0.718,-0.518 0.688,-0.464C0.662,-0.417 0.626,-0.379 0.581,-0.35ZM0.448,-0.397L0.646,-0L0.633,-0L0.43,-0.406L0.442,-0.409C0.465,-0.414 0.486,-0.422 0.507,-0.434C0.544,-0.454 0.572,-0.482 0.593,-0.519C0.613,-0.556 0.624,-0.594 0.624,-0.635C0.624,-0.675 0.613,-0.714 0.592,-0.751C0.571,-0.788 0.543,-0.817 0.506,-0.837C0.469,-0.857 0.43,-0.867 0.391,-0.867L0.391,-0.866L0.158,-0.866L0.158,-0L0.146,-0L0.146,-0.878L0.391,-0.878L0.391,-0.879C0.432,-0.879 0.473,-0.868 0.511,-0.847C0.55,-0.826 0.581,-0.796 0.603,-0.757C0.625,-0.718 0.636,-0.677 0.636,-0.635C0.636,-0.592 0.625,-0.552 0.604,-0.513C0.582,-0.474 0.552,-0.444 0.513,-0.423C0.492,-0.411 0.47,-0.403 0.448,-0.397ZM0.313,-0.476L0.551,-0L0.538,-0L0.293,-0.488L0.391,-0.488C0.416,-0.488 0.441,-0.495 0.464,-0.508C0.487,-0.52 0.506,-0.538 0.519,-0.562C0.532,-0.585 0.538,-0.609 0.538,-0.635C0.538,-0.66 0.531,-0.685 0.518,-0.708C0.505,-0.732 0.487,-0.75 0.464,-0.762C0.44,-0.775 0.416,-0.781 0.391,-0.781L0.244,-0.781L0.244,-0L0.231,-0L0.231,-0.793L0.391,-0.793C0.418,-0.793 0.444,-0.787 0.469,-0.773C0.495,-0.759 0.514,-0.74 0.529,-0.714C0.543,-0.689 0.55,-0.662 0.55,-0.635C0.55,-0.607 0.543,-0.581 0.529,-0.556C0.515,-0.531 0.496,-0.511 0.47,-0.497C0.445,-0.483 0.419,-0.476 0.391,-0.476L0.313,-0.476Z" style="fill:none;fill-rule:nonzero;stroke:white;stroke-width:0.02px;"/>
        </g>
        <g transform="matrix(102.4,0,0,102.4,250,100)">
            <path d="M0,-0L0.5,-1.001L1.001,-0L0.974,-0L0.5,-0.946L0.027,-0L0,-0ZM0.783,-0L0.501,-0.564L0.219,-0L0.205,-0L0.5,-0.592L0.796,-0L0.783,-0ZM0.878,-0L0.5,-0.755L0.123,-0L0.109,-0L0.5,-0.782L0.892,-0L0.878,-0Z" style="fill:none;fill-rule:nonzero;stroke:white;stroke-width:0.02px;"/>
        </g>
        <g transform="matrix(102.4,0,0,102.4,352.5,100)">
            <path d="M0.073,-0.942L0.073,-0L0.049,-0L0.049,-1.001L0.586,-0.463L1.124,-1.001L1.124,-0L1.099,-0L1.099,-0.942L0.586,-0.429L0.073,-0.942ZM0.159,-0.735L0.159,-0L0.146,-0L0.146,-0.765L0.586,-0.325L1.026,-0.765L1.026,-0L1.014,-0L1.014,-0.735L0.586,-0.308L0.159,-0.735ZM0.244,-0.529L0.244,-0L0.232,-0L0.232,-0.559L0.586,-0.204L0.94,-0.559L0.94,-0L0.928,-0L0.928,-0.529L0.586,-0.188L0.244,-0.529Z" style="fill:none;fill-rule:nonzero;stroke:white;stroke-width:0.02px;"/>
        </g>
        <g transform="matrix(102.4,0,0,102.4,472.5,100)">
            <path d="M0.098,-0.977L0.098,-0L0.073,-0L0.073,-0.977L0.098,-0.977ZM0.269,-0L0.256,-0L0.256,-0.977L0.269,-0.976L0.269,-0ZM0.183,-0L0.171,-0L0.171,-0.976L0.183,-0.976L0.183,-0Z" style="fill:none;fill-rule:nonzero;stroke:white;stroke-width:0.02px;"/>
        </g>
        <g transform="matrix(102.4,0,0,102.4,507.5,100)">
            <path d="M0.806,-0.22L0.815,-0.211C0.791,-0.187 0.763,-0.167 0.732,-0.149C0.67,-0.115 0.605,-0.098 0.538,-0.098C0.47,-0.098 0.405,-0.115 0.343,-0.149C0.281,-0.184 0.233,-0.232 0.198,-0.293C0.164,-0.355 0.147,-0.42 0.147,-0.488C0.147,-0.556 0.164,-0.622 0.199,-0.684C0.234,-0.747 0.283,-0.795 0.345,-0.828C0.407,-0.862 0.472,-0.879 0.538,-0.879C0.603,-0.879 0.667,-0.862 0.729,-0.829C0.761,-0.811 0.79,-0.79 0.814,-0.765L0.806,-0.756C0.782,-0.781 0.754,-0.801 0.723,-0.818C0.663,-0.85 0.601,-0.867 0.538,-0.867C0.473,-0.867 0.411,-0.85 0.351,-0.818C0.291,-0.785 0.244,-0.739 0.21,-0.678C0.176,-0.617 0.159,-0.554 0.159,-0.488C0.159,-0.422 0.176,-0.36 0.209,-0.3C0.242,-0.24 0.289,-0.193 0.349,-0.16C0.409,-0.126 0.472,-0.11 0.538,-0.11C0.603,-0.11 0.666,-0.126 0.726,-0.16C0.756,-0.176 0.783,-0.196 0.806,-0.22ZM0.867,-0.16L0.884,-0.142C0.854,-0.112 0.819,-0.086 0.781,-0.064C0.703,-0.021 0.622,-0 0.537,-0C0.453,-0 0.372,-0.021 0.294,-0.064C0.217,-0.107 0.157,-0.168 0.114,-0.245C0.071,-0.322 0.049,-0.403 0.049,-0.488C0.049,-0.573 0.071,-0.655 0.115,-0.733C0.158,-0.811 0.219,-0.872 0.297,-0.914C0.375,-0.956 0.455,-0.977 0.537,-0.977C0.619,-0.977 0.699,-0.956 0.777,-0.914C0.817,-0.892 0.853,-0.866 0.884,-0.834L0.867,-0.817C0.837,-0.847 0.803,-0.872 0.765,-0.893C0.691,-0.932 0.615,-0.952 0.537,-0.952C0.459,-0.952 0.383,-0.932 0.309,-0.892C0.235,-0.852 0.177,-0.795 0.136,-0.721C0.094,-0.647 0.074,-0.569 0.074,-0.488C0.074,-0.407 0.094,-0.33 0.135,-0.257C0.176,-0.184 0.233,-0.127 0.307,-0.086C0.38,-0.045 0.457,-0.024 0.537,-0.024C0.618,-0.024 0.695,-0.045 0.769,-0.086C0.805,-0.106 0.838,-0.131 0.867,-0.16ZM0.754,-0.705L0.746,-0.696C0.727,-0.715 0.705,-0.731 0.682,-0.744C0.635,-0.769 0.587,-0.781 0.538,-0.781C0.488,-0.781 0.44,-0.769 0.393,-0.743C0.347,-0.718 0.31,-0.682 0.284,-0.635C0.258,-0.588 0.245,-0.539 0.245,-0.488C0.245,-0.437 0.257,-0.388 0.283,-0.342C0.309,-0.296 0.345,-0.26 0.392,-0.234C0.438,-0.208 0.487,-0.195 0.538,-0.195C0.588,-0.195 0.637,-0.208 0.684,-0.234C0.707,-0.247 0.728,-0.262 0.746,-0.28L0.754,-0.272C0.735,-0.253 0.714,-0.237 0.689,-0.224C0.641,-0.197 0.59,-0.183 0.538,-0.183C0.485,-0.183 0.434,-0.197 0.386,-0.223C0.337,-0.25 0.3,-0.288 0.273,-0.336C0.246,-0.385 0.232,-0.435 0.232,-0.488C0.232,-0.541 0.246,-0.592 0.273,-0.641C0.301,-0.69 0.339,-0.728 0.387,-0.754C0.436,-0.78 0.486,-0.793 0.538,-0.793C0.589,-0.793 0.639,-0.78 0.688,-0.754C0.713,-0.741 0.735,-0.724 0.754,-0.705Z" style="fill:none;fill-rule:nonzero;stroke:white;stroke-width:0.02px;"/>
        </g>
        <g transform="matrix(102.4,0,0,102.4,0,100)">
            <path d="M0.806,-0.22L0.815,-0.211C0.791,-0.187 0.763,-0.167 0.732,-0.149C0.67,-0.115 0.605,-0.098 0.538,-0.098C0.47,-0.098 0.405,-0.115 0.343,-0.149C0.281,-0.184 0.233,-0.232 0.198,-0.293C0.164,-0.355 0.147,-0.42 0.147,-0.488C0.147,-0.556 0.164,-0.622 0.199,-0.684C0.234,-0.747 0.283,-0.795 0.345,-0.828C0.407,-0.862 0.472,-0.879 0.538,-0.879C0.603,-0.879 0.667,-0.862 0.729,-0.829C0.761,-0.811 0.79,-0.79 0.814,-0.765L0.806,-0.756C0.782,-0.781 0.754,-0.801 0.723,-0.818C0.663,-0.85 0.601,-0.867 0.538,-0.867C0.473,-0.867 0.411,-0.85 0.351,-0.818C0.291,-0.785 0.244,-0.739 0.21,-0.678C0.176,-0.617 0.159,-0.554 0.159,-0.488C0.159,-0.422 0.176,-0.36 0.209,-0.3C0.242,-0.24 0.289,-0.193 0.349,-0.16C0.409,-0.126 0.472,-0.11 0.538,-0.11C0.603,-0.11 0.666,-0.126 0.726,-0.16C0.756,-0.176 0.783,-0.196 0.806,-0.22ZM0.867,-0.16L0.884,-0.142C0.854,-0.112 0.819,-0.086 0.781,-0.064C0.703,-0.021 0.622,-0 0.537,-0C0.453,-0 0.372,-0.021 0.294,-0.064C0.217,-0.107 0.157,-0.168 0.114,-0.245C0.071,-0.322 0.049,-0.403 0.049,-0.488C0.049,-0.573 0.071,-0.655 0.115,-0.733C0.158,-0.811 0.219,-0.872 0.297,-0.914C0.375,-0.956 0.455,-0.977 0.537,-0.977C0.619,-0.977 0.699,-0.956 0.777,-0.914C0.817,-0.892 0.853,-0.866 0.884,-0.834L0.867,-0.817C0.837,-0.847 0.803,-0.872 0.765,-0.893C0.691,-0.932 0.615,-0.952 0.537,-0.952C0.459,-0.952 0.383,-0.932 0.309,-0.892C0.235,-0.852 0.177,-0.795 0.136,-0.721C0.094,-0.647 0.074,-0.569 0.074,-0.488C0.074,-0.407 0.094,-0.33 0.135,-0.257C0.176,-0.184 0.233,-0.127 0.307,-0.086C0.38,-0.045 0.457,-0.024 0.537,-0.024C0.618,-0.024 0.695,-0.045 0.769,-0.086C0.805,-0.106 0.838,-0.131 0.867,-0.16ZM0.754,-0.705L0.746,-0.696C0.727,-0.715 0.705,-0.731 0.682,-0.744C0.635,-0.769 0.587,-0.781 0.538,-0.781C0.488,-0.781 0.44,-0.769 0.393,-0.743C0.347,-0.718 0.31,-0.682 0.284,-0.635C0.258,-0.588 0.245,-0.539 0.245,-0.488C0.245,-0.437 0.257,-0.388 0.283,-0.342C0.309,-0.296 0.345,-0.26 0.392,-0.234C0.438,-0.208 0.487,-0.195 0.538,-0.195C0.588,-0.195 0.637,-0.208 0.684,-0.234C0.707,-0.247 0.728,-0.262 0.746,-0.28L0.754,-0.272C0.735,-0.253 0.714,-0.237 0.689,-0.224C0.641,-0.197 0.59,-0.183 0.538,-0.183C0.485,-0.183 0.434,-0.197 0.386,-0.223C0.337,-0.25 0.3,-0.288 0.273,-0.336C0.246,-0.385 0.232,-0.435 0.232,-0.488C0.232,-0.541 0.246,-0.592 0.273,-0.641C0.301,-0.69 0.339,-0.728 0.387,-0.754C0.436,-0.78 0.486,-0.793 0.538,-0.793C0.589,-0.793 0.639,-0.78 0.688,-0.754C0.713,-0.741 0.735,-0.724 0.754,-0.705Z" style="fill:white;fill-rule:nonzero;stroke:white;stroke-width:0.01px;stroke-linejoin:round;"/>
        </g>
        <g transform="matrix(102.4,0,0,102.4,92.5,100)">
            <path d="M0.074,-0.024L0.733,-0.024L0.733,-0L0.049,-0L0.049,-0.977L0.733,-0.977L0.733,-0.952L0.074,-0.952L0.074,-0.024ZM0.159,-0.11L0.733,-0.11L0.733,-0.098L0.147,-0.098L0.147,-0.879L0.733,-0.879L0.733,-0.867L0.159,-0.867L0.159,-0.11ZM0.245,-0.195L0.733,-0.195L0.733,-0.183L0.232,-0.183L0.232,-0.793L0.733,-0.793L0.733,-0.781L0.245,-0.781L0.245,-0.195ZM0.635,-0.562L0.293,-0.562L0.293,-0.586L0.635,-0.586L0.635,-0.562ZM0.293,-0.391L0.293,-0.403L0.635,-0.403L0.635,-0.391L0.293,-0.391ZM0.293,-0.476L0.293,-0.488L0.635,-0.488L0.635,-0.476L0.293,-0.476Z" style="fill:white;fill-rule:nonzero;stroke:white;stroke-width:0.01px;stroke-linejoin:round;"/>
        </g>
        <g transform="matrix(102.4,0,0,102.4,172.5,100)">
            <path d="M0.581,-0.35L0.756,-0L0.729,-0L0.549,-0.359L0.57,-0.372C0.611,-0.399 0.643,-0.434 0.667,-0.477C0.695,-0.527 0.709,-0.579 0.709,-0.635C0.709,-0.69 0.695,-0.743 0.666,-0.794C0.638,-0.845 0.598,-0.884 0.548,-0.911C0.497,-0.938 0.445,-0.952 0.391,-0.952L0.073,-0.952L0.073,-0L0.049,-0L0.049,-0.977L0.391,-0.976L0.391,-0.977C0.449,-0.977 0.505,-0.962 0.56,-0.932C0.614,-0.903 0.657,-0.861 0.688,-0.806C0.718,-0.751 0.733,-0.694 0.733,-0.635C0.733,-0.575 0.718,-0.518 0.688,-0.464C0.662,-0.417 0.626,-0.379 0.581,-0.35ZM0.448,-0.397L0.646,-0L0.633,-0L0.43,-0.406L0.442,-0.409C0.465,-0.414 0.486,-0.422 0.507,-0.434C0.544,-0.454 0.572,-0.482 0.593,-0.519C0.613,-0.556 0.624,-0.594 0.624,-0.635C0.624,-0.675 0.613,-0.714 0.592,-0.751C0.571,-0.788 0.543,-0.817 0.506,-0.837C0.469,-0.857 0.43,-0.867 0.391,-0.867L0.391,-0.866L0.158,-0.866L0.158,-0L0.146,-0L0.146,-0.878L0.391,-0.878L0.391,-0.879C0.432,-0.879 0.473,-0.868 0.511,-0.847C0.55,-0.826 0.581,-0.796 0.603,-0.757C0.625,-0.718 0.636,-0.677 0.636,-0.635C0.636,-0.592 0.625,-0.552 0.604,-0.513C0.582,-0.474 0.552,-0.444 0.513,-0.423C0.492,-0.411 0.47,-0.403 0.448,-0.397ZM0.313,-0.476L0.551,-0L0.538,-0L0.293,-0.488L0.391,-0.488C0.416,-0.488 0.441,-0.495 0.464,-0.508C0.487,-0.52 0.506,-0.538 0.519,-0.562C0.532,-0.585 0.538,-0.609 0.538,-0.635C0.538,-0.66 0.531,-0.685 0.518,-0.708C0.505,-0.732 0.487,-0.75 0.464,-0.762C0.44,-0.775 0.416,-0.781 0.391,-0.781L0.244,-0.781L0.244,-0L0.231,-0L0.231,-0.793L0.391,-0.793C0.418,-0.793 0.444,-0.787 0.469,-0.773C0.495,-0.759 0.514,-0.74 0.529,-0.714C0.543,-0.689 0.55,-0.662 0.55,-0.635C0.55,-0.607 0.543,-0.581 0.529,-0.556C0.515,-0.531 0.496,-0.511 0.47,-0.497C0.445,-0.483 0.419,-0.476 0.391,-0.476L0.313,-0.476Z" style="fill:white;fill-rule:nonzero;stroke:white;stroke-width:0.01px;stroke-linejoin:round;"/>
        </g>
        <g transform="matrix(102.4,0,0,102.4,250,100)">
            <path d="M0,-0L0.5,-1.001L1.001,-0L0.974,-0L0.5,-0.946L0.027,-0L0,-0ZM0.783,-0L0.501,-0.564L0.219,-0L0.205,-0L0.5,-0.592L0.796,-0L0.783,-0ZM0.878,-0L0.5,-0.755L0.123,-0L0.109,-0L0.5,-0.782L0.892,-0L0.878,-0Z" style="fill:white;fill-rule:nonzero;stroke:white;stroke-width:0.01px;stroke-linejoin:round;"/>
        </g>
        <g transform="matrix(102.4,0,0,102.4,352.5,100)">
            <path d="M0.073,-0.942L0.073,-0L0.049,-0L0.049,-1.001L0.586,-0.463L1.124,-1.001L1.124,-0L1.099,-0L1.099,-0.942L0.586,-0.429L0.073,-0.942ZM0.159,-0.735L0.159,-0L0.146,-0L0.146,-0.765L0.586,-0.325L1.026,-0.765L1.026,-0L1.014,-0L1.014,-0.735L0.586,-0.308L0.159,-0.735ZM0.244,-0.529L0.244,-0L0.232,-0L0.232,-0.559L0.586,-0.204L0.94,-0.559L0.94,-0L0.928,-0L0.928,-0.529L0.586,-0.188L0.244,-0.529Z" style="fill:white;fill-rule:nonzero;stroke:white;stroke-width:0.01px;stroke-linejoin:round;"/>
        </g>
        <g transform="matrix(102.4,0,0,102.4,472.5,100)">
            <path d="M0.098,-0.977L0.098,-0L0.073,-0L0.073,-0.977L0.098,-0.977ZM0.269,-0L0.256,-0L0.256,-0.977L0.269,-0.976L0.269,-0ZM0.183,-0L0.171,-0L0.171,-0.976L0.183,-0.976L0.183,-0Z" style="fill:white;fill-rule:nonzero;stroke:white;stroke-width:0.01px;stroke-linejoin:round;"/>
        </g>
        <g transform="matrix(102.4,0,0,102.4,507.5,100)">
            <path d="M0.806,-0.22L0.815,-0.211C0.791,-0.187 0.763,-0.167 0.732,-0.149C0.67,-0.115 0.605,-0.098 0.538,-0.098C0.47,-0.098 0.405,-0.115 0.343,-0.149C0.281,-0.184 0.233,-0.232 0.198,-0.293C0.164,-0.355 0.147,-0.42 0.147,-0.488C0.147,-0.556 0.164,-0.622 0.199,-0.684C0.234,-0.747 0.283,-0.795 0.345,-0.828C0.407,-0.862 0.472,-0.879 0.538,-0.879C0.603,-0.879 0.667,-0.862 0.729,-0.829C0.761,-0.811 0.79,-0.79 0.814,-0.765L0.806,-0.756C0.782,-0.781 0.754,-0.801 0.723,-0.818C0.663,-0.85 0.601,-0.867 0.538,-0.867C0.473,-0.867 0.411,-0.85 0.351,-0.818C0.291,-0.785 0.244,-0.739 0.21,-0.678C0.176,-0.617 0.159,-0.554 0.159,-0.488C0.159,-0.422 0.176,-0.36 0.209,-0.3C0.242,-0.24 0.289,-0.193 0.349,-0.16C0.409,-0.126 0.472,-0.11 0.538,-0.11C0.603,-0.11 0.666,-0.126 0.726,-0.16C0.756,-0.176 0.783,-0.196 0.806,-0.22ZM0.867,-0.16L0.884,-0.142C0.854,-0.112 0.819,-0.086 0.781,-0.064C0.703,-0.021 0.622,-0 0.537,-0C0.453,-0 0.372,-0.021 0.294,-0.064C0.217,-0.107 0.157,-0.168 0.114,-0.245C0.071,-0.322 0.049,-0.403 0.049,-0.488C0.049,-0.573 0.071,-0.655 0.115,-0.733C0.158,-0.811 0.219,-0.872 0.297,-0.914C0.375,-0.956 0.455,-0.977 0.537,-0.977C0.619,-0.977 0.699,-0.956 0.777,-0.914C0.817,-0.892 0.853,-0.866 0.884,-0.834L0.867,-0.817C0.837,-0.847 0.803,-0.872 0.765,-0.893C0.691,-0.932 0.615,-0.952 0.537,-0.952C0.459,-0.952 0.383,-0.932 0.309,-0.892C0.235,-0.852 0.177,-0.795 0.136,-0.721C0.094,-0.647 0.074,-0.569 0.074,-0.488C0.074,-0.407 0.094,-0.33 0.135,-0.257C0.176,-0.184 0.233,-0.127 0.307,-0.086C0.38,-0.045 0.457,-0.024 0.537,-0.024C0.618,-0.024 0.695,-0.045 0.769,-0.086C0.805,-0.106 0.838,-0.131 0.867,-0.16ZM0.754,-0.705L0.746,-0.696C0.727,-0.715 0.705,-0.731 0.682,-0.744C0.635,-0.769 0.587,-0.781 0.538,-0.781C0.488,-0.781 0.44,-0.769 0.393,-0.743C0.347,-0.718 0.31,-0.682 0.284,-0.635C0.258,-0.588 0.245,-0.539 0.245,-0.488C0.245,-0.437 0.257,-0.388 0.283,-0.342C0.309,-0.296 0.345,-0.26 0.392,-0.234C0.438,-0.208 0.487,-0.195 0.538,-0.195C0.588,-0.195 0.637,-0.208 0.684,-0.234C0.707,-0.247 0.728,-0.262 0.746,-0.28L0.754,-0.272C0.735,-0.253 0.714,-0.237 0.689,-0.224C0.641,-0.197 0.59,-0.183 0.538,-0.183C0.485,-0.183 0.434,-0.197 0.386,-0.223C0.337,-0.25 0.3,-0.288 0.273,-0.336C0.246,-0.385 0.232,-0.435 0.232,-0.488C0.232,-0.541 0.246,-0.592 0.273,-0.641C0.301,-0.69 0.339,-0.728 0.387,-0.754C0.436,-0.78 0.486,-0.793 0.538,-0.793C0.589,-0.793 0.639,-0.78 0.688,-0.754C0.713,-0.741 0.735,-0.724 0.754,-0.705Z" style="fill:white;fill-rule:nonzero;stroke:white;stroke-width:0.01px;stroke-linejoin:round;"/>
        </g>
    </g>
</svg>
