<?xml version="1.0" encoding="UTF-8" standalone="no"?>
<!DOCTYPE svg PUBLIC "-//W3C//DTD SVG 1.1//EN" "http://www.w3.org/Graphics/SVG/1.1/DTD/svg11.dtd">
<svg width="100%" height="100%" viewBox="0 0 8334 3100" version="1.1" xmlns="http://www.w3.org/2000/svg" xmlns:xlink="http://www.w3.org/1999/xlink" xml:space="preserve" xmlns:serif="http://www.serif.com/" style="fill-rule:evenodd;clip-rule:evenodd;stroke-miterlimit:2;">
    <g transform="matrix(-3.12029,-8.56097e-16,8.56097e-16,-3.12029,7122.44,3088.31)">
        <g>
            <g>
                <g transform="matrix(-1,5.48728e-16,5.48728e-16,1,1592.76,-11.76)">
                    <g transform="matrix(-0.24,6.58474e-17,-6.58474e-17,-0.24,1952.6,1004.6)">
                        <path d="M419.102,2087.24C421.939,2082.15 421.939,2075.95 419.102,2070.85L393.531,2024.99C390.56,2019.66 384.935,2016.36 378.835,2016.36L321.022,2016.36C314.922,2016.36 309.297,2019.66 306.327,2024.99L280.756,2070.85C277.914,2075.95 277.914,2082.15 280.756,2087.24L306.327,2133.1C309.297,2138.43 314.922,2141.73 321.022,2141.73L378.835,2141.73C384.935,2141.73 390.56,2138.43 393.531,2133.1L419.102,2087.24ZM719.635,1174.46C714.518,1184.6 703.647,1203.97 689.88,1228.5C647.385,1304.25 568.285,1445.23 555.001,1501.86C536.351,1581.36 516.222,1826.34 516.222,2083.5C516.222,2340.66 536.351,2585.64 555.001,2665.14C568.293,2721.77 647.405,2862.78 689.905,2938.54C703.651,2963.05 714.518,2982.41 719.635,2992.54C729.851,3012.75 732.568,3041.05 735.705,3073.81C739.768,3116.15 744.372,3164.14 766.651,3196.36C770.414,3201.8 785.03,3215.42 838.884,3223.96C837.114,3222.02 835.514,3220.01 834.08,3217.94C806.072,3177.45 801.039,3075.36 796.593,2985.3C794.105,2934.8 791.28,2877.58 784.41,2863.98C779.664,2854.59 768.989,2835.57 755.476,2811.48C709.001,2728.64 631.21,2590 616.697,2528.14C599.91,2456.59 576.918,2358.61 576.918,2083.5C576.918,1823.6 597.564,1574.72 616.697,1493.19C631.21,1431.33 708.989,1292.7 755.464,1209.87C768.98,1185.77 779.66,1166.74 784.41,1157.35C791.405,1143.51 793.914,1117.31 796.576,1089.58C801.076,1042.62 806.176,989.409 834.08,949.055C835.514,946.989 837.114,944.98 838.884,943.039C785.026,951.568 770.414,965.193 766.651,970.634C744.372,1002.86 739.768,1050.85 735.705,1093.19C732.568,1125.95 729.851,1154.24 719.635,1174.46ZM487.856,2884.42C481.751,2884.42 476.131,2887.72 473.156,2893.05L447.589,2938.91C444.747,2944 444.747,2950.2 447.589,2955.3L473.156,3001.16C476.131,3006.49 481.751,3009.79 487.856,3009.79L545.668,3009.79C551.768,3009.79 557.393,3006.49 560.364,3001.16L585.931,2955.3C588.772,2950.2 588.772,2944 585.931,2938.91L560.364,2893.05C557.393,2887.72 551.768,2884.42 545.668,2884.42L487.856,2884.42ZM1178.81,659.13C1180.72,624.693 1177.71,587.856 1158.2,558.326C1178.45,591.085 1178.79,631.426 1174.86,668.539C1170.71,707.689 1161.45,746.555 1149.87,784.122C1138.17,822.059 1125.4,859.589 1114.88,897.889C1104.34,936.276 1096.38,975.276 1090.11,1014.58C1074.56,1111.93 1070.91,1210.65 1073.63,1309.07C1074.53,1341.68 1076.37,1374.19 1078.39,1406.74C1079.52,1425.09 1081.26,1443.36 1083.06,1461.65C1083.96,1470.76 1084.86,1479.88 1085.75,1488.99C1086.48,1496.35 1088.14,1504.23 1087.98,1511.63C1087.88,1515.98 1085.86,1520.37 1084.61,1524.55C1081.56,1534.7 1078.48,1544.84 1075.52,1555.02C1069.86,1574.47 1064.67,1594.08 1059.79,1613.75C1050.23,1652.23 1041.88,1690.93 1034.45,1729.88C1026.53,1771.41 1020.45,1813.27 1015.15,1855.2C1002.03,1959.06 997.509,2064.14 1002.78,2168.69C1003.79,2188.7 1005.11,2208.7 1006.68,2228.68C1011.08,2277.76 1016.31,2326.71 1023.96,2375.4C1035.25,2447.23 1050.37,2518.14 1069.02,2588.4C1073.63,2605.75 1078.77,2622.93 1083.93,2640.11C1085.32,2644.72 1087.86,2650.22 1088.04,2655.02C1088.12,2657.26 1087.58,2659.72 1087.36,2661.94C1085.8,2677.76 1084.24,2693.58 1082.69,2709.4C1076.67,2770.55 1073.38,2832.22 1072.69,2893.66C1071.53,2996.99 1078.96,3100.58 1099.11,3201.99C1109.2,3252.76 1123.95,3302.39 1139.92,3351.6C1150.85,3385.28 1160.84,3418.9 1167.81,3453.65C1174.63,3487.6 1179.78,3523.19 1175.4,3557.79C1173.36,3573.99 1168.74,3589.95 1160.91,3604.32C1179.45,3572.59 1181.06,3534.2 1178.11,3498.45C1175.05,3461.4 1167.5,3424.09 1157.47,3388.32C1142.01,3333.21 1125.06,3278.82 1113.03,3222.8C1089.87,3114.98 1083.12,3002.67 1086.61,2892.53C1088.51,2832.85 1092.37,2773.25 1098.43,2713.85C1100.01,2698.45 1101.6,2683.06 1103.18,2667.67C1103.64,2663.17 1104.67,2658.4 1104.6,2653.88C1104.51,2647.83 1101.43,2641.27 1099.71,2635.45C1096.78,2625.54 1093.81,2615.63 1090.98,2605.68C1069.72,2530.88 1054.08,2454.47 1042.17,2377.66C1032.91,2317.99 1026.57,2257.8 1022.91,2197.54C1016.25,2087.75 1019.51,1977.6 1031.68,1868.31C1043.48,1762.3 1063.33,1656.62 1093.07,1554.17C1095.6,1545.43 1098.22,1536.71 1100.79,1527.98C1102.25,1523.03 1104.68,1517.76 1104.57,1512.59C1104.45,1507.08 1103.42,1501.43 1102.86,1495.96C1101.37,1481.48 1099.87,1467.01 1098.39,1452.53C1094.48,1414.23 1090.83,1375.5 1089.24,1337.03C1086.05,1259.67 1085.2,1182.94 1090.73,1105.58C1096.16,1029.43 1108.88,953.959 1128.24,880.114C1147.43,806.897 1174.59,735.468 1178.81,659.13ZM447.589,1258.98L473.156,1304.84C476.131,1310.17 481.751,1313.48 487.856,1313.48L545.668,1313.48C551.768,1313.48 557.393,1310.17 560.364,1304.84L585.931,1258.98C588.772,1253.89 588.772,1247.69 585.931,1242.59L560.364,1196.73C557.393,1191.4 551.768,1188.1 545.668,1188.1L487.856,1188.1C481.751,1188.1 476.131,1191.4 473.156,1196.73L447.589,1242.59C444.747,1247.69 444.747,1253.89 447.589,1258.98ZM264.477,1901.77C211.473,1952.13 165.689,1995.62 165.689,2083.5C165.689,2171.38 211.464,2214.87 264.472,2265.23C324.81,2322.55 393.193,2387.52 393.193,2527.81C393.193,2623.22 375.031,2663.51 357.468,2702.47C339.964,2741.28 321.868,2781.42 321.868,2886.8C321.868,3024.52 449.097,3219.54 524.939,3323.53C563.018,3375.74 625.901,3408.12 694.976,3411.63C650.301,3378.58 611.301,3329.87 581.564,3289.09C512.931,3194.98 371.21,2972.81 371.21,2886.8C371.21,2774.22 389.902,2719.05 407.985,2665.7C424.277,2617.63 439.66,2572.23 439.66,2484.03C439.66,2295.85 360.677,2241.59 297.214,2198C254.947,2168.96 215.027,2141.54 215.027,2083.5C215.027,1975.95 271.343,1921.71 330.968,1864.29C389.772,1807.66 450.581,1749.1 465.81,1628.69C484.601,1480.16 446.572,1426.11 413.018,1378.43C392.86,1349.78 373.822,1322.72 371.247,1281.38C362.414,1139.43 487.047,950.718 581.564,821.109C597.572,799.164 617.243,780.189 639.572,764.689C593.068,778.268 552.501,805.672 524.939,843.468C449.097,947.464 321.868,1142.49 321.868,1280.2C321.868,1385.58 339.964,1425.71 357.468,1464.53C375.031,1503.49 393.193,1543.78 393.193,1639.19C393.193,1779.48 324.81,1844.45 264.477,1901.77ZM1194.47,3311.6C1192.3,3304.35 1240.63,3476.59 1240.63,3525.84C1240.63,3559.32 1235.21,3592.76 1217.55,3619.3C1199.49,3646.44 1171.23,3663.54 1133.52,3670.15C1117.73,3672.92 1102.08,3674.32 1087.02,3674.32C1030.51,3674.32 979.622,3654.38 943.714,3618.17C916.934,3591.16 901.093,3557.21 901.347,3527.35C901.576,3500.27 901.572,3491.27 901.547,3488.28L901.347,3488.28C901.347,3467.11 881.355,3449.89 856.784,3449.89L707.539,3449.89C621.497,3449.89 541.772,3411.01 494.281,3345.89C398.318,3214.3 283.927,3027.84 283.927,2886.8C283.927,2773.27 303.727,2729.35 322.877,2686.87C339.527,2649.95 355.252,2615.07 355.252,2527.81C355.252,2403.81 298.464,2349.86 238.343,2292.74C183.968,2241.09 127.743,2187.67 127.743,2083.5C127.743,1979.33 183.968,1925.91 238.343,1874.26C298.464,1817.14 355.252,1763.19 355.252,1639.19C355.252,1551.93 339.527,1517.06 322.877,1480.13C303.727,1437.65 283.927,1393.73 283.927,1280.2C283.927,1139.16 398.318,952.701 494.281,821.109C541.768,755.989 621.489,717.11 707.539,717.11L856.784,717.11C881.355,717.11 901.347,699.893 901.347,678.722L901.547,678.722C901.572,675.73 901.576,666.726 901.347,639.66C901.093,609.789 916.934,575.831 943.722,548.818C979.622,512.618 1030.51,492.681 1087.01,492.681L1087.02,492.681C1102.08,492.681 1117.73,494.081 1133.52,496.847C1171.23,503.456 1199.5,520.564 1217.55,547.706C1235.21,574.247 1240.84,607.676 1240.63,641.164C1240.6,646.461 1237.47,685.396 1236.44,692.439C1233.94,709.547 1230.68,725.643 1227.61,739.639C1226.6,744.24 1224.83,752.07 1224,755.689C1220.26,771.955 1214.93,789.497 1208.73,809.318C1207.87,812.057 1204.16,823.853 1202.98,827.659C1197.57,844.964 1191.71,864.047 1185.84,885.351C1184.53,890.115 1181.79,900.405 1180.91,903.797C1176.39,921.272 1171.94,940.172 1167.75,960.68C1167.02,964.221 1165.14,973.754 1164.25,978.497C1157.29,1015.55 1151.29,1057.63 1147.27,1105.83C1147.06,1108.33 1146.24,1118.57 1145.93,1122.91C1144.71,1140.07 1143.75,1158 1143.07,1176.69C1142.94,1180.18 1142.64,1189.63 1142.53,1193.71C1142.08,1210.86 1141.88,1228.65 1141.95,1247.11C1141.98,1253.06 1142.01,1257.96 1142.09,1264.38C1142.32,1281.66 1142.79,1299.54 1143.51,1317.99C1143.66,1321.84 1144.1,1331.88 1144.26,1335.25C1145.3,1357.36 1146.7,1380.28 1148.53,1404.11C1148.59,1404.88 1148.69,1406.17 1148.75,1407.01C1150.18,1425.43 1151.86,1444.39 1153.8,1463.87C1154.01,1466.05 1155.21,1477.83 1155.47,1480.29C1156.55,1490.54 1157.68,1500.9 1158.9,1511.44L1159.36,1515.43L1158.17,1519.27C1150.35,1544.37 1143.26,1569.2 1136.78,1593.72C1135.52,1598.45 1129.36,1622.66 1128.88,1624.61C1126.73,1633.33 1124.64,1642.01 1122.65,1650.62C1121.37,1656.17 1116.18,1679.62 1114.13,1689.47C1078.91,1857.97 1072.55,2001.83 1072.55,2083.5C1072.55,2170.13 1079.73,2326.75 1120.88,2508.52C1121.54,2511.42 1133.55,2560.96 1134.73,2565.5C1136.58,2572.6 1138.48,2579.73 1140.43,2586.89C1140.82,2588.33 1156.34,2641.76 1156.77,2643.14C1157.25,2644.67 1157.69,2646.2 1158.17,2647.73L1159.36,2651.57L1158.9,2655.56C1157.68,2666.1 1156.55,2676.46 1155.47,2686.71C1155,2691.16 1154.36,2697.47 1153.8,2703.13C1151.86,2722.61 1150.18,2741.57 1148.75,2759.99C1148.32,2765.6 1147.89,2771.38 1147.56,2776.06C1146.2,2795.2 1145.11,2813.74 1144.26,2831.75C1144.07,2835.76 1143.65,2845.52 1143.51,2849.01C1142.79,2867.46 1142.32,2885.34 1142.09,2902.62C1141.99,2910.44 1141.97,2915.01 1141.95,2919.88C1141.88,2938.35 1142.08,2956.14 1142.53,2973.29C1142.7,2979.96 1142.87,2984.75 1143.07,2990.31C1143.75,3009 1144.71,3026.93 1145.93,3044.08C1146.53,3052.4 1146.65,3053.72 1147.27,3061.16C1148.86,3080.25 1150.76,3098.38 1152.91,3115.62C1154.28,3126.53 1154.49,3127.87 1155.2,3132.94C1157.93,3152.64 1160.99,3171.13 1164.25,3188.51C1165.89,3197.23 1166.47,3200.06 1167.75,3206.32" style="fill:white;stroke:white;stroke-width:99.64px;"/>
                    </g>
                    <g transform="matrix(1,-4.93038e-32,4.93038e-32,1,952.561,4.56)">
                        <path d="M909.783,514.487L922.045,514.487C922.208,514.487 922.361,514.444 922.52,514.422C920.624,513.581 919.136,512.722 917.871,511.741C917.28,511.841 916.677,511.904 916.058,511.904C910.073,511.904 905.222,507.053 905.222,501.068C905.222,498.263 906.297,495.716 908.045,493.791C907.761,492.123 907.643,490.447 907.65,488.639C907.26,488.933 906.911,489.284 906.665,489.725L901.242,499.452C900.64,500.532 900.64,501.848 901.242,502.928L906.665,512.656C907.296,513.785 908.488,514.487 909.783,514.487Z" style="fill:white;fill-rule:nonzero;stroke:white;stroke-width:23.91px;"/>
                    </g>
                    <g transform="matrix(1,-4.93038e-32,4.93038e-32,1,952.561,4.56)">
                        <path d="M922.414,490.031L929.168,502.145C929.714,503.124 929.851,504.255 929.603,505.317L930.937,502.925C931.545,501.835 931.545,500.507 930.937,499.417L925.463,489.599C924.826,488.458 923.623,487.751 922.316,487.751L918.532,487.751C920.143,487.751 921.629,488.623 922.414,490.031Z" style="fill:white;fill-rule:nonzero;stroke:white;stroke-width:23.91px;"/>
                    </g>
                    <g transform="matrix(1,-4.93038e-32,4.93038e-32,1,952.561,4.56)">
                        <path d="M924.857,501.068C924.857,496.209 920.917,492.269 916.058,492.269C911.198,492.269 907.258,496.209 907.258,501.068C907.258,505.928 911.198,509.868 916.058,509.868C920.917,509.868 924.857,505.928 924.857,501.068Z" style="fill:white;fill-rule:nonzero;stroke:white;stroke-width:23.91px;"/>
                    </g>
                    <g transform="matrix(1,-4.93038e-32,4.93038e-32,1,952.561,4.56)">
                        <path d="M876.018,303.571C870.033,303.571 865.182,298.72 865.182,292.735C865.182,289.93 866.257,287.382 868.006,285.458C867.722,283.79 867.603,282.113 867.61,280.306C867.221,280.6 866.872,280.951 866.626,281.391L861.202,291.119C860.6,292.199 860.6,293.514 861.202,294.595L866.626,304.322C867.256,305.452 868.449,306.153 869.743,306.153L882.005,306.153C882.168,306.153 882.322,306.11 882.48,306.089C880.585,305.248 879.096,304.389 877.832,303.407C877.241,303.507 876.637,303.571 876.018,303.571Z" style="fill:white;fill-rule:nonzero;stroke:white;stroke-width:23.91px;"/>
                    </g>
                    <g transform="matrix(1,-4.93038e-32,4.93038e-32,1,952.561,4.56)">
                        <path d="M885.423,281.265C884.787,280.124 883.583,279.417 882.277,279.417L878.492,279.417C880.104,279.417 881.589,280.29 882.374,281.698L889.129,293.812C889.674,294.79 889.811,295.921 889.564,296.984L890.897,294.592C891.505,293.502 891.505,292.174 890.897,291.084L885.423,281.265Z" style="fill:white;fill-rule:nonzero;stroke:white;stroke-width:23.91px;"/>
                    </g>
                    <g transform="matrix(1,-4.93038e-32,4.93038e-32,1,952.561,4.56)">
                        <path d="M884.817,292.735C884.817,287.876 880.877,283.936 876.018,283.936C871.158,283.936 867.219,287.876 867.219,292.735C867.219,297.595 871.158,301.534 876.018,301.534C880.877,301.534 884.817,297.595 884.817,292.735Z" style="fill:white;fill-rule:nonzero;stroke:white;stroke-width:23.91px;"/>
                    </g>
                    <g transform="matrix(1,-4.93038e-32,4.93038e-32,1,952.561,4.56)">
                        <path d="M876.018,710.687C870.033,710.687 865.182,705.835 865.182,699.851C865.182,697.046 866.257,694.498 868.006,692.574C867.722,690.906 867.603,689.229 867.61,687.421C867.221,687.715 866.872,688.066 866.626,688.507L861.202,698.234C860.6,699.315 860.6,700.63 861.202,701.71L866.626,711.437C867.256,712.568 868.449,713.268 869.743,713.268L882.005,713.268C882.168,713.268 882.322,713.226 882.48,713.205C880.585,712.364 879.096,711.504 877.832,710.523C877.241,710.623 876.637,710.687 876.018,710.687Z" style="fill:white;fill-rule:nonzero;stroke:white;stroke-width:23.91px;"/>
                    </g>
                    <g transform="matrix(1,-4.93038e-32,4.93038e-32,1,952.561,4.56)">
                        <path d="M882.277,686.533L878.492,686.533C880.104,686.533 881.589,687.406 882.374,688.813L889.129,700.928C889.674,701.906 889.811,703.037 889.564,704.1L890.897,701.708C891.505,700.617 891.505,699.29 890.897,698.199L885.423,688.381C884.787,687.24 883.583,686.533 882.277,686.533Z" style="fill:white;fill-rule:nonzero;stroke:white;stroke-width:23.91px;"/>
                    </g>
                    <g transform="matrix(1,-4.93038e-32,4.93038e-32,1,952.561,4.56)">
                        <path d="M884.817,699.851C884.817,694.991 880.877,691.052 876.018,691.052C871.158,691.052 867.219,694.991 867.219,699.851C867.219,704.711 871.158,708.65 876.018,708.65C880.877,708.65 884.817,704.711 884.817,699.851Z" style="fill:white;fill-rule:nonzero;stroke:white;stroke-width:23.91px;"/>
                    </g>
                    <g transform="matrix(-924.042,2.53525e-13,-2.49479e-13,-909.297,1875.26,60.569)">
                        <g>
                            <path d="M0.806,-0.22L0.815,-0.211C0.791,-0.187 0.763,-0.167 0.732,-0.149C0.67,-0.115 0.605,-0.098 0.538,-0.098C0.47,-0.098 0.405,-0.115 0.343,-0.149C0.281,-0.184 0.233,-0.232 0.198,-0.293C0.164,-0.355 0.147,-0.42 0.147,-0.488C0.147,-0.556 0.164,-0.622 0.199,-0.684C0.234,-0.747 0.283,-0.795 0.345,-0.828C0.407,-0.862 0.472,-0.879 0.538,-0.879C0.603,-0.879 0.667,-0.862 0.729,-0.829C0.761,-0.811 0.79,-0.79 0.814,-0.765L0.806,-0.756C0.782,-0.781 0.754,-0.801 0.723,-0.818C0.663,-0.85 0.601,-0.867 0.538,-0.867C0.473,-0.867 0.411,-0.85 0.351,-0.818C0.291,-0.785 0.244,-0.739 0.21,-0.678C0.176,-0.617 0.159,-0.554 0.159,-0.488C0.159,-0.422 0.176,-0.36 0.209,-0.3C0.242,-0.24 0.289,-0.193 0.349,-0.16C0.409,-0.126 0.472,-0.11 0.538,-0.11C0.603,-0.11 0.666,-0.126 0.726,-0.16C0.756,-0.176 0.783,-0.196 0.806,-0.22ZM0.867,-0.16L0.884,-0.142C0.854,-0.112 0.819,-0.086 0.781,-0.064C0.703,-0.021 0.622,-0 0.537,-0C0.453,-0 0.372,-0.021 0.294,-0.064C0.217,-0.107 0.157,-0.168 0.114,-0.245C0.071,-0.322 0.049,-0.403 0.049,-0.488C0.049,-0.573 0.071,-0.655 0.115,-0.733C0.158,-0.811 0.219,-0.872 0.297,-0.914C0.375,-0.956 0.455,-0.977 0.537,-0.977C0.619,-0.977 0.699,-0.956 0.777,-0.914C0.817,-0.892 0.853,-0.866 0.884,-0.834L0.867,-0.817C0.837,-0.847 0.803,-0.872 0.765,-0.893C0.691,-0.932 0.615,-0.952 0.537,-0.952C0.459,-0.952 0.383,-0.932 0.309,-0.892C0.235,-0.852 0.177,-0.795 0.136,-0.721C0.094,-0.647 0.074,-0.569 0.074,-0.488C0.074,-0.407 0.094,-0.33 0.135,-0.257C0.176,-0.184 0.233,-0.127 0.307,-0.086C0.38,-0.045 0.457,-0.024 0.537,-0.024C0.618,-0.024 0.695,-0.045 0.769,-0.086C0.805,-0.106 0.838,-0.131 0.867,-0.16ZM0.754,-0.705L0.746,-0.696C0.727,-0.715 0.705,-0.731 0.682,-0.744C0.635,-0.769 0.587,-0.781 0.538,-0.781C0.488,-0.781 0.44,-0.769 0.393,-0.743C0.347,-0.718 0.31,-0.682 0.284,-0.635C0.258,-0.588 0.245,-0.539 0.245,-0.488C0.245,-0.437 0.257,-0.388 0.283,-0.342C0.309,-0.296 0.345,-0.26 0.392,-0.234C0.438,-0.208 0.487,-0.195 0.538,-0.195C0.588,-0.195 0.637,-0.208 0.684,-0.234C0.707,-0.247 0.728,-0.262 0.746,-0.28L0.754,-0.272C0.735,-0.253 0.714,-0.237 0.689,-0.224C0.641,-0.197 0.59,-0.183 0.538,-0.183C0.485,-0.183 0.434,-0.197 0.386,-0.223C0.337,-0.25 0.3,-0.288 0.273,-0.336C0.246,-0.385 0.232,-0.435 0.232,-0.488C0.232,-0.541 0.246,-0.592 0.273,-0.641C0.301,-0.69 0.339,-0.728 0.387,-0.754C0.436,-0.78 0.486,-0.793 0.538,-0.793C0.589,-0.793 0.639,-0.78 0.688,-0.754C0.713,-0.741 0.735,-0.724 0.754,-0.705Z" style="fill:white;fill-rule:nonzero;stroke:white;stroke-width:0.03px;"/>
                        </g>
                    </g>
                    <g transform="matrix(-0.24,6.58474e-17,-6.58474e-17,-0.24,1950.92,1002.92)">
                        <circle cx="1078" cy="630" r="123" style="fill:white;stroke:white;stroke-width:99.64px;"/>
                    </g>
                    <g transform="matrix(-0.24,6.58474e-17,-6.58474e-17,-0.24,1948.28,310.519)">
                        <circle cx="1078" cy="630" r="123" style="fill:white;stroke:white;stroke-width:99.64px;"/>
                    </g>
                </g>
                <g transform="matrix(-970.018,2.66139e-13,-2.44524e-13,-891.235,1325.35,59.1233)">
                    <g>
                        <path d="M0.049,-0.977L0.073,-0.977L0.073,-0.024L0.732,-0.024L0.732,-0L0.049,-0L0.049,-0.977ZM0.146,-0.098L0.146,-0.977L0.158,-0.977L0.158,-0.11L0.732,-0.109L0.732,-0.097L0.146,-0.098ZM0.231,-0.183L0.231,-0.977L0.244,-0.977L0.244,-0.195L0.732,-0.195L0.732,-0.183L0.231,-0.183Z" style="fill:white;fill-rule:nonzero;stroke:white;stroke-width:0.03px;"/>
                    </g>
                </g>
                <g transform="matrix(1,-6.90253e-31,6.90253e-31,1,301.577,-11.76)">
                    <g transform="matrix(-0.24,6.58474e-17,-6.58474e-17,-0.24,1952.6,1004.6)">
                        <path d="M419.102,2087.24C421.939,2082.15 421.939,2075.95 419.102,2070.85L393.531,2024.99C390.56,2019.66 384.935,2016.36 378.835,2016.36L321.022,2016.36C314.922,2016.36 309.297,2019.66 306.327,2024.99L280.756,2070.85C277.914,2075.95 277.914,2082.15 280.756,2087.24L306.327,2133.1C309.297,2138.43 314.922,2141.73 321.022,2141.73L378.835,2141.73C384.935,2141.73 390.56,2138.43 393.531,2133.1L419.102,2087.24ZM719.635,1174.46C714.518,1184.6 703.647,1203.97 689.88,1228.5C647.385,1304.25 568.285,1445.23 555.001,1501.86C536.351,1581.36 516.222,1826.34 516.222,2083.5C516.222,2340.66 536.351,2585.64 555.001,2665.14C568.293,2721.77 647.405,2862.78 689.905,2938.54C703.651,2963.05 714.518,2982.41 719.635,2992.54C729.851,3012.75 732.568,3041.05 735.705,3073.81C739.768,3116.15 744.372,3164.14 766.651,3196.36C770.414,3201.8 785.03,3215.42 838.884,3223.96C837.114,3222.02 835.514,3220.01 834.08,3217.94C806.072,3177.45 801.039,3075.36 796.593,2985.3C794.105,2934.8 791.28,2877.58 784.41,2863.98C779.664,2854.59 768.989,2835.57 755.476,2811.48C709.001,2728.64 631.21,2590 616.697,2528.14C599.91,2456.59 576.918,2358.61 576.918,2083.5C576.918,1823.6 597.564,1574.72 616.697,1493.19C631.21,1431.33 708.989,1292.7 755.464,1209.87C768.98,1185.77 779.66,1166.74 784.41,1157.35C791.405,1143.51 793.914,1117.31 796.576,1089.58C801.076,1042.62 806.176,989.409 834.08,949.055C835.514,946.989 837.114,944.98 838.884,943.039C785.026,951.568 770.414,965.193 766.651,970.634C744.372,1002.86 739.768,1050.85 735.705,1093.19C732.568,1125.95 729.851,1154.24 719.635,1174.46ZM487.856,2884.42C481.751,2884.42 476.131,2887.72 473.156,2893.05L447.589,2938.91C444.747,2944 444.747,2950.2 447.589,2955.3L473.156,3001.16C476.131,3006.49 481.751,3009.79 487.856,3009.79L545.668,3009.79C551.768,3009.79 557.393,3006.49 560.364,3001.16L585.931,2955.3C588.772,2950.2 588.772,2944 585.931,2938.91L560.364,2893.05C557.393,2887.72 551.768,2884.42 545.668,2884.42L487.856,2884.42ZM1178.81,659.13C1180.72,624.693 1177.71,587.856 1158.2,558.326C1178.45,591.085 1178.79,631.426 1174.86,668.539C1170.71,707.689 1161.45,746.555 1149.87,784.122C1138.17,822.059 1125.4,859.589 1114.88,897.889C1104.34,936.276 1096.38,975.276 1090.11,1014.58C1074.56,1111.93 1070.91,1210.65 1073.63,1309.07C1074.53,1341.68 1076.37,1374.19 1078.39,1406.74C1079.52,1425.09 1081.26,1443.36 1083.06,1461.65C1083.96,1470.76 1084.86,1479.88 1085.75,1488.99C1086.48,1496.35 1088.14,1504.23 1087.98,1511.63C1087.88,1515.98 1085.86,1520.37 1084.61,1524.55C1081.56,1534.7 1078.48,1544.84 1075.52,1555.02C1069.86,1574.47 1064.67,1594.08 1059.79,1613.75C1050.23,1652.23 1041.88,1690.93 1034.45,1729.88C1026.53,1771.41 1020.45,1813.27 1015.15,1855.2C1002.03,1959.06 997.509,2064.14 1002.78,2168.69C1003.79,2188.7 1005.11,2208.7 1006.68,2228.68C1011.08,2277.76 1016.31,2326.71 1023.96,2375.4C1035.25,2447.23 1050.37,2518.14 1069.02,2588.4C1073.63,2605.75 1078.77,2622.93 1083.93,2640.11C1085.32,2644.72 1087.86,2650.22 1088.04,2655.02C1088.12,2657.26 1087.58,2659.72 1087.36,2661.94C1085.8,2677.76 1084.24,2693.58 1082.69,2709.4C1076.67,2770.55 1073.38,2832.22 1072.69,2893.66C1071.53,2996.99 1078.96,3100.58 1099.11,3201.99C1109.2,3252.76 1123.95,3302.39 1139.92,3351.6C1150.85,3385.28 1160.84,3418.9 1167.81,3453.65C1174.63,3487.6 1179.78,3523.19 1175.4,3557.79C1173.36,3573.99 1168.74,3589.95 1160.91,3604.32C1179.45,3572.59 1181.06,3534.2 1178.11,3498.45C1175.05,3461.4 1167.5,3424.09 1157.47,3388.32C1142.01,3333.21 1125.06,3278.82 1113.03,3222.8C1089.87,3114.98 1083.12,3002.67 1086.61,2892.53C1088.51,2832.85 1092.37,2773.25 1098.43,2713.85C1100.01,2698.45 1101.6,2683.06 1103.18,2667.67C1103.64,2663.17 1104.67,2658.4 1104.6,2653.88C1104.51,2647.83 1101.43,2641.27 1099.71,2635.45C1096.78,2625.54 1093.81,2615.63 1090.98,2605.68C1069.72,2530.88 1054.08,2454.47 1042.17,2377.66C1032.91,2317.99 1026.57,2257.8 1022.91,2197.54C1016.25,2087.75 1019.51,1977.6 1031.68,1868.31C1043.48,1762.3 1063.33,1656.62 1093.07,1554.17C1095.6,1545.43 1098.22,1536.71 1100.79,1527.98C1102.25,1523.03 1104.68,1517.76 1104.57,1512.59C1104.45,1507.08 1103.42,1501.43 1102.86,1495.96C1101.37,1481.48 1099.87,1467.01 1098.39,1452.53C1094.48,1414.23 1090.83,1375.5 1089.24,1337.03C1086.05,1259.67 1085.2,1182.94 1090.73,1105.58C1096.16,1029.43 1108.88,953.959 1128.24,880.114C1147.43,806.897 1174.59,735.468 1178.81,659.13ZM447.589,1258.98L473.156,1304.84C476.131,1310.17 481.751,1313.48 487.856,1313.48L545.668,1313.48C551.768,1313.48 557.393,1310.17 560.364,1304.84L585.931,1258.98C588.772,1253.89 588.772,1247.69 585.931,1242.59L560.364,1196.73C557.393,1191.4 551.768,1188.1 545.668,1188.1L487.856,1188.1C481.751,1188.1 476.131,1191.4 473.156,1196.73L447.589,1242.59C444.747,1247.69 444.747,1253.89 447.589,1258.98ZM264.477,1901.77C211.473,1952.13 165.689,1995.62 165.689,2083.5C165.689,2171.38 211.464,2214.87 264.472,2265.23C324.81,2322.55 393.193,2387.52 393.193,2527.81C393.193,2623.22 375.031,2663.51 357.468,2702.47C339.964,2741.28 321.868,2781.42 321.868,2886.8C321.868,3024.52 449.097,3219.54 524.939,3323.53C563.018,3375.74 625.901,3408.12 694.976,3411.63C650.301,3378.58 611.301,3329.87 581.564,3289.09C512.931,3194.98 371.21,2972.81 371.21,2886.8C371.21,2774.22 389.902,2719.05 407.985,2665.7C424.277,2617.63 439.66,2572.23 439.66,2484.03C439.66,2295.85 360.677,2241.59 297.214,2198C254.947,2168.96 215.027,2141.54 215.027,2083.5C215.027,1975.95 271.343,1921.71 330.968,1864.29C389.772,1807.66 450.581,1749.1 465.81,1628.69C484.601,1480.16 446.572,1426.11 413.018,1378.43C392.86,1349.78 373.822,1322.72 371.247,1281.38C362.414,1139.43 487.047,950.718 581.564,821.109C597.572,799.164 617.243,780.189 639.572,764.689C593.068,778.268 552.501,805.672 524.939,843.468C449.097,947.464 321.868,1142.49 321.868,1280.2C321.868,1385.58 339.964,1425.71 357.468,1464.53C375.031,1503.49 393.193,1543.78 393.193,1639.19C393.193,1779.48 324.81,1844.45 264.477,1901.77ZM1194.47,3311.6C1192.3,3304.35 1240.63,3476.59 1240.63,3525.84C1240.63,3559.32 1235.21,3592.76 1217.55,3619.3C1199.49,3646.44 1171.23,3663.54 1133.52,3670.15C1117.73,3672.92 1102.08,3674.32 1087.02,3674.32C1030.51,3674.32 979.622,3654.38 943.714,3618.17C916.934,3591.16 901.093,3557.21 901.347,3527.35C901.576,3500.27 901.572,3491.27 901.547,3488.28L901.347,3488.28C901.347,3467.11 881.355,3449.89 856.784,3449.89L707.539,3449.89C621.497,3449.89 541.772,3411.01 494.281,3345.89C398.318,3214.3 283.927,3027.84 283.927,2886.8C283.927,2773.27 303.727,2729.35 322.877,2686.87C339.527,2649.95 355.252,2615.07 355.252,2527.81C355.252,2403.81 298.464,2349.86 238.343,2292.74C183.968,2241.09 127.743,2187.67 127.743,2083.5C127.743,1979.33 183.968,1925.91 238.343,1874.26C298.464,1817.14 355.252,1763.19 355.252,1639.19C355.252,1551.93 339.527,1517.06 322.877,1480.13C303.727,1437.65 283.927,1393.73 283.927,1280.2C283.927,1139.16 398.318,952.701 494.281,821.109C541.768,755.989 621.489,717.11 707.539,717.11L856.784,717.11C881.355,717.11 901.347,699.893 901.347,678.722L901.547,678.722C901.572,675.73 901.576,666.726 901.347,639.66C901.093,609.789 916.934,575.831 943.722,548.818C979.622,512.618 1030.51,492.681 1087.01,492.681L1087.02,492.681C1102.08,492.681 1117.73,494.081 1133.52,496.847C1171.23,503.456 1199.5,520.564 1217.55,547.706C1235.21,574.247 1240.84,607.676 1240.63,641.164C1240.6,646.461 1237.47,685.396 1236.44,692.439C1233.94,709.547 1230.68,725.643 1227.61,739.639C1226.6,744.24 1224.83,752.07 1224,755.689C1220.26,771.955 1214.93,789.497 1208.73,809.318C1207.87,812.057 1204.16,823.853 1202.98,827.659C1197.57,844.964 1191.71,864.047 1185.84,885.351C1184.53,890.115 1181.79,900.405 1180.91,903.797C1176.39,921.272 1171.94,940.172 1167.75,960.68C1167.02,964.221 1165.14,973.754 1164.25,978.497C1157.29,1015.55 1151.29,1057.63 1147.27,1105.83C1147.06,1108.33 1146.24,1118.57 1145.93,1122.91C1144.71,1140.07 1143.75,1158 1143.07,1176.69C1142.94,1180.18 1142.64,1189.63 1142.53,1193.71C1142.08,1210.86 1141.88,1228.65 1141.95,1247.11C1141.98,1253.06 1142.01,1257.96 1142.09,1264.38C1142.32,1281.66 1142.79,1299.54 1143.51,1317.99C1143.66,1321.84 1144.1,1331.88 1144.26,1335.25C1145.3,1357.36 1146.7,1380.28 1148.53,1404.11C1148.59,1404.88 1148.69,1406.17 1148.75,1407.01C1150.18,1425.43 1151.86,1444.39 1153.8,1463.87C1154.01,1466.05 1155.21,1477.83 1155.47,1480.29C1156.55,1490.54 1157.68,1500.9 1158.9,1511.44L1159.36,1515.43L1158.17,1519.27C1150.35,1544.37 1143.26,1569.2 1136.78,1593.72C1135.52,1598.45 1129.36,1622.66 1128.88,1624.61C1126.73,1633.33 1124.64,1642.01 1122.65,1650.62C1121.37,1656.17 1116.18,1679.62 1114.13,1689.47C1078.91,1857.97 1072.55,2001.83 1072.55,2083.5C1072.55,2170.13 1079.73,2326.75 1120.88,2508.52C1121.54,2511.42 1133.55,2560.96 1134.73,2565.5C1136.58,2572.6 1138.48,2579.73 1140.43,2586.89C1140.82,2588.33 1156.34,2641.76 1156.77,2643.14C1157.25,2644.67 1157.69,2646.2 1158.17,2647.73L1159.36,2651.57L1158.9,2655.56C1157.68,2666.1 1156.55,2676.46 1155.47,2686.71C1155,2691.16 1154.36,2697.47 1153.8,2703.13C1151.86,2722.61 1150.18,2741.57 1148.75,2759.99C1148.32,2765.6 1147.89,2771.38 1147.56,2776.06C1146.2,2795.2 1145.11,2813.74 1144.26,2831.75C1144.07,2835.76 1143.65,2845.52 1143.51,2849.01C1142.79,2867.46 1142.32,2885.34 1142.09,2902.62C1141.99,2910.44 1141.97,2915.01 1141.95,2919.88C1141.88,2938.35 1142.08,2956.14 1142.53,2973.29C1142.7,2979.96 1142.87,2984.75 1143.07,2990.31C1143.75,3009 1144.71,3026.93 1145.93,3044.08C1146.53,3052.4 1146.65,3053.72 1147.27,3061.16C1148.86,3080.25 1150.76,3098.38 1152.91,3115.62C1154.28,3126.53 1154.49,3127.87 1155.2,3132.94C1157.93,3152.64 1160.99,3171.13 1164.25,3188.51C1165.89,3197.23 1166.47,3200.06 1167.75,3206.32" style="fill:white;stroke:white;stroke-width:99.64px;"/>
                    </g>
                    <g transform="matrix(1,-4.93038e-32,4.93038e-32,1,952.561,4.56)">
                        <path d="M909.783,514.487L922.045,514.487C922.208,514.487 922.361,514.444 922.52,514.422C920.624,513.581 919.136,512.722 917.871,511.741C917.28,511.841 916.677,511.904 916.058,511.904C910.073,511.904 905.222,507.053 905.222,501.068C905.222,498.263 906.297,495.716 908.045,493.791C907.761,492.123 907.643,490.447 907.65,488.639C907.26,488.933 906.911,489.284 906.665,489.725L901.242,499.452C900.64,500.532 900.64,501.848 901.242,502.928L906.665,512.656C907.296,513.785 908.488,514.487 909.783,514.487Z" style="fill:white;fill-rule:nonzero;stroke:white;stroke-width:23.91px;"/>
                    </g>
                    <g transform="matrix(1,-4.93038e-32,4.93038e-32,1,952.561,4.56)">
                        <path d="M922.414,490.031L929.168,502.145C929.714,503.124 929.851,504.255 929.603,505.317L930.937,502.925C931.545,501.835 931.545,500.507 930.937,499.417L925.463,489.599C924.826,488.458 923.623,487.751 922.316,487.751L918.532,487.751C920.143,487.751 921.629,488.623 922.414,490.031Z" style="fill:white;fill-rule:nonzero;stroke:white;stroke-width:23.91px;"/>
                    </g>
                    <g transform="matrix(1,-4.93038e-32,4.93038e-32,1,952.561,4.56)">
                        <path d="M924.857,501.068C924.857,496.209 920.917,492.269 916.058,492.269C911.198,492.269 907.258,496.209 907.258,501.068C907.258,505.928 911.198,509.868 916.058,509.868C920.917,509.868 924.857,505.928 924.857,501.068Z" style="fill:white;fill-rule:nonzero;stroke:white;stroke-width:23.91px;"/>
                    </g>
                    <g transform="matrix(1,-4.93038e-32,4.93038e-32,1,952.561,4.56)">
                        <path d="M876.018,303.571C870.033,303.571 865.182,298.72 865.182,292.735C865.182,289.93 866.257,287.382 868.006,285.458C867.722,283.79 867.603,282.113 867.61,280.306C867.221,280.6 866.872,280.951 866.626,281.391L861.202,291.119C860.6,292.199 860.6,293.514 861.202,294.595L866.626,304.322C867.256,305.452 868.449,306.153 869.743,306.153L882.005,306.153C882.168,306.153 882.322,306.11 882.48,306.089C880.585,305.248 879.096,304.389 877.832,303.407C877.241,303.507 876.637,303.571 876.018,303.571Z" style="fill:white;fill-rule:nonzero;stroke:white;stroke-width:23.91px;"/>
                    </g>
                    <g transform="matrix(1,-4.93038e-32,4.93038e-32,1,952.561,4.56)">
                        <path d="M885.423,281.265C884.787,280.124 883.583,279.417 882.277,279.417L878.492,279.417C880.104,279.417 881.589,280.29 882.374,281.698L889.129,293.812C889.674,294.79 889.811,295.921 889.564,296.984L890.897,294.592C891.505,293.502 891.505,292.174 890.897,291.084L885.423,281.265Z" style="fill:white;fill-rule:nonzero;stroke:white;stroke-width:23.91px;"/>
                    </g>
                    <g transform="matrix(1,-4.93038e-32,4.93038e-32,1,952.561,4.56)">
                        <path d="M884.817,292.735C884.817,287.876 880.877,283.936 876.018,283.936C871.158,283.936 867.219,287.876 867.219,292.735C867.219,297.595 871.158,301.534 876.018,301.534C880.877,301.534 884.817,297.595 884.817,292.735Z" style="fill:white;fill-rule:nonzero;stroke:white;stroke-width:23.91px;"/>
                    </g>
                    <g transform="matrix(1,-4.93038e-32,4.93038e-32,1,952.561,4.56)">
                        <path d="M876.018,710.687C870.033,710.687 865.182,705.835 865.182,699.851C865.182,697.046 866.257,694.498 868.006,692.574C867.722,690.906 867.603,689.229 867.61,687.421C867.221,687.715 866.872,688.066 866.626,688.507L861.202,698.234C860.6,699.315 860.6,700.63 861.202,701.71L866.626,711.437C867.256,712.568 868.449,713.268 869.743,713.268L882.005,713.268C882.168,713.268 882.322,713.226 882.48,713.205C880.585,712.364 879.096,711.504 877.832,710.523C877.241,710.623 876.637,710.687 876.018,710.687Z" style="fill:white;fill-rule:nonzero;stroke:white;stroke-width:23.91px;"/>
                    </g>
                    <g transform="matrix(1,-4.93038e-32,4.93038e-32,1,952.561,4.56)">
                        <path d="M882.277,686.533L878.492,686.533C880.104,686.533 881.589,687.406 882.374,688.813L889.129,700.928C889.674,701.906 889.811,703.037 889.564,704.1L890.897,701.708C891.505,700.617 891.505,699.29 890.897,698.199L885.423,688.381C884.787,687.24 883.583,686.533 882.277,686.533Z" style="fill:white;fill-rule:nonzero;stroke:white;stroke-width:23.91px;"/>
                    </g>
                    <g transform="matrix(1,-4.93038e-32,4.93038e-32,1,952.561,4.56)">
                        <path d="M884.817,699.851C884.817,694.991 880.877,691.052 876.018,691.052C871.158,691.052 867.219,694.991 867.219,699.851C867.219,704.711 871.158,708.65 876.018,708.65C880.877,708.65 884.817,704.711 884.817,699.851Z" style="fill:white;fill-rule:nonzero;stroke:white;stroke-width:23.91px;"/>
                    </g>
                    <g transform="matrix(-924.042,2.53525e-13,-2.49479e-13,-909.297,1875.26,60.569)">
                        <g>
                            <path d="M0.806,-0.22L0.815,-0.211C0.791,-0.187 0.763,-0.167 0.732,-0.149C0.67,-0.115 0.605,-0.098 0.538,-0.098C0.47,-0.098 0.405,-0.115 0.343,-0.149C0.281,-0.184 0.233,-0.232 0.198,-0.293C0.164,-0.355 0.147,-0.42 0.147,-0.488C0.147,-0.556 0.164,-0.622 0.199,-0.684C0.234,-0.747 0.283,-0.795 0.345,-0.828C0.407,-0.862 0.472,-0.879 0.538,-0.879C0.603,-0.879 0.667,-0.862 0.729,-0.829C0.761,-0.811 0.79,-0.79 0.814,-0.765L0.806,-0.756C0.782,-0.781 0.754,-0.801 0.723,-0.818C0.663,-0.85 0.601,-0.867 0.538,-0.867C0.473,-0.867 0.411,-0.85 0.351,-0.818C0.291,-0.785 0.244,-0.739 0.21,-0.678C0.176,-0.617 0.159,-0.554 0.159,-0.488C0.159,-0.422 0.176,-0.36 0.209,-0.3C0.242,-0.24 0.289,-0.193 0.349,-0.16C0.409,-0.126 0.472,-0.11 0.538,-0.11C0.603,-0.11 0.666,-0.126 0.726,-0.16C0.756,-0.176 0.783,-0.196 0.806,-0.22ZM0.867,-0.16L0.884,-0.142C0.854,-0.112 0.819,-0.086 0.781,-0.064C0.703,-0.021 0.622,-0 0.537,-0C0.453,-0 0.372,-0.021 0.294,-0.064C0.217,-0.107 0.157,-0.168 0.114,-0.245C0.071,-0.322 0.049,-0.403 0.049,-0.488C0.049,-0.573 0.071,-0.655 0.115,-0.733C0.158,-0.811 0.219,-0.872 0.297,-0.914C0.375,-0.956 0.455,-0.977 0.537,-0.977C0.619,-0.977 0.699,-0.956 0.777,-0.914C0.817,-0.892 0.853,-0.866 0.884,-0.834L0.867,-0.817C0.837,-0.847 0.803,-0.872 0.765,-0.893C0.691,-0.932 0.615,-0.952 0.537,-0.952C0.459,-0.952 0.383,-0.932 0.309,-0.892C0.235,-0.852 0.177,-0.795 0.136,-0.721C0.094,-0.647 0.074,-0.569 0.074,-0.488C0.074,-0.407 0.094,-0.33 0.135,-0.257C0.176,-0.184 0.233,-0.127 0.307,-0.086C0.38,-0.045 0.457,-0.024 0.537,-0.024C0.618,-0.024 0.695,-0.045 0.769,-0.086C0.805,-0.106 0.838,-0.131 0.867,-0.16ZM0.754,-0.705L0.746,-0.696C0.727,-0.715 0.705,-0.731 0.682,-0.744C0.635,-0.769 0.587,-0.781 0.538,-0.781C0.488,-0.781 0.44,-0.769 0.393,-0.743C0.347,-0.718 0.31,-0.682 0.284,-0.635C0.258,-0.588 0.245,-0.539 0.245,-0.488C0.245,-0.437 0.257,-0.388 0.283,-0.342C0.309,-0.296 0.345,-0.26 0.392,-0.234C0.438,-0.208 0.487,-0.195 0.538,-0.195C0.588,-0.195 0.637,-0.208 0.684,-0.234C0.707,-0.247 0.728,-0.262 0.746,-0.28L0.754,-0.272C0.735,-0.253 0.714,-0.237 0.689,-0.224C0.641,-0.197 0.59,-0.183 0.538,-0.183C0.485,-0.183 0.434,-0.197 0.386,-0.223C0.337,-0.25 0.3,-0.288 0.273,-0.336C0.246,-0.385 0.232,-0.435 0.232,-0.488C0.232,-0.541 0.246,-0.592 0.273,-0.641C0.301,-0.69 0.339,-0.728 0.387,-0.754C0.436,-0.78 0.486,-0.793 0.538,-0.793C0.589,-0.793 0.639,-0.78 0.688,-0.754C0.713,-0.741 0.735,-0.724 0.754,-0.705Z" style="fill:white;fill-rule:nonzero;stroke:white;stroke-width:0.03px;"/>
                        </g>
                    </g>
                    <g transform="matrix(-0.24,6.58474e-17,-6.58474e-17,-0.24,1950.92,1002.92)">
                        <circle cx="1078" cy="630" r="123" style="fill:white;stroke:white;stroke-width:99.64px;"/>
                    </g>
                    <g transform="matrix(-0.24,6.58474e-17,-6.58474e-17,-0.24,1948.28,310.519)">
                        <circle cx="1078" cy="630" r="123" style="fill:white;stroke:white;stroke-width:99.64px;"/>
                    </g>
                </g>
            </g>
        </g>
    </g>
</svg>
