<?xml version="1.0" encoding="UTF-8" standalone="no"?>
<!DOCTYPE svg PUBLIC "-//W3C//DTD SVG 1.1//EN" "http://www.w3.org/Graphics/SVG/1.1/DTD/svg11.dtd">
<svg width="100%" height="100%" viewBox="0 0 1250 200" version="1.1" xmlns="http://www.w3.org/2000/svg" xmlns:xlink="http://www.w3.org/1999/xlink" xml:space="preserve" xmlns:serif="http://www.serif.com/" style="fill-rule:evenodd;clip-rule:evenodd;stroke-linejoin:round;stroke-miterlimit:2;">
    <g transform="matrix(0.680309,0,0,0.680309,-3.41645,56.6865)">
        <path d="M225.085,138.65L227.539,140.968C220.813,147.694 213.133,153.465 204.499,158.282C187.139,167.916 169.007,172.733 150.102,172.733C131.197,172.733 113.088,167.939 95.774,158.35C78.459,148.762 65.008,135.333 55.419,118.064C45.83,100.795 41.036,82.708 41.036,63.804C41.036,44.717 45.921,26.449 55.692,8.998C65.462,-8.453 79.027,-21.881 96.387,-31.288C113.747,-40.695 131.652,-45.399 150.102,-45.399C168.371,-45.399 186.185,-40.718 203.545,-31.357C212.543,-26.539 220.495,-20.632 227.403,-13.633L225.085,-11.179C218.359,-17.996 210.634,-23.722 201.909,-28.357C185.094,-37.446 167.825,-41.99 150.102,-41.99C132.197,-41.99 114.838,-37.446 98.023,-28.357C81.209,-19.268 68.075,-6.249 58.623,10.702C49.171,27.653 44.444,45.353 44.444,63.804C44.444,82.072 49.08,99.591 58.35,116.36C67.621,133.129 80.663,146.149 97.478,155.419C114.292,164.69 131.834,169.325 150.102,169.325C168.371,169.325 185.912,164.69 202.727,155.419C211.179,150.784 218.632,145.194 225.085,138.65ZM241.99,155.419L246.898,160.327C238.446,168.78 228.812,176.005 217.996,182.004C196.364,194.001 173.688,200 149.966,200C126.426,200 103.84,194.001 82.209,182.004C60.577,170.007 43.763,153.215 31.766,131.629C19.768,110.043 13.77,87.435 13.77,63.804C13.77,39.991 19.859,17.155 32.038,-4.703C44.217,-26.562 61.168,-43.354 82.89,-55.078C104.613,-66.803 126.971,-72.665 149.966,-72.665C172.87,-72.665 195.183,-66.803 216.905,-55.078C228.085,-49.08 238.037,-41.672 246.762,-32.856L241.99,-28.085C233.72,-36.446 224.267,-43.49 213.633,-49.216C193.002,-60.304 171.779,-65.849 149.966,-65.849C128.153,-65.849 106.93,-60.282 86.299,-49.148C65.667,-38.014 49.557,-22.063 37.969,-1.295C26.38,19.473 20.586,41.172 20.586,63.804C20.586,86.253 26.289,107.726 37.696,128.221C49.102,148.716 65.076,164.667 85.617,176.074C106.158,187.48 127.607,193.183 149.966,193.183C172.506,193.183 194.047,187.457 214.588,176.005C224.858,170.279 233.992,163.417 241.99,155.419ZM210.634,3.272L208.18,5.726C202.908,0.454 196.955,-3.999 190.32,-7.635C177.232,-14.633 163.826,-18.132 150.102,-18.132C136.287,-18.132 122.858,-14.61 109.816,-7.566C96.773,-0.523 86.594,9.543 79.277,22.631C71.961,35.719 68.303,49.398 68.303,63.667C68.303,77.937 71.893,91.547 79.073,104.499C86.253,117.451 96.342,127.516 109.339,134.697C122.336,141.877 135.924,145.467 150.102,145.467C164.281,145.467 177.869,141.877 190.866,134.697C197.41,131.061 203.181,126.744 208.18,121.745L210.498,124.063C205.317,129.334 199.318,133.833 192.502,137.56C178.959,145.103 164.826,148.875 150.102,148.875C135.378,148.875 121.245,145.126 107.703,137.628C94.16,130.13 83.64,119.632 76.142,106.135C68.643,92.638 64.894,78.482 64.894,63.667C64.894,48.853 68.712,34.606 76.346,20.927C83.981,7.248 94.569,-3.249 108.112,-10.566C121.654,-17.882 135.651,-21.541 150.102,-21.541C164.372,-21.541 178.323,-17.905 191.956,-10.634C198.955,-6.817 205.181,-2.181 210.634,3.272Z" style="fill:white;fill-rule:nonzero;stroke:white;stroke-width:0.98px;"/>
        <path d="M397.001,-72.665L397.137,-72.529L397.955,-72.665L398.637,-72.393L399.318,-72.665L399.455,-72.665L399.591,-72.393L395.774,-71.166L395.637,-71.302L395.637,-71.438L396.864,-71.984L396.864,-72.12L396.728,-72.12L392.911,-71.166L392.911,-71.302L393.183,-71.847L393.047,-71.847L390.729,-71.302L390.729,-71.438L390.729,-71.302L390.32,-71.302L390.32,-71.575L390.593,-71.575L390.593,-71.711L390.457,-71.711L388.003,-71.302L387.321,-71.438L387.185,-71.438L386.503,-71.302L386.367,-71.438L386.23,-71.438L385.958,-71.166L385.549,-71.438L385.276,-71.166L384.731,-71.302C383.367,-71.211 382.686,-71.12 382.686,-71.029L382.413,-71.166C382.413,-71.257 383.595,-71.484 385.958,-71.847L385.958,-71.711L386.094,-71.711C387.639,-72.075 391.275,-72.393 397.001,-72.665ZM404.908,-72.665L405.044,-72.665L405.862,-72.393L406.544,-72.665C412.997,-72.393 416.905,-72.075 418.269,-71.711L418.405,-71.847C420.768,-71.484 421.95,-71.257 421.95,-71.166L421.813,-71.166L421.813,-71.029L419.496,-71.302L419.359,-71.166L419.223,-71.166L418.95,-71.438L418.541,-71.166L418.132,-71.438L417.996,-71.302L417.178,-71.438L416.36,-71.302L413.906,-71.711L413.77,-71.711L413.77,-71.575L414.042,-71.575L414.042,-71.302L413.77,-71.302L413.633,-71.438L413.633,-71.302C412.906,-71.575 412.088,-71.756 411.179,-71.847L411.043,-71.847L411.043,-71.711C411.406,-71.62 411.588,-71.484 411.588,-71.302L411.588,-71.166L407.635,-72.12L407.498,-72.12L407.498,-71.984C407.862,-71.984 408.316,-71.756 408.862,-71.302L408.725,-71.166L408.589,-71.166C406.862,-71.711 405.635,-72.165 404.908,-72.529L404.908,-72.665ZM400.818,-72.529L400.818,-72.393C400.091,-71.575 399.455,-71.166 398.909,-71.166L398.637,-71.302L398.637,-71.438C398.637,-71.802 399.364,-72.165 400.818,-72.529ZM403.545,-72.529C404.363,-72.529 405.09,-72.165 405.726,-71.438L405.453,-71.166C404.817,-71.257 404.181,-71.666 403.545,-72.393L403.545,-72.529ZM402.045,-72.393L402.454,-72.393C402.727,-72.302 402.863,-72.12 402.863,-71.847C402.863,-71.484 402.681,-71.302 402.318,-71.302L402.318,-71.166C401.863,-71.347 401.636,-71.529 401.636,-71.711L401.636,-71.984L402.045,-72.393ZM379.414,-69.257L379.414,-69.121C377.505,-68.03 374.778,-66.985 371.234,-65.985L370.552,-65.849C371.279,-66.758 374.233,-67.894 379.414,-69.257ZM383.231,-69.257L383.367,-69.121L383.367,-68.984C380.005,-66.985 377.46,-65.94 375.733,-65.849L375.733,-65.985C377.732,-67.621 380.186,-68.666 383.095,-69.121L383.231,-69.257ZM421.132,-69.257C425.04,-68.257 427.539,-67.167 428.63,-65.985L428.63,-65.849C427.267,-65.849 424.722,-66.894 420.995,-68.984L420.995,-69.121L421.132,-69.257ZM424.949,-69.257C430.039,-67.985 432.993,-66.848 433.81,-65.849L433.674,-65.849C432.674,-65.849 429.766,-66.894 424.949,-68.984L424.949,-69.257ZM428.221,-69.257C433.401,-67.985 436.719,-66.848 438.173,-65.849L438.173,-65.712C436.901,-65.985 433.538,-67.076 428.085,-68.984L428.221,-69.121L428.221,-69.257ZM376.142,-69.121L376.278,-69.121L376.278,-68.984C371.825,-67.348 368.507,-66.303 366.326,-65.849C367.326,-66.758 370.598,-67.848 376.142,-69.121ZM387.73,-69.121L387.73,-68.848C385.185,-66.848 383.231,-65.849 381.868,-65.849L381.595,-65.985L381.595,-66.258C381.595,-66.803 383.277,-67.712 386.639,-68.984L387.73,-69.121ZM392.093,-69.121L392.365,-69.121L392.502,-68.848L392.502,-68.712C391.138,-66.803 389.73,-65.849 388.275,-65.849C387.912,-65.94 387.73,-66.03 387.73,-66.121L387.73,-66.53C389.275,-68.257 390.729,-69.121 392.093,-69.121ZM397.137,-69.121C397.591,-69.03 397.819,-68.757 397.819,-68.303C397.273,-66.667 396.41,-65.849 395.228,-65.849L395.092,-65.849C394.728,-65.849 394.456,-66.076 394.274,-66.53C394.274,-67.439 395.047,-68.257 396.592,-68.984L397.137,-69.121ZM402.181,-69.121C402.999,-69.121 403.545,-68.484 403.817,-67.212C403.454,-66.303 402.954,-65.849 402.318,-65.849C401.227,-66.03 400.682,-66.53 400.682,-67.348C400.863,-68.53 401.363,-69.121 402.181,-69.121ZM407.362,-69.121C408.453,-69.121 409.362,-68.348 410.089,-66.803L410.089,-66.667C410.089,-66.121 409.771,-65.849 409.134,-65.849C407.953,-65.849 407.089,-66.667 406.544,-68.303C406.544,-68.757 406.817,-69.03 407.362,-69.121ZM412.27,-69.121C413.542,-69.121 414.997,-68.257 416.633,-66.53L416.633,-66.394C416.542,-66.03 416.36,-65.849 416.087,-65.849C414.815,-65.849 413.406,-66.758 411.861,-68.575L411.861,-68.848C411.861,-69.03 411.997,-69.121 412.27,-69.121ZM416.633,-69.121L416.769,-69.121C418.132,-69.121 419.995,-68.348 422.359,-66.803L422.904,-66.121L422.904,-65.985L422.495,-65.849C419.95,-66.485 417.996,-67.53 416.633,-68.984L416.633,-69.121ZM373.142,-68.984L373.279,-68.984L373.279,-68.848L362.918,-65.849C363.099,-66.121 364.599,-66.712 367.416,-67.621L367.416,-67.757L367.144,-67.757L361.009,-65.985C361.009,-66.258 362.463,-66.848 365.372,-67.757C367.371,-68.303 369.189,-68.666 370.825,-68.848L370.552,-68.575L370.825,-68.575L373.142,-68.984ZM431.084,-68.984L431.357,-68.984L433.81,-68.575L433.674,-68.712L433.674,-68.848L433.947,-68.848C438.219,-68.03 441.354,-67.121 443.354,-66.121L443.354,-65.985L437.082,-67.757L436.946,-67.757L436.946,-67.621L441.445,-65.985L441.445,-65.849L441.172,-65.849L431.084,-68.848L431.084,-68.984ZM369.052,-68.303L369.052,-68.166L369.325,-68.166L370.552,-68.439L370.552,-68.575L370.279,-68.575L369.052,-68.303ZM434.356,-68.439L434.356,-68.303L434.901,-68.303L434.356,-68.439ZM435.037,-68.303L435.037,-68.166L435.992,-67.894L436.128,-67.894L436.128,-68.03L435.174,-68.303L435.037,-68.303ZM368.234,-68.03L368.234,-67.894L368.643,-67.894L368.916,-68.03L368.916,-68.166L368.643,-68.166L368.234,-68.03ZM436.128,-67.894L436.128,-67.757L436.81,-67.757L436.264,-67.894L436.128,-67.894ZM350.511,-61.895C343.786,-58.259 340.15,-56.442 339.605,-56.442L339.605,-56.578C341.695,-58.123 345.24,-59.895 350.239,-61.895L350.511,-61.895ZM353.238,-61.895L353.374,-61.759L353.374,-61.622C347.466,-58.169 344.013,-56.442 343.013,-56.442L343.013,-56.578C344.467,-58.032 347.512,-59.668 352.147,-61.486L353.238,-61.895ZM357.601,-61.895L357.737,-61.759L357.737,-61.622C353.738,-58.805 350.648,-57.078 348.466,-56.442L348.194,-56.714C349.466,-58.169 351.693,-59.577 354.874,-60.941C356.237,-61.577 357.146,-61.895 357.601,-61.895ZM362.918,-61.895L363.327,-61.759L363.327,-61.622C361.781,-59.895 359.691,-58.396 357.055,-57.123C356.055,-56.76 355.283,-56.578 354.738,-56.578L354.601,-56.714C354.874,-57.532 356.01,-58.532 358.01,-59.714C360.645,-61.168 362.281,-61.895 362.918,-61.895ZM369.461,-61.895C369.734,-61.804 369.916,-61.622 370.007,-61.35C369.098,-60.077 367.825,-58.896 366.19,-57.805C364.735,-56.987 363.599,-56.578 362.781,-56.578C362.509,-56.578 362.372,-56.714 362.372,-56.987L362.236,-56.987C362.781,-58.623 364.872,-60.168 368.507,-61.622C369.143,-61.713 369.461,-61.804 369.461,-61.895ZM376.823,-61.895C377.369,-61.713 377.641,-61.486 377.641,-61.213C377.641,-60.214 376.278,-58.85 373.551,-57.123C372.824,-56.76 372.234,-56.578 371.779,-56.578C371.143,-56.578 370.825,-56.805 370.825,-57.26C370.825,-58.532 372.461,-59.941 375.733,-61.486L376.823,-61.895ZM384.867,-61.895C385.503,-61.895 385.867,-61.486 385.958,-60.668C385.958,-59.305 384.731,-57.987 382.277,-56.714L381.186,-56.578C380.641,-56.578 380.277,-56.987 380.095,-57.805C380.095,-58.896 381.277,-60.123 383.64,-61.486L384.867,-61.895ZM393.456,-61.895C394.365,-61.895 394.91,-61.213 395.092,-59.85C394.456,-57.669 393.365,-56.578 391.82,-56.578L391.684,-56.578C390.502,-56.76 389.911,-57.305 389.911,-58.214C390.184,-60.123 391.366,-61.35 393.456,-61.895ZM410.907,-61.895C411.997,-61.895 413.133,-61.077 414.315,-59.441L414.588,-58.35C414.315,-57.169 413.679,-56.578 412.679,-56.578C410.952,-56.578 409.816,-57.76 409.271,-60.123C409.271,-60.85 409.816,-61.441 410.907,-61.895ZM419.496,-61.895C420.859,-61.895 422.404,-60.759 424.131,-58.487L424.267,-57.669C424.267,-57.032 423.813,-56.669 422.904,-56.578C421.541,-56.578 420.177,-57.578 418.814,-59.577C418.541,-59.941 418.405,-60.304 418.405,-60.668C418.496,-61.486 418.859,-61.895 419.496,-61.895ZM427.539,-61.895C428.993,-61.895 430.902,-60.668 433.265,-58.214L433.674,-57.26C433.492,-56.805 433.129,-56.578 432.584,-56.578C431.038,-56.578 429.221,-57.85 427.13,-60.395L426.858,-61.213L426.858,-61.35C426.858,-61.622 427.085,-61.759 427.539,-61.759L427.539,-61.895ZM434.901,-61.895C437.991,-60.986 440.354,-59.532 441.99,-57.532L442.127,-56.987L442.127,-56.851C442.036,-56.669 441.809,-56.578 441.445,-56.578C439.9,-56.578 437.628,-58.032 434.628,-60.941C434.628,-61.213 434.538,-61.35 434.356,-61.35C434.356,-61.622 434.538,-61.759 434.901,-61.759L434.901,-61.895ZM441.445,-61.895C444.263,-61.077 446.944,-59.623 449.489,-57.532L449.761,-56.987L449.761,-56.714L449.625,-56.578L449.352,-56.578C447.353,-56.851 444.672,-58.441 441.309,-61.35L441.172,-61.35L441.172,-61.759L441.445,-61.895ZM446.898,-61.895C448.807,-61.531 451.67,-60.123 455.487,-57.669L456.169,-56.714L456.033,-56.442C453.124,-57.351 450.034,-59.077 446.762,-61.622L446.898,-61.895ZM451.125,-61.895C452.034,-61.895 455.033,-60.486 460.123,-57.669C461.032,-57.032 461.486,-56.623 461.486,-56.442L461.35,-56.442C458.441,-57.441 454.988,-59.168 450.988,-61.622L450.988,-61.759L451.125,-61.895ZM402.454,-61.759C403.545,-61.759 404.317,-60.85 404.772,-59.032C404.408,-57.396 403.545,-56.578 402.181,-56.578C400.727,-56.578 399.909,-57.441 399.727,-59.168C400.091,-60.895 400.954,-61.759 402.318,-61.759L402.454,-61.759ZM454.26,-61.759L454.397,-61.759C457.76,-60.577 461.213,-58.896 464.758,-56.714L464.758,-56.578L464.485,-56.578C463.395,-56.942 459.986,-58.623 454.26,-61.622L454.26,-61.759ZM346.558,-60.804C345.921,-60.35 343.331,-59.077 338.787,-56.987C340.15,-57.987 342.74,-59.259 346.558,-60.804ZM457.805,-60.804L457.941,-60.804C462.304,-58.896 464.849,-57.623 465.576,-56.987L457.805,-60.804ZM328.016,-50.852L328.016,-50.716C325.562,-48.807 322.2,-46.353 317.928,-43.354L317.928,-43.49C321.018,-46.126 324.381,-48.58 328.016,-50.852ZM330.198,-50.852L330.334,-50.716L330.334,-50.579C325.88,-46.853 322.699,-44.535 320.791,-43.626L320.382,-43.626L320.382,-43.763C323.745,-47.035 326.926,-49.352 329.925,-50.716L330.061,-50.852L330.198,-50.852ZM334.424,-50.852L334.56,-50.716L334.56,-50.443C330.834,-46.717 327.789,-44.444 325.426,-43.626L325.153,-43.626L325.017,-43.899C325.017,-44.263 326.335,-45.581 328.971,-47.853C331.788,-49.671 333.606,-50.67 334.424,-50.852ZM470.075,-50.852C471.711,-50.489 474.483,-48.625 478.391,-45.262L479.346,-43.899L479.209,-43.626C477.573,-43.899 474.619,-45.99 470.348,-49.898L469.802,-50.579L469.802,-50.716L470.075,-50.716L470.075,-50.852ZM474.029,-50.852L474.165,-50.852C476.619,-49.852 479.755,-47.626 483.572,-44.172L483.981,-43.763L483.981,-43.49C482.345,-44.126 479.118,-46.399 474.301,-50.307L474.029,-50.716L474.029,-50.852ZM476.346,-50.852C479.709,-48.853 483.072,-46.399 486.435,-43.49L486.435,-43.354C481.345,-46.989 477.982,-49.443 476.346,-50.716L476.346,-50.852ZM340.559,-50.716L340.559,-50.443C339.559,-48.625 337.651,-46.808 334.833,-44.99C333.651,-44.172 332.697,-43.717 331.97,-43.626C331.788,-43.626 331.697,-43.763 331.697,-44.035L331.561,-44.035C332.47,-46.035 334.878,-48.125 338.787,-50.307C339.332,-50.579 339.923,-50.716 340.559,-50.716ZM347.921,-50.716L348.33,-50.307L348.33,-50.17C348.33,-49.08 346.603,-47.217 343.149,-44.581L340.559,-43.626C340.286,-43.626 340.059,-43.854 339.877,-44.308C339.877,-45.49 341.559,-47.262 344.922,-49.625C346.103,-50.352 347.103,-50.716 347.921,-50.716ZM356.919,-50.716C357.192,-50.716 357.419,-50.534 357.601,-50.17C357.601,-47.989 355.646,-45.899 351.738,-43.899L350.648,-43.763C350.284,-43.763 349.966,-43.99 349.693,-44.444C349.693,-46.08 351.42,-47.989 354.874,-50.17C355.783,-50.534 356.464,-50.716 356.919,-50.716ZM367.007,-50.716C367.916,-50.534 368.371,-50.08 368.371,-49.352C368.371,-47.898 367.235,-46.308 364.963,-44.581C364.054,-44.035 363.19,-43.763 362.372,-43.763C361.372,-43.945 360.873,-44.354 360.873,-44.99C360.873,-46.353 362.054,-47.944 364.417,-49.761C365.326,-50.307 366.19,-50.625 367.007,-50.716ZM378.323,-50.716C379.323,-50.716 379.914,-50.034 380.095,-48.671C380.095,-47.217 379.141,-45.808 377.232,-44.444C376.414,-43.99 375.687,-43.763 375.051,-43.763C373.688,-43.854 373.006,-44.49 373.006,-45.671C373.006,-47.398 374.369,-48.989 377.096,-50.443L378.323,-50.716ZM390.048,-50.716C391.502,-50.716 392.32,-49.807 392.502,-47.989C392.502,-45.808 391.275,-44.399 388.821,-43.763L388.412,-43.763C386.685,-43.945 385.821,-44.808 385.821,-46.353C386.639,-49.262 388.048,-50.716 390.048,-50.716ZM402.181,-50.716C404.363,-50.352 405.453,-49.125 405.453,-47.035C405.181,-44.853 404.09,-43.763 402.181,-43.763C400,-44.126 398.909,-45.126 398.909,-46.762L398.909,-46.898C399.273,-49.443 400.364,-50.716 402.181,-50.716ZM414.451,-50.716C417.178,-49.989 418.541,-48.489 418.541,-46.217C418.269,-44.581 417.451,-43.763 416.087,-43.763C414.088,-43.763 412.679,-44.899 411.861,-47.171L411.861,-47.989C412.134,-49.807 412.997,-50.716 414.451,-50.716ZM426.176,-50.716C427.994,-50.716 429.63,-49.443 431.084,-46.898L431.357,-45.671C431.357,-44.49 430.629,-43.854 429.175,-43.763C427.357,-43.763 425.812,-45.035 424.54,-47.58L424.267,-48.807C424.54,-50.08 425.176,-50.716 426.176,-50.716ZM437.491,-50.716C439.037,-50.716 440.763,-49.534 442.672,-47.171C443.217,-46.353 443.49,-45.626 443.49,-44.99C443.49,-44.263 442.99,-43.854 441.99,-43.763C439.991,-43.763 438.082,-45.217 436.264,-48.125L436.128,-49.352C436.128,-50.261 436.583,-50.716 437.491,-50.716ZM447.853,-50.716C449.398,-50.716 451.488,-49.216 454.124,-46.217C454.488,-45.399 454.669,-44.808 454.669,-44.444C454.488,-43.99 454.17,-43.763 453.715,-43.763C451.625,-43.763 449.398,-45.399 447.035,-48.671L446.762,-50.034C446.762,-50.398 447.126,-50.625 447.853,-50.716ZM456.714,-50.716C459.259,-50.17 461.759,-48.398 464.213,-45.399L464.485,-44.172C464.485,-43.99 464.258,-43.808 463.804,-43.626C461.259,-44.263 458.896,-45.99 456.714,-48.807L456.033,-50.17C456.033,-50.534 456.26,-50.716 456.714,-50.716ZM464.213,-50.716C466.394,-50.261 469.075,-48.444 472.256,-45.262L472.802,-44.035L472.802,-43.899C472.802,-43.808 472.665,-43.717 472.393,-43.626C470.211,-44.172 467.576,-46.035 464.485,-49.216C464.031,-49.761 463.804,-50.17 463.804,-50.443C463.804,-50.625 463.94,-50.716 464.213,-50.716ZM309.611,-36.401L309.884,-36.401C307.067,-33.401 304.067,-30.402 300.886,-27.403L300.886,-27.539C300.886,-28.085 303.795,-31.038 309.611,-36.401ZM494.615,-36.401L494.751,-36.401C499.75,-31.947 502.658,-28.993 503.476,-27.539L503.476,-27.403C497.569,-33.038 494.615,-36.037 494.615,-36.401ZM312.202,-36.264L312.338,-36.264L312.338,-35.992C312.065,-34.992 309.748,-32.447 305.385,-28.357C304.658,-27.903 304.158,-27.676 303.885,-27.676C304.522,-29.675 307.067,-32.447 311.52,-35.992L312.202,-36.264ZM492.025,-36.264L492.161,-36.264C495.433,-34.174 498.205,-31.447 500.477,-28.085L500.477,-27.676C499.114,-27.948 496.524,-30.402 492.706,-35.037L492.025,-35.992L492.025,-36.264ZM317.519,-36.264L317.655,-35.855C316.655,-33.22 314.247,-30.539 310.429,-27.812L309.611,-27.676L309.202,-27.948C309.748,-29.948 311.793,-32.356 315.337,-35.174C316.246,-35.901 316.973,-36.264 317.519,-36.264ZM324.881,-36.264C325.153,-36.174 325.29,-35.946 325.29,-35.583C324.835,-33.401 322.972,-30.993 319.7,-28.357C318.7,-27.903 317.973,-27.676 317.519,-27.676C317.064,-27.857 316.837,-28.085 316.837,-28.357C317.564,-30.72 319.518,-33.083 322.699,-35.446C323.699,-35.992 324.426,-36.264 324.881,-36.264ZM334.151,-36.264C334.788,-36.264 335.151,-35.901 335.242,-35.174C335.242,-33.265 333.515,-30.993 330.061,-28.357C329.152,-27.903 328.425,-27.676 327.88,-27.676C327.335,-27.676 327.017,-28.085 326.926,-28.903C327.289,-31.084 328.88,-33.174 331.697,-35.174C332.788,-35.901 333.606,-36.264 334.151,-36.264ZM345.331,-36.264C346.421,-36.083 346.967,-35.583 346.967,-34.765L346.967,-34.628C346.967,-33.265 346.194,-31.766 344.649,-30.13C343.013,-28.494 341.559,-27.676 340.286,-27.676C339.287,-27.676 338.787,-28.266 338.787,-29.448C338.787,-31.266 340.286,-33.265 343.286,-35.446C344.195,-35.992 344.876,-36.264 345.331,-36.264ZM358.282,-36.264C359.464,-36.264 360.145,-35.492 360.327,-33.947C360.327,-31.856 358.964,-29.948 356.237,-28.221C355.874,-27.948 355.237,-27.766 354.329,-27.676C352.874,-27.857 352.147,-28.584 352.147,-29.857L352.147,-29.993C352.147,-31.175 352.783,-32.493 354.056,-33.947C355.692,-35.492 357.101,-36.264 358.282,-36.264ZM372.324,-36.264C373.779,-36.264 374.642,-35.265 374.915,-33.265C374.915,-31.447 373.87,-29.766 371.779,-28.221C370.961,-27.857 370.189,-27.676 369.461,-27.676C367.916,-27.676 367.007,-28.63 366.735,-30.539C366.735,-32.629 368.144,-34.447 370.961,-35.992L372.324,-36.264ZM387.185,-36.264C388.912,-36.264 390.002,-34.992 390.457,-32.447C389.73,-29.266 388.094,-27.676 385.549,-27.676C383.367,-28.039 382.277,-29.13 382.277,-30.948L382.277,-31.084C382.277,-33.265 383.504,-34.901 385.958,-35.992L387.185,-36.264ZM402.318,-36.264C403.954,-36.264 405.181,-35.174 405.999,-32.993C406.18,-32.72 406.271,-32.311 406.271,-31.766C405.817,-29.039 404.454,-27.676 402.181,-27.676C400.454,-27.676 399.182,-28.63 398.364,-30.539C398.273,-30.902 398.228,-31.311 398.228,-31.766L398.228,-32.038C398.228,-33.947 399.273,-35.31 401.363,-36.128L402.318,-36.264ZM417.451,-36.264C419.45,-36.264 420.95,-34.947 421.95,-32.311L422.222,-31.084C422.222,-29.175 421.041,-28.039 418.678,-27.676C416.769,-27.676 415.269,-28.948 414.179,-31.493L414.042,-32.584C414.406,-35.037 415.542,-36.264 417.451,-36.264ZM432.311,-36.264C433.947,-36.264 435.537,-35.083 437.082,-32.72C437.264,-32.356 437.491,-31.629 437.764,-30.539C437.764,-28.812 436.764,-27.857 434.765,-27.676C432.947,-27.676 431.266,-28.993 429.721,-31.629L429.584,-33.401C429.766,-35.31 430.675,-36.264 432.311,-36.264ZM446.217,-36.264C447.853,-36.264 449.58,-34.992 451.397,-32.447C452.034,-31.357 452.352,-30.493 452.352,-29.857C452.352,-28.584 451.579,-27.857 450.034,-27.676C448.398,-27.676 446.717,-28.903 444.99,-31.357C444.444,-32.265 444.172,-33.129 444.172,-33.947C444.172,-35.492 444.853,-36.264 446.217,-36.264ZM459.032,-36.264C460.85,-36.264 462.849,-34.674 465.031,-31.493L465.712,-29.312C465.531,-28.221 464.985,-27.676 464.076,-27.676C462.259,-27.676 460.35,-29.13 458.35,-32.038C457.714,-33.129 457.396,-33.992 457.396,-34.628C457.578,-35.719 458.123,-36.264 459.032,-36.264ZM470.348,-36.264C471.802,-36.264 473.756,-34.81 476.21,-31.902C477.028,-30.72 477.437,-29.675 477.437,-28.766C477.346,-28.039 476.983,-27.676 476.346,-27.676C474.71,-27.676 472.665,-29.312 470.211,-32.584C469.666,-33.492 469.302,-34.31 469.121,-35.037C469.121,-35.855 469.53,-36.264 470.348,-36.264ZM479.755,-36.264C480.845,-36.264 482.708,-34.901 485.344,-32.175C486.798,-30.448 487.526,-29.13 487.526,-28.221C487.344,-27.857 487.071,-27.676 486.708,-27.676C484.89,-27.948 482.799,-29.675 480.436,-32.856C479.527,-34.129 479.073,-35.083 479.073,-35.719C479.164,-36.083 479.391,-36.264 479.755,-36.264ZM486.844,-36.264C488.389,-36.264 490.888,-34.174 494.342,-29.993C494.888,-28.993 495.16,-28.266 495.16,-27.812L494.751,-27.676C492.297,-28.584 489.661,-31.084 486.844,-35.174C486.844,-35.537 486.798,-35.719 486.708,-35.719L486.844,-36.264ZM293.661,-18.814L293.933,-18.814L293.933,-18.678C291.207,-14.315 288.843,-10.998 286.844,-8.725L286.844,-8.998C288.116,-11.634 290.389,-14.906 293.661,-18.814ZM296.933,-18.814L297.205,-18.541C296.569,-16.178 294.615,-13.179 291.343,-9.543C290.888,-9.089 290.479,-8.862 290.116,-8.862L289.98,-9.407C290.798,-11.77 292.479,-14.406 295.024,-17.314C296.024,-18.314 296.66,-18.814 296.933,-18.814ZM302.931,-18.814C303.295,-18.632 303.476,-18.405 303.476,-18.132C302.749,-15.224 301.25,-12.679 298.978,-10.498C298.16,-9.589 297.387,-9.043 296.66,-8.862C296.296,-8.953 296.115,-9.089 296.115,-9.271L296.115,-9.543C296.115,-11.725 297.887,-14.542 301.431,-17.996C302.159,-18.541 302.658,-18.814 302.931,-18.814ZM311.52,-18.814C312.247,-18.541 312.611,-18.132 312.611,-17.587C312.611,-15.678 311.202,-13.224 308.384,-10.225C307.203,-9.316 306.339,-8.862 305.794,-8.862C305.249,-8.862 304.931,-9.316 304.84,-10.225C304.84,-12.588 306.521,-15.224 309.884,-18.132C310.702,-18.587 311.247,-18.814 311.52,-18.814ZM322.836,-18.814C323.563,-18.541 323.926,-18.132 323.926,-17.587L324.063,-16.769L324.063,-16.633C324.063,-14.451 322.654,-12.134 319.836,-9.68C318.928,-9.134 318.155,-8.862 317.519,-8.862C316.519,-9.134 316.019,-9.771 316.019,-10.77C316.019,-12.952 317.382,-15.269 320.109,-17.723C321.2,-18.45 322.109,-18.814 322.836,-18.814ZM335.924,-18.814C337.287,-18.541 337.969,-17.632 337.969,-16.087C337.969,-13.633 336.469,-11.361 333.47,-9.271L331.561,-8.862C330.47,-8.862 329.743,-9.68 329.38,-11.316L329.38,-11.588C329.38,-13.77 330.788,-15.905 333.606,-17.996C334.606,-18.541 335.378,-18.814 335.924,-18.814ZM350.784,-18.814C352.42,-18.814 353.329,-17.769 353.511,-15.678L353.511,-15.406C353.511,-13.224 352.329,-11.27 349.966,-9.543C349.966,-9.362 349.102,-9.134 347.376,-8.862C345.649,-9.316 344.785,-10.134 344.785,-11.316L344.649,-11.997C344.649,-14.542 346.239,-16.678 349.421,-18.405L350.784,-18.814ZM367.28,-18.814C369.098,-18.814 370.189,-17.541 370.552,-14.997L370.552,-14.86C370.552,-12.315 369.098,-10.361 366.19,-8.998L364.826,-8.862C362.918,-8.862 361.781,-10.134 361.418,-12.679L361.418,-12.815C361.418,-14.36 362.327,-15.951 364.145,-17.587C365.144,-18.314 366.19,-18.723 367.28,-18.814ZM384.594,-18.814C386.23,-18.814 387.457,-17.769 388.275,-15.678L388.548,-14.179C388.548,-11.906 387.276,-10.225 384.731,-9.134L383.231,-8.862C381.504,-8.862 380.232,-9.861 379.414,-11.861C379.323,-12.134 379.277,-12.543 379.277,-13.088C379.277,-15.542 380.504,-17.314 382.958,-18.405L384.594,-18.814ZM402.318,-18.814C404.226,-18.814 405.681,-17.541 406.68,-14.997L406.953,-13.77C406.953,-11.497 405.726,-9.907 403.272,-8.998L402.181,-8.862C400.273,-8.862 398.818,-9.998 397.819,-12.27L397.546,-13.633C397.546,-16.269 398.955,-17.996 401.772,-18.814L402.318,-18.814ZM420.177,-18.814C421.541,-18.814 422.904,-17.95 424.267,-16.224C424.903,-15.224 425.222,-14.224 425.222,-13.224L425.222,-13.088C424.767,-10.27 423.358,-8.862 420.995,-8.862C419.177,-8.862 417.632,-9.952 416.36,-12.134C416.087,-12.952 415.951,-13.724 415.951,-14.451C416.314,-17.36 417.723,-18.814 420.177,-18.814ZM437.355,-18.814C439.082,-18.814 440.763,-17.587 442.399,-15.133C442.763,-14.042 442.945,-13.27 442.945,-12.815L442.945,-12.406C442.581,-10.043 441.4,-8.862 439.4,-8.862C437.401,-8.862 435.674,-10.225 434.219,-12.952L433.81,-14.588L433.81,-14.997C434.174,-17.541 435.356,-18.814 437.355,-18.814ZM453.715,-18.814C455.169,-18.814 456.76,-17.769 458.487,-15.678C459.305,-14.133 459.714,-12.906 459.714,-11.997C459.441,-9.907 458.441,-8.862 456.714,-8.862C455.26,-8.862 453.715,-9.861 452.079,-11.861C451.261,-13.315 450.852,-14.588 450.852,-15.678C451.216,-17.769 452.17,-18.814 453.715,-18.814ZM468.575,-18.814C470.575,-18.814 472.529,-17.087 474.438,-13.633C474.801,-12.724 474.983,-12.043 474.983,-11.588L474.983,-11.316C474.801,-9.68 474.029,-8.862 472.665,-8.862C470.848,-8.862 469.03,-10.361 467.212,-13.361C466.939,-13.997 466.667,-14.86 466.394,-15.951C466.576,-17.86 467.303,-18.814 468.575,-18.814ZM481.8,-18.814C483.526,-18.814 485.435,-17.178 487.526,-13.906C487.889,-13.27 488.207,-12.224 488.48,-10.77C488.298,-9.498 487.707,-8.862 486.708,-8.862C485.072,-8.862 483.254,-10.452 481.254,-13.633C480.618,-14.997 480.3,-16.087 480.3,-16.905C480.3,-17.996 480.8,-18.632 481.8,-18.814ZM492.843,-18.814C494.388,-18.814 496.296,-17.042 498.569,-13.497C499.296,-12.134 499.659,-10.998 499.659,-10.089C499.477,-9.271 499.114,-8.862 498.569,-8.862C497.114,-8.862 495.251,-10.589 492.979,-14.042C492.252,-15.678 491.888,-16.86 491.888,-17.587C491.979,-18.405 492.297,-18.814 492.843,-18.814ZM501.568,-18.814C504.113,-17.632 506.294,-14.997 508.112,-10.907L508.384,-9.543C508.384,-9.271 508.157,-9.043 507.703,-8.862C505.431,-9.589 503.204,-12.361 501.022,-17.178L501.022,-18.132C501.022,-18.587 501.204,-18.814 501.568,-18.814ZM507.294,-18.814L507.566,-18.814C509.657,-17.178 511.293,-15.315 512.474,-13.224C513.747,-11.225 514.383,-9.816 514.383,-8.998L513.974,-8.862C512.52,-9.861 511.02,-11.543 509.475,-13.906C508.021,-16.269 507.294,-17.905 507.294,-18.814ZM510.566,-18.814L510.702,-18.814C514.247,-14.633 516.519,-11.316 517.519,-8.862C515.156,-11.497 512.838,-14.724 510.566,-18.541L510.566,-18.814ZM281.391,0.818L281.391,0.954C281.391,2.136 279.664,5.908 276.21,12.27L276.21,12.406L276.074,12.406L276.074,12.27C277.164,8.544 278.8,4.817 280.982,1.091L281.391,0.818ZM522.972,0.954L523.108,0.954C525.017,3.681 526.698,7.089 528.153,11.179L528.289,12.27C527.562,11.725 525.971,8.498 523.517,2.59L522.972,0.954ZM284.935,1.091L285.072,1.909C283.981,6.544 282.345,9.907 280.164,11.997L279.755,12.134C279.573,11.861 279.482,11.588 279.482,11.316C280.663,6.499 282.299,3.136 284.39,1.227L284.935,1.091ZM512.883,1.091C514.247,1.091 515.883,3.227 517.791,7.498C518.246,9.043 518.473,10.134 518.473,10.77C518.473,11.497 518.155,11.906 517.519,11.997C516.792,11.997 515.746,10.997 514.383,8.998C513.02,6.817 512.293,4.772 512.202,2.863L512.202,2.454C512.202,1.727 512.429,1.272 512.883,1.091ZM519.7,1.091C520.791,1.636 522.109,3.681 523.654,7.226C524.472,9.134 524.881,10.498 524.881,11.316C524.881,11.588 524.79,11.861 524.608,12.134C524.063,12.134 523.108,10.952 521.745,8.589C520.109,5.135 519.291,2.818 519.291,1.636C519.291,1.272 519.427,1.091 519.7,1.091ZM291.343,1.227L291.616,1.227C291.888,1.227 292.115,1.681 292.297,2.59C292.025,5.226 290.888,7.953 288.889,10.77C287.98,11.588 287.298,11.997 286.844,11.997L286.708,11.997C286.253,11.815 286.026,11.406 286.026,10.77L286.026,10.361C286.026,7.907 287.435,4.999 290.252,1.636L291.343,1.227ZM301.159,1.227C302.068,1.227 302.522,1.909 302.522,3.272L302.522,3.408C302.522,6.135 301.204,8.771 298.569,11.316C298.023,11.77 297.432,11.997 296.796,11.997C295.978,11.997 295.524,11.27 295.433,9.816L295.433,9.68C295.433,6.862 296.887,4.181 299.796,1.636C300.159,1.363 300.613,1.227 301.159,1.227ZM313.429,1.227C314.701,1.227 315.428,2.181 315.61,4.09C315.61,5.544 315.065,7.18 313.974,8.998C312.52,10.997 311.111,11.997 309.748,11.997C308.475,11.997 307.748,11.088 307.566,9.271L307.566,8.998C307.566,6.453 308.884,4.09 311.52,1.909C312.156,1.454 312.793,1.227 313.429,1.227ZM328.153,1.227C329.425,1.227 330.334,1.954 330.879,3.408L331.016,4.499L331.016,4.908C331.016,7.544 329.652,9.771 326.926,11.588C326.199,11.861 325.608,11.997 325.153,11.997C323.517,11.997 322.518,10.907 322.154,8.725C322.154,5.726 323.654,3.317 326.653,1.5C327.017,1.318 327.516,1.227 328.153,1.227ZM344.649,1.227L344.922,1.227C346.83,1.227 347.966,2.454 348.33,4.908L348.33,5.317C348.33,8.316 346.739,10.498 343.558,11.861L342.468,11.997C340.468,11.997 339.287,10.679 338.923,8.044C338.923,5.135 340.514,2.908 343.695,1.363L344.649,1.227ZM362.918,1.227L363.327,1.227C365.508,1.227 366.826,2.681 367.28,5.59C367.28,8.498 365.826,10.589 362.918,11.861C362.554,11.952 362.054,11.997 361.418,11.997C359.055,11.997 357.691,10.498 357.328,7.498C357.328,4.863 358.782,2.863 361.691,1.5L362.918,1.227ZM382.549,1.227C384.64,1.227 386.094,2.454 386.912,4.908L387.185,6.68C387.185,8.044 386.367,9.498 384.731,11.043C383.64,11.679 382.549,11.997 381.459,11.997C379.368,11.997 377.914,10.816 377.096,8.453L376.823,7.362C376.823,4.363 378.414,2.318 381.595,1.227L382.549,1.227ZM401.909,1.227L402.318,1.227C404.59,1.227 406.226,2.545 407.226,5.181C407.317,5.544 407.362,6.044 407.362,6.68C406.817,10.225 405.044,11.997 402.045,11.997C399.591,11.997 397.955,10.452 397.137,7.362L397.001,6.68C397.001,5.226 397.682,3.772 399.046,2.318C400.045,1.591 401,1.227 401.909,1.227ZM421.813,1.227L422.222,1.227C424.494,1.227 426.176,2.681 427.267,5.59L427.539,6.817L427.539,7.226C427.539,9.407 426.358,10.952 423.995,11.861L422.631,11.997C420.359,11.997 418.678,10.589 417.587,7.771C417.405,7.407 417.314,6.817 417.314,5.999C417.314,3.817 418.496,2.272 420.859,1.363L421.813,1.227ZM441.172,1.227L441.445,1.227C443.717,1.227 445.49,2.681 446.762,5.59C447.035,6.317 447.171,6.908 447.171,7.362C446.808,10.452 445.399,11.997 442.945,11.997C440.582,11.997 438.764,10.589 437.491,7.771L437.219,5.999L437.219,5.59C437.582,2.681 438.9,1.227 441.172,1.227ZM459.441,1.227L459.714,1.227C462.168,1.227 464.076,3.09 465.44,6.817L465.576,7.907C465.212,10.634 463.985,11.997 461.895,11.997C459.441,11.997 457.532,10.27 456.169,6.817L456.033,5.181C456.396,2.545 457.532,1.227 459.441,1.227ZM476.21,1.227C478.391,1.227 480.209,2.863 481.663,6.135L482.209,8.589C481.936,10.861 480.936,11.997 479.209,11.997C477.028,11.997 475.21,10.225 473.756,6.68L473.347,4.635C473.62,2.363 474.574,1.227 476.21,1.227ZM490.934,1.227C492.933,1.227 494.706,2.908 496.251,6.271C496.524,6.908 496.751,7.907 496.933,9.271C496.569,11.088 495.796,11.997 494.615,11.997C492.524,11.997 490.752,10.089 489.298,6.271C489.025,5.544 488.889,4.908 488.889,4.363L488.889,3.817C488.889,2.272 489.525,1.409 490.798,1.227L490.934,1.227ZM503.34,1.227C504.976,1.227 506.703,3.181 508.521,7.089L509.066,9.68C509.066,11.225 508.521,11.997 507.43,11.997C505.976,11.997 504.385,10.225 502.658,6.68C502.113,5.044 501.84,3.954 501.84,3.408C501.84,1.954 502.34,1.227 503.34,1.227ZM272.393,22.904L272.529,23.177C271.257,29.448 270.12,33.265 269.121,34.628L269.121,34.356C269.121,32.447 270.075,28.63 271.984,22.904L272.393,22.904ZM531.97,22.904L532.106,22.904C533.106,24.449 534.151,28.039 535.242,33.674L535.242,34.628L535.106,34.628C534.288,33.356 533.242,29.766 531.97,23.858L531.97,22.904ZM275.937,22.904L276.21,22.904C276.392,22.904 276.574,23.358 276.755,24.267C276.755,27.448 275.756,30.766 273.756,34.219L273.347,34.492L272.938,34.492C272.756,34.492 272.62,33.947 272.529,32.856C272.529,29.675 273.529,26.449 275.528,23.177L275.937,22.904ZM283.436,22.904C283.981,22.904 284.344,23.767 284.526,25.494C284.526,28.584 283.526,31.402 281.527,33.947L280.573,34.628C279.755,34.628 279.255,33.629 279.073,31.629C279.073,29.448 279.891,26.994 281.527,24.267C282.163,23.358 282.799,22.904 283.436,22.904ZM293.661,22.904L293.797,22.904C294.888,22.904 295.524,24.04 295.706,26.312L295.706,26.585C295.706,29.675 294.524,32.175 292.161,34.083L290.934,34.628C289.661,34.174 289.025,32.902 289.025,30.811C289.025,27.994 290.161,25.494 292.434,23.313L293.661,22.904ZM306.748,22.904L307.021,22.904C308.839,23.358 309.748,24.722 309.748,26.994C309.748,30.266 308.384,32.72 305.658,34.356L304.567,34.628C302.749,34.083 301.84,32.765 301.84,30.675L301.84,30.13C301.84,27.494 303.022,25.267 305.385,23.449C305.93,23.086 306.385,22.904 306.748,22.904ZM322.427,22.904L322.972,22.904C324.517,22.904 325.562,24.085 326.108,26.449L326.244,27.403C326.244,30.584 324.881,32.856 322.154,34.219L320.791,34.628C318.428,34.083 317.246,32.493 317.246,29.857C317.246,27.766 318.155,25.858 319.973,24.131C320.791,23.404 321.609,22.995 322.427,22.904ZM340.286,22.904L341.104,22.904C342.649,22.904 343.831,24.085 344.649,26.449C344.74,26.721 344.785,27.221 344.785,27.948C344.785,30.948 343.286,33.083 340.286,34.356L339.059,34.628C337.423,34.628 336.151,33.447 335.242,31.084L334.969,29.721C334.969,28.448 335.424,26.994 336.333,25.358C337.878,23.722 339.196,22.904 340.286,22.904ZM359.782,22.904L360.464,22.904C362.918,22.904 364.417,24.585 364.963,27.948L364.963,28.494C364.963,30.766 363.736,32.629 361.282,34.083C360.464,34.447 359.782,34.628 359.237,34.628C357.146,34.628 355.646,33.311 354.738,30.675L354.465,29.312C354.465,26.676 355.828,24.676 358.555,23.313L359.782,22.904ZM381.459,22.904C383.277,22.904 384.776,24.176 385.958,26.721L386.094,28.766C386.094,31.038 384.776,32.856 382.14,34.219L380.368,34.628C378.187,34.628 376.551,33.311 375.46,30.675L375.324,29.039C375.324,26.04 376.914,23.995 380.095,22.904L381.459,22.904ZM401.636,22.904L402.454,22.904C404.726,22.904 406.408,24.358 407.498,27.267C407.68,27.63 407.771,28.13 407.771,28.766C407.771,31.402 406.408,33.22 403.681,34.219C403.045,34.492 402.499,34.628 402.045,34.628C399.955,34.628 398.273,33.265 397.001,30.539L396.728,29.175L396.728,28.357C396.728,25.903 398.182,24.131 401.091,23.04L401.636,22.904ZM423.04,22.904L423.722,22.904C425.994,22.904 427.721,24.358 428.903,27.267C429.084,27.903 429.175,28.448 429.175,28.903L429.175,29.175C429.175,31.629 427.857,33.356 425.222,34.356L423.858,34.628C421.677,34.628 419.905,33.22 418.541,30.402L418.269,28.494C418.269,26.312 419.405,24.585 421.677,23.313L423.04,22.904ZM444.717,22.904C446.444,22.904 447.989,24.176 449.352,26.721C449.716,27.63 449.898,28.403 449.898,29.039L449.898,29.312C449.534,32.856 447.898,34.628 444.99,34.628C443.081,34.628 441.445,33.356 440.082,30.811C439.809,30.175 439.582,29.402 439.4,28.494C439.4,25.585 440.763,23.722 443.49,22.904L444.717,22.904ZM463.395,22.904L464.213,22.904C465.849,22.904 467.394,24.222 468.848,26.858C469.212,28.039 469.393,28.857 469.393,29.312L469.393,29.857C469.393,31.947 468.348,33.447 466.258,34.356L465.167,34.628C463.258,34.628 461.622,33.311 460.259,30.675C459.895,29.948 459.668,29.13 459.577,28.221C459.577,25.858 460.532,24.176 462.44,23.177L463.395,22.904ZM481.527,22.904L482.072,22.904C483.799,22.904 485.344,24.449 486.708,27.539C486.98,28.448 487.117,29.357 487.117,30.266C486.662,33.174 485.481,34.628 483.572,34.628C481.481,34.628 479.755,32.856 478.391,29.312L478.119,27.676C478.119,24.949 479.255,23.358 481.527,22.904ZM497.478,22.904L497.614,22.904C499.341,22.904 500.841,24.494 502.113,27.676C502.295,28.221 502.477,29.084 502.658,30.266C502.295,33.174 501.341,34.628 499.796,34.628C498.069,34.628 496.524,33.083 495.16,29.993L494.751,27.539L494.751,26.585C495.024,24.131 495.933,22.904 497.478,22.904ZM510.702,22.904L510.975,22.904C512.338,22.904 513.656,24.585 514.928,27.948L515.337,30.402L515.337,31.084C515.156,33.447 514.519,34.628 513.429,34.628C512.247,34.628 511.02,33.401 509.748,30.948C509.021,29.039 508.657,27.539 508.657,26.449C508.93,24.085 509.611,22.904 510.702,22.904ZM520.927,22.904L521.063,22.904C522.608,22.904 523.972,25.312 525.153,30.13L525.29,31.766C525.108,33.674 524.699,34.628 524.063,34.628C522.79,34.628 521.609,32.856 520.518,29.312C520.155,27.948 519.973,26.812 519.973,25.903L519.973,25.222C519.973,24.131 520.291,23.358 520.927,22.904ZM528.016,22.904L528.153,22.904C529.425,22.904 530.607,25.721 531.697,31.357L531.834,33.129C531.834,34.038 531.697,34.492 531.425,34.492L531.152,34.492C529.607,33.311 528.425,29.993 527.607,24.54L528.016,22.904ZM537.014,45.671C537.651,46.035 538.15,49.443 538.514,55.896L538.241,57.941L538.105,57.941C537.287,54.579 536.878,51.034 536.878,47.307L537.014,45.671ZM267.076,45.808L267.212,45.808C267.394,45.808 267.485,46.308 267.485,47.307L267.485,47.444C267.485,51.352 267.076,54.851 266.258,57.941L266.121,57.941L265.849,55.487C265.94,52.579 266.349,49.352 267.076,45.808ZM303.204,45.808C304.749,45.808 305.885,47.126 306.612,49.761L306.748,51.261C306.748,54.806 305.385,56.987 302.658,57.805L302.386,57.805C300.477,57.805 299.296,55.987 298.841,52.352C298.841,50.08 299.75,48.08 301.568,46.353L303.204,45.808ZM319.7,45.808C320.609,45.808 321.563,46.353 322.563,47.444C323.29,48.353 323.745,49.534 323.926,50.988C323.926,54.351 322.563,56.623 319.836,57.805L319.018,57.805C316.746,57.805 315.337,56.124 314.792,52.761L314.792,51.943C314.792,49.671 315.883,47.762 318.064,46.217L319.7,45.808ZM338.378,45.808C341.468,46.535 343.013,48.58 343.013,51.943C343.013,54.033 341.968,55.805 339.877,57.26C339.241,57.623 338.514,57.805 337.696,57.805C335.696,57.805 334.197,56.487 333.197,53.851L332.924,52.079C332.924,49.807 334.015,47.944 336.196,46.489C337.105,46.035 337.832,45.808 338.378,45.808ZM358.555,45.808C360.918,45.808 362.599,47.307 363.599,50.307L363.872,51.806C363.872,54.26 362.554,56.169 359.918,57.532L358.146,57.805C355.874,57.805 354.238,56.396 353.238,53.579L352.965,52.488C352.965,49.216 354.556,47.035 357.737,45.944L358.555,45.808ZM380.095,45.808C383.822,46.535 385.685,48.625 385.685,52.079C385.685,53.897 384.685,55.578 382.686,57.123C381.595,57.578 380.686,57.805 379.959,57.805C377.505,57.805 375.733,56.351 374.642,53.442L374.506,52.215L374.506,51.397C374.506,49.125 375.869,47.398 378.596,46.217L380.095,45.808ZM402.181,45.808C404.544,45.808 406.362,47.217 407.635,50.034L407.907,51.806C407.907,54.351 406.589,56.26 403.954,57.532L402.318,57.805C399.591,57.805 397.682,56.26 396.592,53.17L396.592,51.806C396.592,48.989 398.182,47.035 401.363,45.944L402.181,45.808ZM424.267,45.808C426.63,45.808 428.403,47.171 429.584,49.898L430.13,51.943C430.13,54.306 428.857,56.169 426.312,57.532L424.404,57.805C421.768,57.805 419.95,56.214 418.95,53.033L418.814,51.806C418.814,48.989 420.314,47.035 423.313,45.944L424.267,45.808ZM445.808,45.808C448.08,45.808 449.852,47.307 451.125,50.307L451.397,52.488C451.397,54.76 450.08,56.487 447.444,57.669L446.217,57.805C443.672,57.805 441.854,56.214 440.763,53.033L440.627,51.67C440.627,48.943 442.081,47.035 444.99,45.944L445.808,45.808ZM466.258,45.808C468.166,45.808 469.757,47.171 471.029,49.898L471.438,51.806L471.438,52.352C471.438,55.169 469.984,56.987 467.076,57.805L466.53,57.805C464.622,57.805 463.077,56.533 461.895,53.988C461.622,53.533 461.441,52.715 461.35,51.534C461.35,48.989 462.668,47.126 465.303,45.944L466.258,45.808ZM484.799,45.808C486.617,45.808 488.116,47.262 489.298,50.17L489.707,52.624C489.071,56.078 487.616,57.805 485.344,57.805C483.345,57.805 481.845,56.26 480.845,53.17L480.573,51.943C480.573,48.398 481.981,46.353 484.799,45.808ZM501.159,45.808C502.613,45.808 503.885,47.035 504.976,49.489C505.34,50.398 505.521,51.534 505.521,52.897C505.067,56.169 503.84,57.805 501.84,57.805C500.386,57.805 499.159,56.578 498.16,54.124C497.887,53.397 497.705,52.443 497.614,51.261C498.069,47.716 499.25,45.944 501.159,45.944L501.159,45.808ZM271.302,45.944C271.938,46.399 272.256,47.58 272.256,49.489C272.256,53.761 271.575,56.533 270.211,57.805C269.484,57.351 269.121,56.033 269.121,53.851C269.121,50.398 269.711,47.762 270.893,45.944L271.302,45.944ZM278.391,45.944L278.937,45.944C280.027,46.762 280.573,48.262 280.573,50.443L280.573,50.852C280.573,54.033 279.755,56.351 278.119,57.805L277.846,57.805C276.664,57.805 275.983,56.396 275.801,53.579L275.801,52.761C275.801,49.489 276.664,47.217 278.391,45.944ZM289.571,45.944C291.025,45.944 291.888,47.762 292.161,51.397C292.161,53.124 291.57,54.897 290.389,56.714C289.752,57.441 289.162,57.805 288.616,57.805C286.98,57.805 286.026,56.078 285.753,52.624C286.026,48.898 287.162,46.671 289.162,45.944L289.571,45.944ZM514.792,45.944L515.201,45.944C516.655,45.944 517.791,47.807 518.609,51.534L518.609,53.033C518.609,55.669 517.701,57.26 515.883,57.805C513.974,57.805 512.747,55.669 512.202,51.397L512.202,50.579C512.656,47.489 513.52,45.944 514.792,45.944ZM525.835,45.944C527.107,45.944 528.016,47.989 528.562,52.079L528.698,53.306C528.698,55.76 528.016,57.26 526.653,57.805C525.562,57.805 524.699,56.124 524.063,52.761L523.79,50.852C523.972,47.58 524.653,45.944 525.835,45.944ZM533.061,45.944L533.333,45.944C534.424,46.58 535.06,49.307 535.242,54.124C535.151,56.578 534.788,57.805 534.151,57.805C533.152,57.805 532.47,55.124 532.106,49.761L532.106,49.489C532.288,47.126 532.606,45.944 533.061,45.944ZM266.121,69.393C266.758,69.848 267.212,73.347 267.485,79.891L267.485,80.709C267.485,81.072 267.394,81.3 267.212,81.391L267.076,81.391C266.258,77.482 265.849,74.21 265.849,71.575L266.121,69.393ZM288.616,69.393C290.07,69.393 291.207,71.029 292.025,74.301L292.161,75.801L292.161,76.483C291.979,79.3 291.161,80.891 289.707,81.254L289.434,81.391C288.071,81.391 286.98,79.936 286.162,77.028C285.89,76.301 285.753,75.528 285.753,74.71L285.753,74.574C285.753,71.666 286.708,69.939 288.616,69.393ZM302.386,69.393C304.294,69.393 305.703,71.12 306.612,74.574L306.748,76.21C306.748,78.755 305.749,80.436 303.749,81.254L303.34,81.391C301.25,81.391 299.796,79.573 298.978,75.937L298.841,74.847C299.296,71.302 300.432,69.53 302.249,69.53L302.386,69.393ZM319.018,69.393C321.018,69.393 322.518,70.893 323.517,73.892C323.699,74.165 323.79,74.574 323.79,75.119L323.79,75.937L323.926,76.074C323.29,79.618 321.836,81.391 319.564,81.391C317.564,81.391 316.065,79.845 315.065,76.755L314.792,75.392L314.792,74.71C314.792,71.802 316.201,70.03 319.018,69.393ZM337.832,69.393C340.014,69.393 341.695,70.893 342.877,73.892L343.013,75.528C343.013,78.073 341.922,79.936 339.741,81.118L338.241,81.391C335.969,81.391 334.288,79.8 333.197,76.619L332.924,75.119C332.924,72.302 334.288,70.439 337.014,69.53L337.832,69.393ZM358.146,69.393C360.691,69.393 362.509,70.938 363.599,74.029L363.872,75.665C363.872,78.209 362.554,80.027 359.918,81.118L358.555,81.391C356.192,81.391 354.419,79.845 353.238,76.755L352.965,74.847C352.965,73.483 353.738,72.029 355.283,70.484C356.464,69.757 357.419,69.393 358.146,69.393ZM379.823,69.393C382.459,69.393 384.322,70.848 385.412,73.756L385.685,75.392C385.685,78.119 384.276,80.027 381.459,81.118L380.095,81.391C377.641,81.391 375.869,79.936 374.778,77.028C374.597,76.664 374.506,76.255 374.506,75.801L374.506,74.983C374.506,72.802 375.551,71.166 377.641,70.075C378.096,69.711 378.823,69.484 379.823,69.393ZM402.181,69.393C404.635,69.393 406.499,70.848 407.771,73.756L407.907,75.392C407.907,77.846 406.589,79.755 403.954,81.118L402.181,81.391C399.909,81.391 398.137,80.027 396.864,77.301C396.683,76.574 396.592,75.892 396.592,75.256C396.592,72.438 398.182,70.529 401.363,69.53L402.181,69.393ZM424.54,69.393C426.721,69.393 428.403,70.666 429.584,73.211L430.13,75.256C429.857,76.801 429.402,78.073 428.766,79.073C427.312,80.618 425.812,81.391 424.267,81.391C421.813,81.391 420.041,79.936 418.95,77.028L418.814,75.528C418.814,73.165 419.905,71.347 422.086,70.075C422.904,69.621 423.722,69.393 424.54,69.393ZM446.217,69.393C448.216,69.393 449.807,70.575 450.988,72.938L451.397,74.983C451.397,77.891 450.034,79.936 447.307,81.118C447.035,81.209 446.489,81.3 445.671,81.391C443.763,81.391 442.218,80.209 441.036,77.846C440.763,76.846 440.627,76.028 440.627,75.392C440.627,72.574 442.172,70.62 445.262,69.53L446.217,69.393ZM466.803,69.393C468.439,69.393 469.802,70.484 470.893,72.665C471.257,73.392 471.438,74.12 471.438,74.847L471.438,75.256C471.438,78.164 469.939,80.164 466.939,81.254L466.258,81.391C464.076,81.391 462.531,80.073 461.622,77.437L461.35,75.665C461.35,73.483 462.395,71.62 464.485,70.075C465.212,69.711 465.985,69.484 466.803,69.393ZM485.481,69.393C487.207,69.393 488.48,70.575 489.298,72.938L489.707,74.574C489.707,77.937 488.344,80.164 485.617,81.254L484.799,81.391C482.89,81.391 481.527,79.936 480.709,77.028L480.573,75.119C480.573,73.665 481.391,72.029 483.027,70.211C484.117,69.666 484.935,69.393 485.481,69.393ZM501.977,69.393C503.34,69.393 504.385,70.439 505.112,72.529C505.385,73.347 505.521,74.029 505.521,74.574C505.521,77.846 504.34,80.073 501.977,81.254L501.295,81.391C499.477,81.391 498.296,79.845 497.751,76.755L497.614,76.074C497.614,72.893 498.887,70.711 501.431,69.53L501.977,69.393ZM515.746,69.393C517.201,69.393 518.155,70.938 518.609,74.029L518.609,75.256C518.246,78.528 517.246,80.482 515.61,81.118L515.065,81.391C513.611,81.391 512.656,79.8 512.202,76.619L512.202,75.937C512.474,72.302 513.565,70.166 515.474,69.53L515.746,69.393ZM538.241,69.393L538.514,71.438C538.514,74.438 538.105,77.755 537.287,81.391L537.014,81.391L536.878,79.891C536.878,76.074 537.287,72.574 538.105,69.393L538.241,69.393ZM270.075,69.53L270.348,69.53C271.62,70.984 272.256,73.711 272.256,77.71C272.165,79.709 271.893,80.891 271.438,81.254L270.893,81.254C269.711,79.618 269.121,76.937 269.121,73.211C269.302,70.757 269.621,69.53 270.075,69.53ZM277.301,69.53L277.982,69.53C279.346,70.529 280.027,71.666 280.027,72.938C280.209,72.938 280.391,74.074 280.573,76.346L280.573,76.755C280.391,79.755 279.755,81.254 278.664,81.254L278.528,81.254C277.255,81.254 276.346,79.164 275.801,74.983L275.801,73.483C275.801,71.666 276.301,70.348 277.301,69.53ZM526.38,69.53L527.062,69.53C527.607,69.53 528.107,70.575 528.562,72.665L528.698,74.438C528.698,77.255 527.925,79.482 526.38,81.118L526.244,81.254L525.426,81.254C524.881,81.254 524.381,80.209 523.926,78.119L523.79,77.301L523.926,77.164L523.926,76.619L523.79,76.483L523.926,76.483L523.926,75.937C523.926,72.938 524.744,70.802 526.38,69.53ZM534.015,69.53L534.424,69.53C534.878,69.711 535.151,71.029 535.242,73.483C535.242,77.119 534.651,79.709 533.47,81.254L532.924,81.254C532.561,81.072 532.288,79.845 532.106,77.573C532.106,73.847 532.743,71.166 534.015,69.53ZM269.121,92.706C270.211,94.16 271.347,97.932 272.529,104.022L272.393,104.431L272.256,104.431C271.438,103.431 270.393,99.75 269.121,93.388L269.121,92.706ZM273.074,92.706C274.074,92.706 275.165,95.16 276.346,100.068C276.619,101.25 276.755,102.295 276.755,103.204C276.574,104.022 276.392,104.431 276.21,104.431L276.074,104.431C275.165,104.431 274.074,102.068 272.802,97.342L272.529,94.342C272.529,93.524 272.711,92.979 273.074,92.706ZM290.934,92.706C292.115,92.706 293.342,93.888 294.615,96.251C295.342,97.887 295.706,99.432 295.706,100.886C295.706,103.158 295.024,104.294 293.661,104.294L293.524,104.294C291.979,104.294 290.616,102.522 289.434,98.978C289.162,98.069 289.025,97.16 289.025,96.251C289.025,94.342 289.661,93.161 290.934,92.706ZM304.703,92.706C305.976,92.979 307.112,93.751 308.112,95.024C309.202,96.933 309.748,98.705 309.748,100.341C309.475,102.977 308.566,104.294 307.021,104.294L306.885,104.294C304.613,104.294 302.931,102.113 301.84,97.751L301.84,96.524C302.204,93.979 303.113,92.706 304.567,92.706L304.703,92.706ZM320.791,92.706C322.518,92.706 324.108,93.933 325.562,96.387C326.017,97.66 326.244,98.796 326.244,99.796L326.244,100.068C326.244,102.431 325.108,103.885 322.836,104.431C320.564,104.431 318.791,102.704 317.519,99.25L317.246,97.478C317.246,95.387 318.064,93.888 319.7,92.979L320.791,92.706ZM339.332,92.706C340.695,92.706 342.104,93.615 343.558,95.433C344.376,96.614 344.785,97.978 344.785,99.523C344.785,101.704 343.74,103.249 341.65,104.158L340.695,104.431C338.514,104.431 336.742,102.886 335.378,99.796C335.106,98.887 334.969,98.069 334.969,97.342C335.606,94.251 337.06,92.706 339.332,92.706ZM359.373,92.706C360.464,92.706 361.736,93.297 363.19,94.479C364.372,96.024 364.963,97.478 364.963,98.841L364.963,99.25C364.963,101.522 363.781,103.158 361.418,104.158L360.327,104.431C357.782,104.431 355.919,102.795 354.738,99.523L354.465,98.023C354.465,95.569 355.692,93.842 358.146,92.843L359.373,92.706ZM380.504,92.706C381.777,92.797 382.958,93.252 384.049,94.07C385.412,95.524 386.094,97.023 386.094,98.569C386.094,101.386 384.685,103.295 381.868,104.294L381.05,104.431C378.596,104.431 376.778,103.022 375.596,100.204C375.415,99.568 375.324,99.023 375.324,98.569L375.324,98.16C375.324,95.706 376.551,93.979 379.005,92.979L380.504,92.706ZM402.318,92.706C403.863,92.979 404.999,93.433 405.726,94.07C407.089,95.342 407.771,96.842 407.771,98.569C407.771,101.204 406.362,103.067 403.545,104.158L402.181,104.431C399.727,104.431 397.955,102.886 396.864,99.796L396.592,98.569C396.592,95.842 398.091,93.933 401.091,92.843L402.318,92.706ZM423.995,92.706C425.721,92.979 426.948,93.524 427.676,94.342C428.675,95.615 429.175,96.887 429.175,98.16C429.175,101.159 427.539,103.204 424.267,104.294L423.586,104.431C421.132,104.431 419.405,103.022 418.405,100.204L418.269,98.705C418.269,96.524 419.45,94.706 421.813,93.252L423.995,92.706ZM445.126,92.706C446.489,92.888 447.444,93.252 447.989,93.797C449.262,94.978 449.898,96.342 449.898,97.887L449.898,98.16C449.898,100.613 448.625,102.522 446.08,103.885L444.172,104.431C442.172,104.431 440.673,103.204 439.673,100.75L439.4,98.705C439.673,96.887 440.264,95.524 441.172,94.615C442.354,93.433 443.626,92.797 444.99,92.706L445.126,92.706ZM465.167,92.706C466.258,92.706 467.348,93.297 468.439,94.479C469.075,95.387 469.393,96.433 469.393,97.614L469.393,97.751C469.393,100.75 467.894,102.886 464.894,104.158L463.804,104.431C461.441,104.431 460.032,102.749 459.577,99.387C459.577,96.478 460.986,94.342 463.804,92.979L465.167,92.706ZM483.708,92.706C485.98,93.252 487.117,94.706 487.117,97.069L487.117,97.342C487.117,100.341 485.662,102.613 482.754,104.158L481.8,104.294L481.527,104.294C480.164,104.294 479.164,103.386 478.528,101.568C478.255,100.841 478.119,100.159 478.119,99.523C478.119,97.16 479.3,95.069 481.663,93.252L483.708,92.706ZM499.796,92.706C500.523,92.706 501.295,93.252 502.113,94.342C502.477,95.524 502.658,96.478 502.658,97.205C502.204,99.568 501.568,101.295 500.75,102.386C499.659,103.658 498.569,104.294 497.478,104.294L497.342,104.294C495.978,104.294 495.115,103.067 494.751,100.613L494.751,99.659C494.751,97.205 495.887,95.069 498.16,93.252L499.796,92.706ZM513.292,92.706C514.383,92.706 515.065,93.797 515.337,95.978L515.337,96.796C515.337,99.159 514.338,101.431 512.338,103.613C511.884,104.067 511.384,104.294 510.838,104.294L510.702,104.294C509.611,104.294 508.93,103.158 508.657,100.886C508.657,97.796 509.839,95.206 512.202,93.115L513.292,92.706ZM531.152,92.706C531.606,92.706 531.834,93.206 531.834,94.206C531.834,97.478 530.834,100.75 528.834,104.022C528.562,104.294 528.334,104.431 528.153,104.431C527.88,104.067 527.698,103.476 527.607,102.658C528.062,98.841 528.834,95.978 529.925,94.07C530.47,93.342 530.879,92.888 531.152,92.706ZM280.573,92.706C281.754,92.706 282.981,94.797 284.254,98.978L284.526,101.704C284.344,103.431 284.026,104.294 283.572,104.294L283.299,104.294C281.663,104.294 280.3,101.795 279.209,96.796L279.073,95.706C279.073,93.706 279.573,92.706 280.573,92.706ZM524.063,92.706C524.881,93.07 525.29,93.979 525.29,95.433C525.29,98.796 524.154,101.659 521.881,104.022L520.927,104.294C520.382,104.294 520.064,103.522 519.973,101.977L519.973,101.295C520.609,96.024 521.972,93.161 524.063,92.706ZM535.242,92.706L535.242,92.843C535.242,94.66 534.333,98.296 532.515,103.749L532.106,104.431L531.97,104.431L531.97,104.158C531.97,102.34 532.924,98.614 534.833,92.979L535.242,92.706ZM276.074,115.201L276.21,115.201C277.846,117.564 279.436,120.836 280.982,125.017L281.391,126.38L281.391,126.517C279.3,123.517 277.573,119.882 276.21,115.61L276.074,115.201ZM279.891,115.201C280.8,115.292 282.209,117.473 284.117,121.745C284.753,123.654 285.072,124.926 285.072,125.562L285.072,125.835C285.072,126.017 284.935,126.108 284.663,126.108C283.572,125.562 282.254,123.563 280.709,120.109C279.891,118.2 279.482,116.701 279.482,115.61C279.573,115.337 279.709,115.201 279.891,115.201ZM286.844,115.201C287.935,115.474 289.116,116.701 290.389,118.882C291.661,121.518 292.297,123.472 292.297,124.744C292.115,125.653 291.843,126.108 291.479,126.108C290.116,126.108 288.48,123.926 286.571,119.564C286.208,118.382 286.026,117.473 286.026,116.837L286.026,116.701C286.026,115.701 286.299,115.201 286.844,115.201ZM296.933,115.201C298.205,115.201 299.705,116.655 301.431,119.564C302.159,121.382 302.522,122.79 302.522,123.79L302.522,123.926C302.431,125.381 301.931,126.108 301.022,126.108C299.841,126.108 298.341,124.653 296.524,121.745C295.796,120.018 295.433,118.609 295.433,117.519L295.433,117.382C295.433,115.928 295.933,115.201 296.933,115.201ZM309.884,115.201C311.611,115.201 313.338,116.928 315.065,120.382C315.428,121.563 315.61,122.518 315.61,123.245C315.337,125.153 314.565,126.108 313.292,126.108C311.566,126.108 309.839,124.381 308.112,120.927C307.748,119.836 307.566,118.973 307.566,118.337L307.566,118.064C307.748,116.155 308.475,115.201 309.748,115.201L309.884,115.201ZM325.153,115.201C327.153,115.201 328.925,116.837 330.47,120.109L331.016,122.29L331.016,122.699C330.743,124.972 329.789,126.108 328.153,126.108L327.88,126.108C326.608,126.108 325.108,125.017 323.381,122.836C322.563,121.382 322.154,119.882 322.154,118.337C322.518,116.246 323.517,115.201 325.153,115.201ZM342.604,115.201C344.785,115.201 346.603,116.746 348.057,119.836C348.239,120.745 348.33,121.563 348.33,122.29C347.966,124.835 346.785,126.108 344.785,126.108C342.695,126.108 340.877,124.517 339.332,121.336L338.923,119.427L338.923,119.155C338.923,117.337 339.741,116.11 341.377,115.474L342.604,115.201ZM361.691,115.201C363.872,115.201 365.644,116.655 367.007,119.564L367.28,121.336C366.917,124.517 365.462,126.108 362.918,126.108C360.918,126.108 359.146,124.653 357.601,121.745C357.419,120.836 357.328,120.064 357.328,119.427C357.328,117.61 358.282,116.292 360.191,115.474L361.691,115.201ZM381.731,115.201C383.913,115.201 385.64,116.61 386.912,119.427L387.185,120.791C386.73,124.335 385.14,126.108 382.413,126.108C379.868,126.108 378.05,124.472 376.96,121.2L376.823,119.973C376.823,118.246 377.823,116.746 379.823,115.474L381.731,115.201ZM402.181,115.201C404.726,115.201 406.408,116.655 407.226,119.564L407.362,120.791C406.726,124.335 404.953,126.108 402.045,126.108C400.045,126.108 398.455,124.835 397.273,122.29L397.001,120.654C397.001,118.2 398.319,116.474 400.954,115.474C401.227,115.292 401.636,115.201 402.181,115.201ZM423.04,115.201C424.949,115.201 426.358,116.337 427.267,118.609L427.539,120.109L427.539,120.518C427.539,122.699 426.267,124.472 423.722,125.835L421.95,126.108C419.95,126.108 418.496,124.926 417.587,122.563L417.314,121.2C417.314,118.291 418.814,116.337 421.813,115.337L423.04,115.201ZM443.081,115.201C445.172,115.201 446.535,116.61 447.171,119.427C447.171,122.245 445.762,124.381 442.945,125.835L441.172,126.108C439.446,126.108 438.173,125.062 437.355,122.972C437.264,122.608 437.219,122.199 437.219,121.745L437.219,121.2C437.219,119.018 438.355,117.246 440.627,115.883C441.445,115.428 442.263,115.201 443.081,115.201ZM462.031,115.201C463.94,115.201 465.122,116.61 465.576,119.427C465.212,121.336 464.622,122.79 463.804,123.79C462.259,125.335 460.85,126.108 459.577,126.108C457.578,126.108 456.396,124.79 456.033,122.154L456.169,121.336L456.033,121.336C456.124,120.064 456.76,118.7 457.941,117.246C459.214,115.883 460.577,115.201 462.031,115.201ZM479.346,115.201C480.891,115.201 481.845,116.383 482.209,118.746C482.209,120.836 481.118,122.972 478.937,125.153C477.755,125.79 476.801,126.108 476.074,126.108C474.71,126.108 473.801,125.017 473.347,122.836C473.347,119.836 474.756,117.428 477.573,115.61C478.3,115.337 478.891,115.201 479.346,115.201ZM494.615,115.201C495.887,115.201 496.66,116.155 496.933,118.064C496.933,119.337 496.387,120.927 495.297,122.836C493.751,125.017 492.297,126.108 490.934,126.108C489.843,126.108 489.116,125.153 488.753,123.245C488.753,120.791 489.934,118.428 492.297,116.155C492.933,115.61 493.706,115.292 494.615,115.201ZM507.566,115.201C508.294,115.201 508.793,115.974 509.066,117.519C509.066,119.7 507.839,122.245 505.385,125.153C504.385,125.79 503.704,126.108 503.34,126.108C502.34,125.835 501.84,125.062 501.84,123.79C501.84,121.7 502.931,119.291 505.112,116.564C506.112,115.656 506.93,115.201 507.566,115.201ZM517.519,115.201C517.973,115.201 518.291,115.656 518.473,116.564C518.473,119.109 517.11,122.018 514.383,125.29C513.747,125.835 513.247,126.108 512.883,126.108C512.429,126.108 512.202,125.608 512.202,124.608L512.202,124.335C512.202,122.154 513.474,119.382 516.019,116.019C516.746,115.474 517.246,115.201 517.519,115.201ZM524.608,115.201L524.881,115.883C524.608,118.519 523.245,121.654 520.791,125.29C520.336,125.744 519.973,126.017 519.7,126.108C519.427,126.017 519.291,125.835 519.291,125.562C519.564,122.745 521.063,119.427 523.79,115.61C524.063,115.337 524.335,115.201 524.608,115.201ZM528.289,115.201C528.289,116.474 526.608,120.2 523.245,126.38L522.972,126.38C523.336,124.563 525.017,120.836 528.016,115.201L528.289,115.201ZM517.519,135.924L517.655,135.924L517.655,136.06C516.383,138.605 514.201,141.831 511.111,145.74L510.566,146.149L510.429,146.149L510.429,146.012C513.065,141.65 515.428,138.287 517.519,135.924ZM286.844,136.06C289.389,138.878 291.752,142.24 293.933,146.149L293.933,146.285C291.57,143.74 289.252,140.559 286.98,136.742L286.844,136.333L286.844,136.06ZM290.389,136.06C292.206,137.514 293.751,139.287 295.024,141.377C295.933,142.831 296.66,144.285 297.205,145.74L297.069,146.149L296.796,146.149C295.615,145.421 294.07,143.695 292.161,140.968C290.707,138.605 289.98,137.06 289.98,136.333L290.389,136.06ZM296.66,136.06C299.296,137.332 301.522,140.15 303.34,144.513C303.34,144.967 303.386,145.194 303.476,145.194C303.386,145.649 303.204,145.967 302.931,146.149C300.204,144.876 297.978,142.195 296.251,138.105C296.16,137.741 296.115,137.332 296.115,136.878C296.115,136.424 296.296,136.151 296.66,136.06ZM507.566,136.06C507.93,136.06 508.203,136.333 508.384,136.878C508.203,138.787 506.748,141.286 504.022,144.376C503.022,145.285 502.204,145.876 501.568,146.149C501.204,146.058 501.022,145.74 501.022,145.194C501.295,143.104 502.84,140.514 505.658,137.423C506.294,136.787 506.93,136.333 507.566,136.06ZM513.974,136.06L514.383,136.333C514.383,137.969 512.429,141.013 508.521,145.467C507.975,145.921 507.566,146.149 507.294,146.149L507.157,145.74C507.703,143.831 509.43,141.104 512.338,137.56C512.702,137.105 513.247,136.605 513.974,136.06ZM305.93,136.196C307.566,136.196 309.521,138.196 311.793,142.195L312.611,144.649C312.429,145.558 312.065,146.012 311.52,146.012C309.884,146.012 307.839,143.967 305.385,139.877C305.022,138.878 304.84,138.105 304.84,137.56L304.84,137.287C304.84,136.56 305.203,136.196 305.93,136.196ZM317.655,136.196C319.473,136.196 321.336,137.787 323.245,140.968C323.79,142.059 324.063,143.149 324.063,144.24C323.972,145.421 323.472,146.012 322.563,146.012C320.836,146.012 318.973,144.422 316.973,141.241C316.337,140.15 316.019,139.059 316.019,137.969C316.019,136.787 316.564,136.196 317.655,136.196ZM331.697,136.196C333.879,136.196 335.833,137.923 337.56,141.377C337.832,142.104 337.969,142.831 337.969,143.558C337.787,145.194 337.06,146.012 335.787,146.012C333.697,146.012 331.743,144.285 329.925,140.832C329.561,139.832 329.38,139.105 329.38,138.65C329.561,137.014 330.334,136.196 331.697,136.196ZM347.648,136.196C349.83,136.196 351.647,137.696 353.102,140.695C353.374,141.422 353.511,142.104 353.511,142.74L353.511,142.877C353.329,144.967 352.374,146.012 350.648,146.012C348.557,146.012 346.694,144.376 345.058,141.104C344.785,140.286 344.649,139.605 344.649,139.059C344.649,137.332 345.649,136.378 347.648,136.196ZM364.963,136.196C367.598,136.196 369.461,137.878 370.552,141.241L370.552,142.331C370.189,144.785 369.007,146.012 367.007,146.012C364.917,146.012 363.145,144.513 361.691,141.513L361.418,139.877C361.691,137.423 362.872,136.196 364.963,136.196ZM383.231,136.196C385.685,136.196 387.367,137.56 388.275,140.286L388.548,141.377C388.548,143.922 387.276,145.467 384.731,146.012L384.458,146.012C382.186,146.012 380.504,144.558 379.414,141.65C379.323,140.832 379.232,140.423 379.141,140.423C379.596,137.605 380.959,136.196 383.231,136.196ZM402.318,136.196C404.499,136.196 405.999,137.469 406.817,140.014L406.953,140.968C406.953,142.877 405.999,144.422 404.09,145.603C403.363,145.876 402.727,146.012 402.181,146.012C400.091,146.012 398.591,144.74 397.682,142.195L397.546,141.513L397.546,140.968C397.546,138.787 398.637,137.242 400.818,136.333C401.182,136.242 401.681,136.196 402.318,136.196ZM421.132,136.196C423.586,136.196 424.949,137.696 425.222,140.695C425.222,142.786 423.949,144.467 421.404,145.74L420.041,146.012C417.678,146.012 416.314,144.513 415.951,141.513C415.951,138.878 417.451,137.105 420.45,136.196L421.132,136.196ZM439.4,136.196L439.536,136.196C441.536,136.196 442.672,137.378 442.945,139.741L442.945,140.014C442.945,142.286 441.672,144.149 439.127,145.603C438.491,145.876 437.855,146.012 437.219,146.012C435.31,146.012 434.174,144.785 433.81,142.331L433.81,141.786C433.81,139.786 435.083,138.014 437.628,136.469L439.4,136.196ZM456.987,136.196C458.532,136.196 459.441,137.242 459.714,139.332C459.714,140.877 458.805,142.604 456.987,144.513C455.715,145.512 454.579,146.012 453.579,146.012C452.034,146.012 451.125,144.967 450.852,142.877C450.852,140.332 452.215,138.241 454.942,136.605C455.487,136.333 456.169,136.196 456.987,136.196ZM472.802,136.196C474.256,136.196 474.983,137.014 474.983,138.65C474.983,141.377 473.256,143.74 469.802,145.74L468.439,146.012C467.348,146.012 466.667,145.149 466.394,143.422C466.394,141.15 467.757,138.968 470.484,136.878C471.393,136.424 472.165,136.196 472.802,136.196ZM486.844,136.196C487.753,136.196 488.253,136.742 488.344,137.832L488.344,138.241C488.344,140.514 486.753,142.922 483.572,145.467C482.754,145.83 482.118,146.012 481.663,146.012C480.754,146.012 480.3,145.285 480.3,143.831C480.3,141.922 481.663,139.65 484.39,137.014C485.481,136.469 486.299,136.196 486.844,136.196ZM498.569,136.196C499.205,136.196 499.568,136.651 499.659,137.56C499.659,139.105 498.523,141.195 496.251,143.831C494.797,145.285 493.615,146.012 492.706,146.012C492.252,146.012 491.979,145.558 491.888,144.649C491.979,142.831 493.07,140.695 495.16,138.241C496.614,136.878 497.751,136.196 498.569,136.196ZM500.477,154.738L500.613,155.01C498.16,158.828 495.342,161.691 492.161,163.599L492.025,163.463L492.025,163.327C492.752,161.691 495.297,158.964 499.659,155.147L500.477,154.738ZM301.022,154.874C304.385,157.782 307.294,160.691 309.748,163.599L309.611,163.599C305.521,160.055 302.658,157.192 301.022,155.01L301.022,154.874ZM303.885,154.874L304.158,154.874C307.43,157.328 310.111,160.009 312.202,162.918L312.338,163.463L312.202,163.599C309.202,161.781 306.43,159.009 303.885,155.283L303.885,154.874ZM309.611,154.874C312.338,156.055 314.974,158.646 317.519,162.645L317.655,163.327L317.519,163.599C314.883,162.599 312.247,160.191 309.611,156.374L309.202,155.419C309.293,155.056 309.43,154.874 309.611,154.874ZM317.655,154.874C319.109,154.874 321.382,156.783 324.472,160.6C325.017,161.691 325.29,162.418 325.29,162.781C325.29,163.236 325.062,163.463 324.608,163.463C323.063,163.463 320.791,161.6 317.791,157.873C317.155,156.692 316.837,155.919 316.837,155.556C316.837,155.283 317.11,155.056 317.655,154.874ZM494.751,154.874C495.024,154.965 495.16,155.101 495.16,155.283C494.524,157.464 492.206,160.055 488.207,163.054L487.117,163.599L486.844,163.19L486.708,163.19C487.798,160.464 490.298,157.737 494.206,155.01L494.751,154.874ZM503.34,154.874L503.34,155.01C501.704,157.282 498.841,160.145 494.751,163.599L494.615,163.599C496.705,161.145 499.614,158.237 503.34,154.874ZM328.153,155.01C329.698,155.01 331.652,156.51 334.015,159.509C334.833,160.691 335.242,161.691 335.242,162.509C335.242,163.054 334.878,163.372 334.151,163.463C332.515,163.463 330.47,161.918 328.016,158.828C327.289,157.646 326.926,156.737 326.926,156.101C326.926,155.374 327.335,155.01 328.153,155.01ZM340.423,155.01C342.604,155.01 344.694,156.828 346.694,160.464L346.967,161.963C346.967,162.963 346.421,163.463 345.331,163.463C343.604,163.463 341.695,162.009 339.605,159.1C339.059,158.191 338.787,157.328 338.787,156.51C338.787,155.51 339.332,155.01 340.423,155.01ZM354.465,155.01C356.283,155.01 358.055,156.374 359.782,159.1C360.145,160.009 360.327,160.736 360.327,161.282C360.327,162.736 359.6,163.463 358.146,163.463C356.237,163.463 354.374,161.963 352.556,158.964C352.284,158.237 352.147,157.646 352.147,157.192C352.147,155.737 352.92,155.01 354.465,155.01ZM369.461,155.01C371.825,155.01 373.597,156.464 374.778,159.373L374.915,160.6C374.642,162.509 373.733,163.463 372.188,163.463C370.098,163.463 368.371,161.963 367.007,158.964L366.735,157.737C366.917,155.919 367.825,155.01 369.461,155.01ZM385.685,155.01C387.866,155.01 389.411,156.328 390.32,158.964L390.457,159.646C390.093,162.19 388.912,163.463 386.912,163.463C385.003,163.463 383.504,162.19 382.413,159.646L382.277,158.146C382.277,156.328 383.413,155.283 385.685,155.01ZM402.181,155.01C404.544,155.01 405.908,156.419 406.271,159.237C405.726,162.054 404.317,163.463 402.045,163.463C400.318,163.463 399.091,162.372 398.364,160.191L398.091,158.964C398.091,157.419 399,156.146 400.818,155.147L402.181,155.01ZM418.814,155.01C420.995,155.192 422.086,156.283 422.086,158.282L422.086,158.555C422.086,160.645 420.859,162.236 418.405,163.327L417.178,163.463C415.451,163.463 414.406,162.236 414.042,159.782C414.588,156.601 416.178,155.01 418.814,155.01ZM434.901,155.01C436.719,155.01 437.628,155.919 437.628,157.737C437.628,160.009 436.219,161.827 433.401,163.19L432.038,163.463C430.675,163.463 429.811,162.509 429.448,160.6C429.448,158.6 430.675,156.828 433.129,155.283C433.765,155.101 434.356,155.01 434.901,155.01ZM450.17,155.01C451.625,155.101 452.352,155.828 452.352,157.192C452.352,159.1 450.898,161.054 447.989,163.054L446.217,163.463C444.944,163.463 444.217,162.736 444.035,161.282C444.035,159.464 445.172,157.646 447.444,155.828C448.353,155.283 449.262,155.01 450.17,155.01ZM464.213,155.01C465.122,155.01 465.621,155.601 465.712,156.783C465.712,158.055 464.531,159.782 462.168,161.963C460.986,162.963 459.85,163.463 458.759,163.463C458.032,163.463 457.578,162.918 457.396,161.827C457.396,160.009 458.759,158.055 461.486,155.965C462.304,155.328 463.213,155.01 464.213,155.01ZM476.483,155.01C477.119,155.01 477.437,155.374 477.437,156.101L477.437,156.237C477.437,157.964 475.756,160.1 472.393,162.645C471.575,163.19 470.848,163.463 470.211,163.463C469.575,163.463 469.212,163.099 469.121,162.372C470.03,159.555 471.756,157.282 474.301,155.556C475.21,155.192 475.937,155.01 476.483,155.01ZM486.708,155.01L486.98,155.01C487.162,155.01 487.344,155.237 487.526,155.692C486.708,158.237 484.799,160.509 481.8,162.509C480.982,163.145 480.3,163.463 479.755,163.463L479.482,163.463C479.209,163.281 479.073,163.054 479.073,162.781C479.982,159.873 482.163,157.328 485.617,155.147L486.708,155.01ZM317.928,170.688L318.064,170.688C322.518,173.87 325.79,176.278 327.88,177.914L327.744,177.914C324.108,175.733 320.836,173.324 317.928,170.688ZM486.299,170.688L486.435,170.688C483.436,173.324 480.164,175.733 476.619,177.914L476.483,177.914C479.027,175.915 482.299,173.506 486.299,170.688ZM320.382,170.825L320.654,170.825C322.745,171.915 325.971,174.233 330.334,177.778L330.334,178.05C327.607,177.051 324.381,174.778 320.654,171.234L320.382,170.961L320.382,170.825ZM483.708,170.825L483.981,170.825L483.981,170.961C481.618,173.415 479.118,175.369 476.483,176.823C475.21,177.641 474.392,178.05 474.029,178.05L474.029,177.914C477.755,174.642 480.982,172.279 483.708,170.825ZM325.153,170.961L325.29,170.961C326.653,171.052 329.561,173.097 334.015,177.096L334.56,177.778L334.56,177.914L334.288,177.914L334.288,178.05C331.288,177.051 328.244,174.824 325.153,171.37L325.153,170.961ZM331.834,170.961L331.97,170.961C334.424,171.506 337.151,173.506 340.15,176.96C340.423,177.232 340.559,177.46 340.559,177.641L340.559,177.914L340.286,177.914L340.286,178.05C338.832,177.96 336.378,176.414 332.924,173.415C332.015,172.415 331.561,171.688 331.561,171.234L331.834,170.961ZM340.559,170.961C342.922,171.416 345.285,173.052 347.648,175.869C348.103,176.596 348.33,177.142 348.33,177.505C348.33,177.778 348.148,177.914 347.785,177.914L347.785,178.05C344.876,177.232 342.331,175.415 340.15,172.597L339.877,171.506C339.968,171.143 340.195,170.961 340.559,170.961ZM350.92,170.961C352.465,170.961 354.374,172.279 356.646,174.915C357.282,175.733 357.601,176.551 357.601,177.369L357.601,177.505C357.51,177.778 357.282,177.914 356.919,177.914L356.51,177.914C354.965,177.914 352.965,176.551 350.511,173.824C350.057,173.097 349.784,172.415 349.693,171.779C349.693,171.325 350.102,171.052 350.92,170.961ZM362.372,170.961C364.281,170.961 366.144,172.37 367.962,175.187L368.371,176.551C368.371,177.46 367.871,177.914 366.871,177.914C365.144,177.914 363.327,176.596 361.418,173.96C361.054,173.233 360.873,172.688 360.873,172.324C360.873,171.506 361.372,171.052 362.372,170.961ZM375.187,170.961C376.096,170.961 377.142,171.461 378.323,172.461C379.505,173.733 380.095,174.869 380.095,175.869L380.095,176.142C379.914,177.323 379.323,177.914 378.323,177.914C376.233,177.914 374.551,176.596 373.279,173.96L373.006,172.87C373.006,171.688 373.733,171.052 375.187,170.961ZM388.548,170.961C390.366,170.961 391.684,172.188 392.502,174.642L392.502,175.324C392.411,177.051 391.547,177.914 389.911,177.914C388.185,177.914 386.867,176.687 385.958,174.233L385.821,173.415C385.821,172.052 386.73,171.234 388.548,170.961ZM402.318,170.961C403.772,170.961 404.817,171.87 405.453,173.688L405.453,174.369C405.181,176.733 404.045,177.914 402.045,177.914C400.318,177.914 399.273,176.687 398.909,174.233C398.909,172.415 400.045,171.325 402.318,170.961ZM416.087,170.961C417.541,170.961 418.359,171.825 418.541,173.551C417.905,176.46 416.496,177.914 414.315,177.914C412.861,177.914 412.043,177.005 411.861,175.187L411.861,175.051C411.861,173.324 412.952,172.006 415.133,171.097L416.087,170.961ZM429.448,170.961C430.72,170.961 431.357,171.643 431.357,173.006C431.357,174.733 430.039,176.278 427.403,177.641L426.176,177.914C424.903,177.914 424.267,177.232 424.267,175.869C424.267,173.96 425.585,172.415 428.221,171.234L429.448,170.961ZM442.127,170.961C442.945,170.961 443.399,171.416 443.49,172.324C443.49,174.142 441.854,175.915 438.582,177.641L437.355,177.914C436.537,177.914 436.128,177.46 436.128,176.551C436.128,174.824 437.491,173.097 440.218,171.37C441.036,171.097 441.672,170.961 442.127,170.961ZM453.715,170.961C454.351,171.052 454.669,171.325 454.669,171.779C454.669,173.506 452.897,175.415 449.352,177.505L447.716,178.05C447.08,178.05 446.762,177.732 446.762,177.096C446.762,175.551 448.444,173.642 451.806,171.37L453.715,170.961ZM463.804,170.961C464.167,170.961 464.394,171.097 464.485,171.37L464.485,171.643C464.485,173.006 462.44,174.96 458.35,177.505L456.714,178.05C456.351,178.05 456.124,177.869 456.033,177.505C456.033,176.324 457.805,174.415 461.35,171.779C462.531,171.234 463.349,170.961 463.804,170.961ZM472.529,170.961L472.802,171.097L472.802,171.234C472.165,173.142 469.984,175.142 466.258,177.232C465.349,177.687 464.713,177.914 464.349,177.914L463.804,177.914L463.804,177.641C464.349,176.278 466.439,174.324 470.075,171.779C471.166,171.234 471.984,170.961 472.529,170.961ZM479.073,170.961L479.209,170.961L479.346,171.234C478.437,172.597 477.164,173.824 475.528,174.915C473.438,176.46 471.666,177.505 470.211,178.05L469.802,177.914L469.802,177.778C472.711,174.688 475.347,172.597 477.71,171.506C478.255,171.143 478.709,170.961 479.073,170.961ZM339.605,183.776L339.741,183.776C340.105,183.776 343.649,185.503 350.375,188.957L350.375,189.093L350.239,189.093C349.33,189.093 345.785,187.412 339.605,184.049L339.605,183.776ZM343.013,183.776L343.149,183.776C344.149,183.776 347.603,185.503 353.511,188.957L353.511,189.093L353.238,189.093C351.057,188.639 347.785,187.003 343.422,184.185L343.013,183.913L343.013,183.776ZM348.194,183.776C349.557,183.776 352.602,185.367 357.328,188.548L357.601,188.957L357.601,189.23C355.965,188.866 353.102,187.457 349.012,185.003L348.194,184.049L348.194,183.776ZM355.01,183.776C357.282,184.231 360.009,185.867 363.19,188.684L363.327,188.684L363.327,189.093C361.418,189.093 358.6,187.639 354.874,184.731L354.601,183.913L355.01,183.776ZM362.918,183.776C364.644,183.958 366.871,185.367 369.598,188.003L370.007,188.684C369.916,188.957 369.734,189.093 369.461,189.093C366.371,188.185 364.008,186.73 362.372,184.731L362.236,184.185L362.236,184.049C362.236,183.958 362.463,183.867 362.918,183.776ZM371.779,183.776C373.233,183.776 375.006,184.958 377.096,187.321L377.641,188.412C377.641,188.866 377.323,189.093 376.687,189.093C375.324,189.093 373.506,187.912 371.234,185.549C370.961,185.185 370.825,184.822 370.825,184.458L370.825,184.322C371.007,183.958 371.325,183.776 371.779,183.776ZM422.904,183.776C423.54,183.776 423.995,184.14 424.267,184.867C424.267,186.049 423.04,187.367 420.586,188.821L419.496,189.093C418.95,189.093 418.587,188.775 418.405,188.139C418.405,186.685 419.586,185.322 421.95,184.049L422.904,183.776ZM432.72,183.776C433.174,183.867 433.492,184.095 433.674,184.458C433.674,185.458 432.311,186.776 429.584,188.412C428.584,188.866 427.903,189.093 427.539,189.093C427.085,189.093 426.858,188.866 426.858,188.412L426.858,188.275C427.312,186.912 428.721,185.549 431.084,184.185L432.72,183.776ZM441.581,183.776C441.945,183.867 442.127,183.958 442.127,184.049L442.127,184.185C442.127,185.458 439.991,187.048 435.719,188.957L434.901,189.093L434.492,188.957L434.492,188.684C434.856,187.321 436.901,185.776 440.627,184.049L441.581,183.776ZM449.489,183.776L449.761,183.913C449.761,185.094 447.307,186.73 442.399,188.821L441.172,189.093L441.036,188.957C442.309,187.412 444.172,186.003 446.626,184.731C448.08,184.095 449.034,183.776 449.489,183.776ZM456.169,183.776L456.169,184.049C454.624,185.867 451.488,187.594 446.762,189.23L446.762,188.957C448.125,187.685 450.579,186.14 454.124,184.322L456.169,183.776ZM461.35,183.776L461.35,183.913C460.35,184.913 457.305,186.549 452.215,188.821L450.852,189.093C454.579,186.73 457.805,185.003 460.532,183.913L461.35,183.776ZM464.758,183.776L464.758,184.049C461.032,186.23 457.487,187.912 454.124,189.093L453.988,189.093C458.987,186.276 462.577,184.504 464.758,183.776ZM381.322,183.913L381.459,183.913C383.367,183.913 384.867,185.231 385.958,187.866L385.958,188.139C385.867,188.775 385.458,189.093 384.731,189.093C383.64,189.093 382.322,188.23 380.777,186.503C380.323,185.958 380.095,185.412 380.095,184.867C380.095,184.231 380.504,183.913 381.322,183.913ZM391.547,183.913L391.684,183.913C393.501,183.913 394.638,185.094 395.092,187.457C394.819,188.548 394.274,189.093 393.456,189.093C392.093,189.093 390.957,188.139 390.048,186.23L389.911,185.276C389.911,184.458 390.457,184.004 391.547,183.913ZM401.909,183.913L402.454,183.913C403.636,183.913 404.408,184.731 404.772,186.367C404.226,188.185 403.363,189.093 402.181,189.093C400.818,189.093 400,188.139 399.727,186.23C400,184.685 400.727,183.913 401.909,183.913ZM412.679,183.913L412.815,183.913C413.906,184.004 414.451,184.549 414.451,185.549C414.451,187.094 413.361,188.275 411.179,189.093L411.043,189.093C410.043,189.093 409.452,188.457 409.271,187.185C409.271,186.185 409.952,185.185 411.316,184.185C411.679,184.004 412.134,183.913 412.679,183.913ZM338.787,184.322L339.059,184.322L346.285,188.003L346.012,188.003C341.195,185.731 338.787,184.504 338.787,184.322ZM465.031,184.594C465.031,184.867 462.758,186.003 458.214,188.003L458.078,188.003C458.896,187.457 461.213,186.321 465.031,184.594ZM346.83,188.139L346.967,188.139L347.239,188.412L346.967,188.412L346.83,188.139ZM457.532,188.139C457.441,188.412 457.214,188.548 456.851,188.548C456.942,188.275 457.169,188.139 457.532,188.139ZM362.918,193.047L363.054,193.047L373.142,196.183L373.006,196.183L369.461,195.501L369.325,195.501L369.325,195.637C370.961,196.001 371.779,196.274 371.779,196.455L371.643,196.455C368.734,195.91 365.326,195.001 361.418,193.729L361.009,193.32L361.145,193.32L367.144,194.956L367.28,194.956L367.28,194.819C364.917,194.092 363.463,193.501 362.918,193.047ZM366.19,193.047L366.326,193.047C368.325,193.501 371.597,194.547 376.142,196.183L376.005,196.319L376.005,196.455C370.825,195.183 367.553,194.047 366.19,193.047ZM370.552,193.047L370.688,193.047C371.597,193.047 374.551,194.138 379.55,196.319L379.55,196.455L379.414,196.455C375.687,195.546 372.87,194.592 370.961,193.592C370.961,193.411 370.825,193.32 370.552,193.32L370.552,193.047ZM375.869,193.047C376.96,193.047 379.459,194.092 383.367,196.183L383.367,196.319L383.231,196.455L383.095,196.455C381.822,196.364 379.55,195.501 376.278,193.865L375.733,193.32L375.869,193.047ZM382.004,193.047C384.458,193.774 386.367,194.819 387.73,196.183L387.594,196.319L387.594,196.455C385.776,196.183 383.822,195.319 381.731,193.865L381.595,193.729L381.595,193.183L382.004,193.047ZM388.275,193.047C389.457,193.047 390.866,193.91 392.502,195.637L392.502,196.046C392.502,196.228 392.365,196.364 392.093,196.455C389.911,195.819 388.457,194.956 387.73,193.865L387.73,193.456L388.275,193.047ZM422.359,193.047C422.722,193.138 422.904,193.229 422.904,193.32C422.904,194.047 421.222,195.001 417.86,196.183L416.769,196.455L416.633,196.319L416.633,196.183C417.814,194.91 419.723,193.865 422.359,193.047ZM428.494,193.047L428.63,193.183L428.63,193.32C426.63,194.865 424.131,195.91 421.132,196.455L421.132,196.319C423.404,194.683 425.858,193.592 428.494,193.047ZM433.81,193.047L433.81,193.32C432.356,194.319 429.448,195.365 425.085,196.455L424.949,196.455C426.13,195.637 428.948,194.501 433.401,193.047L433.81,193.047ZM438.173,193.047C436.901,194.047 433.538,195.183 428.085,196.455L427.948,196.455L427.948,196.319C434.038,194.138 437.446,193.047 438.173,193.047ZM441.445,193.047C441.354,193.32 439.9,193.91 437.082,194.819L437.082,194.956L437.355,194.956L443.49,193.183L443.49,193.32C443.49,193.774 440.264,194.728 433.81,196.183L432.584,196.455C432.584,196.274 433.174,196.046 434.356,195.774L434.356,195.637L434.083,195.637L431.357,196.183L431.22,196.183L441.445,193.047ZM395.228,193.183C396.955,193.547 397.819,194.365 397.819,195.637C397.728,196.001 397.546,196.228 397.273,196.319L397.137,196.319C395.865,196.319 394.91,195.501 394.274,193.865C394.274,193.411 394.592,193.183 395.228,193.183ZM402.181,193.183C403.181,193.183 403.681,193.729 403.681,194.819C403.681,195.637 403.136,196.137 402.045,196.319C401.318,196.319 400.863,195.683 400.682,194.41C400.863,193.592 401.363,193.183 402.181,193.183ZM409.407,193.183C409.861,193.274 410.089,193.501 410.089,193.865C410.089,194.774 409.316,195.546 407.771,196.183L407.226,196.319C406.771,196.319 406.544,196.046 406.544,195.501C407.089,193.956 407.998,193.183 409.271,193.183L409.407,193.183ZM416.087,193.183C416.269,193.183 416.451,193.274 416.633,193.456C416.633,194.274 415.451,195.183 413.088,196.183L412.27,196.455L411.861,196.183C413.042,194.183 414.451,193.183 416.087,193.183ZM367.416,194.956L367.416,195.092L369.052,195.501L369.189,195.501L369.189,195.365L367.553,194.956L367.416,194.956ZM434.356,195.637L434.628,195.637L436.946,195.092L436.946,194.956L436.673,194.956L434.356,195.637ZM382.958,198.364L384.731,198.5L384.867,198.5L385.276,198.637L385.549,198.5L385.958,198.637L386.094,198.5L386.639,198.637L387.866,198.5L390.184,198.909L390.32,198.909L390.32,198.773L390.048,198.773L390.048,198.5C391.411,198.864 392.411,199.046 393.047,199.046L393.183,199.046L393.183,198.909C392.82,198.818 392.638,198.682 392.638,198.5L396.592,199.318L396.728,199.318L396.728,199.182C396.455,199.182 396.046,198.955 395.501,198.5L395.637,198.5L399.727,199.727L399.864,199.727L399.864,199.591C399.5,199.5 399.091,199.182 398.637,198.637L398.637,198.5L398.909,198.5C399.364,198.5 400.091,198.955 401.091,199.864L400.954,200L400.818,200L400,199.727C400,199.909 399.818,200 399.455,200L398.773,200L398.637,199.864L398.5,200C391.684,199.727 387.503,199.364 385.958,198.909L385.821,199.046L385.685,199.046L382.822,198.5L382.958,198.5L382.958,198.364ZM421.404,198.364L421.541,198.5L418.541,199.046L418.541,198.909C418.541,199.182 414.36,199.546 405.999,200L405.999,199.864L405.862,199.864L405.181,200L404.772,200L404.499,199.727L408.725,198.5L408.862,198.5L408.862,198.637L407.635,199.182L407.635,199.318L407.771,199.318L411.588,198.5C411.588,198.773 411.452,198.909 411.179,198.909L411.179,199.046L411.452,199.046C411.906,199.046 412.633,198.864 413.633,198.5L413.633,198.637L413.77,198.5L414.179,198.5L414.179,198.773C413.815,198.773 413.633,198.864 413.633,199.046L416.633,198.5L417.86,198.637L418.132,198.5L418.269,198.637L418.405,198.637L418.678,198.5L418.95,198.637L419.359,198.5L419.768,198.5L421.404,198.364ZM405.453,198.5L405.726,198.5L405.726,198.773C405.362,199.227 404.59,199.636 403.408,200L403.272,199.864L403.272,199.727C404.181,199 404.908,198.591 405.453,198.5ZM402.318,198.5L402.454,198.5C402.545,198.591 402.681,198.818 402.863,199.182C402.863,199.364 402.636,199.546 402.181,199.727C402,199.727 401.772,199.546 401.5,199.182C401.591,198.728 401.863,198.5 402.318,198.5Z" style="fill:white;fill-rule:nonzero;stroke:white;stroke-width:0.98px;"/>
        <path d="M572.597,-62.986L572.597,200L565.781,200L565.781,-79.482L756.646,88.889L756.646,-72.665L763.463,-72.665L763.463,105.385L572.597,-62.986ZM596.455,-12.134L596.455,200L593.047,200L593.047,-20.314L783.913,148.057L783.913,-72.665L787.321,-72.665L787.321,156.374L596.455,-12.134ZM620.314,38.582L620.314,200L616.905,200L616.905,30.539L807.771,198.909L807.771,-72.665L811.179,-72.665L811.179,206.817L620.314,38.582Z" style="fill:white;fill-rule:nonzero;stroke:white;stroke-width:0.98px;"/>
        <path d="M1056.58,-65.849L838.446,-65.849L838.446,-72.665L1056.58,-72.665L1056.58,-65.849ZM838.446,-41.99L838.446,-45.399L1056.58,-45.399L1056.58,-41.99L838.446,-41.99ZM927.062,-4.499L927.062,200L920.245,200L920.245,-4.499L927.062,-4.499ZM974.778,200L971.37,200L971.37,-4.499L974.778,-4.363L974.778,200ZM950.92,200L947.512,200L947.512,-4.363L950.92,-4.363L950.92,200ZM838.446,-18.132L838.446,-21.541L1056.58,-21.541L1056.58,-18.132L838.446,-18.132Z" style="fill:white;fill-rule:nonzero;stroke:white;stroke-width:0.98px;"/>
        <path d="M1070.21,200L1209.95,-79.482L1349.83,200L1342.06,200L1209.95,-64.213L1077.85,200L1070.21,200ZM1288.89,200L1210.09,42.399L1131.29,200L1127.34,200L1209.95,34.765L1292.57,200L1288.89,200ZM1315.47,200L1209.95,-10.907L1104.57,200L1100.75,200L1209.95,-18.405L1319.29,200L1315.47,200Z" style="fill:white;fill-rule:nonzero;stroke:white;stroke-width:0.98px;"/>
        <path d="M1574.78,138.65L1577.23,140.968C1570.51,147.694 1562.83,153.465 1554.19,158.282C1536.83,167.916 1518.7,172.733 1499.8,172.733C1480.89,172.733 1462.78,167.939 1445.47,158.35C1428.15,148.762 1414.7,135.333 1405.11,118.064C1395.52,100.795 1390.73,82.708 1390.73,63.804C1390.73,44.717 1395.62,26.449 1405.38,8.998C1415.16,-8.453 1428.72,-21.881 1446.08,-31.288C1463.44,-40.695 1481.35,-45.399 1499.8,-45.399C1518.06,-45.399 1535.88,-40.718 1553.24,-31.357C1562.24,-26.539 1570.19,-20.632 1577.1,-13.633L1574.78,-11.179C1568.05,-17.996 1560.33,-23.722 1551.6,-28.357C1534.79,-37.446 1517.52,-41.99 1499.8,-41.99C1481.89,-41.99 1464.53,-37.446 1447.72,-28.357C1430.9,-19.268 1417.77,-6.249 1408.32,10.702C1398.86,27.653 1394.14,45.353 1394.14,63.804C1394.14,82.072 1398.77,99.591 1408.04,116.36C1417.31,133.129 1430.36,146.149 1447.17,155.419C1463.99,164.69 1481.53,169.325 1499.8,169.325C1518.06,169.325 1535.61,164.69 1552.42,155.419C1560.87,150.784 1568.33,145.194 1574.78,138.65ZM1591.68,155.419L1596.59,160.327C1588.14,168.78 1578.51,176.005 1567.69,182.004C1546.06,194.001 1523.38,200 1499.66,200C1476.12,200 1453.53,194.001 1431.9,182.004C1410.27,170.007 1393.46,153.215 1381.46,131.629C1369.46,110.043 1363.46,87.435 1363.46,63.804C1363.46,39.991 1369.55,17.155 1381.73,-4.703C1393.91,-26.562 1410.86,-43.354 1432.58,-55.078C1454.31,-66.803 1476.66,-72.665 1499.66,-72.665C1522.56,-72.665 1544.88,-66.803 1566.6,-55.078C1577.78,-49.08 1587.73,-41.672 1596.45,-32.856L1591.68,-28.085C1583.41,-36.446 1573.96,-43.49 1563.33,-49.216C1542.69,-60.304 1521.47,-65.849 1499.66,-65.849C1477.85,-65.849 1456.62,-60.282 1435.99,-49.148C1415.36,-38.014 1399.25,-22.063 1387.66,-1.295C1376.07,19.473 1370.28,41.172 1370.28,63.804C1370.28,86.253 1375.98,107.726 1387.39,128.221C1398.8,148.716 1414.77,164.667 1435.31,176.074C1455.85,187.48 1477.3,193.183 1499.66,193.183C1522.2,193.183 1543.74,187.457 1564.28,176.005C1574.55,170.279 1583.69,163.417 1591.68,155.419ZM1560.33,3.272L1557.87,5.726C1552.6,0.454 1546.65,-3.999 1540.01,-7.635C1526.93,-14.633 1513.52,-18.132 1499.8,-18.132C1485.98,-18.132 1472.55,-14.61 1459.51,-7.566C1446.47,-0.523 1436.29,9.543 1428.97,22.631C1421.65,35.719 1418,49.398 1418,63.667C1418,77.937 1421.59,91.547 1428.77,104.499C1435.95,117.451 1446.04,127.516 1459.03,134.697C1472.03,141.877 1485.62,145.467 1499.8,145.467C1513.97,145.467 1527.56,141.877 1540.56,134.697C1547.1,131.061 1552.87,126.744 1557.87,121.745L1560.19,124.063C1555.01,129.334 1549.01,133.833 1542.19,137.56C1528.65,145.103 1514.52,148.875 1499.8,148.875C1485.07,148.875 1470.94,145.126 1457.4,137.628C1443.85,130.13 1433.33,119.632 1425.84,106.135C1418.34,92.638 1414.59,78.482 1414.59,63.667C1414.59,48.853 1418.4,34.606 1426.04,20.927C1433.67,7.248 1444.26,-3.249 1457.81,-10.566C1471.35,-17.882 1485.34,-21.541 1499.8,-21.541C1514.07,-21.541 1528.02,-17.905 1541.65,-10.634C1548.65,-6.817 1554.87,-2.181 1560.33,3.272Z" style="fill:white;fill-rule:nonzero;stroke:white;stroke-width:0.98px;"/>
        <path d="M1833.67,-65.849L1615.54,-65.849L1615.54,-72.665L1833.67,-72.665L1833.67,-65.849ZM1615.54,-41.99L1615.54,-45.399L1833.67,-45.399L1833.67,-41.99L1615.54,-41.99ZM1704.16,-4.499L1704.16,200L1697.34,200L1697.34,-4.499L1704.16,-4.499ZM1751.88,200L1748.47,200L1748.47,-4.499L1751.88,-4.363L1751.88,200ZM1728.02,200L1724.61,200L1724.61,-4.363L1728.02,-4.363L1728.02,200ZM1615.54,-18.132L1615.54,-21.541L1833.67,-21.541L1833.67,-18.132L1615.54,-18.132Z" style="fill:white;fill-rule:nonzero;stroke:white;stroke-width:0.98px;"/>
    </g>
</svg>
