<?xml version="1.0" encoding="UTF-8" standalone="no"?>
<!DOCTYPE svg PUBLIC "-//W3C//DTD SVG 1.1//EN" "http://www.w3.org/Graphics/SVG/1.1/DTD/svg11.dtd">
<svg width="100%" height="100%" viewBox="0 0 1920 28" version="1.1" xmlns="http://www.w3.org/2000/svg" xmlns:xlink="http://www.w3.org/1999/xlink" xml:space="preserve" xmlns:serif="http://www.serif.com/" style="fill-rule:evenodd;clip-rule:evenodd;stroke-linejoin:round;stroke-miterlimit:2;">
    <g transform="matrix(1.24819,0,0,1.24819,-485.488,-808.242)">
        <g transform="matrix(3.96267,0,0,3.96267,-219.713,5.28622)">
            <path d="M234.24,162.184L237.197,162.184L237.197,163.5L235.887,163.5L235.887,164.025L237.093,164.025L237.093,165.134L235.887,165.134L235.887,166.722L234.24,166.722L234.24,162.184Z" style="fill:white;fill-rule:nonzero;"/>
            <path d="M239.433,166.832C238.811,166.832 238.343,166.669 238.03,166.343C237.717,166.017 237.56,165.568 237.56,164.998L237.56,162.184L239.07,162.184L239.07,165.023C239.07,165.149 239.103,165.244 239.168,165.309C239.233,165.374 239.321,165.406 239.433,165.406C239.555,165.406 239.645,165.371 239.706,165.302C239.766,165.233 239.797,165.14 239.797,165.023L239.797,162.184L241.307,162.184L241.307,164.998C241.307,165.603 241.14,166.06 240.805,166.369C240.47,166.678 240.013,166.832 239.433,166.832Z" style="fill:white;fill-rule:nonzero;"/>
            <path d="M241.793,162.184L244.75,162.184L244.75,163.5L243.44,163.5L243.44,163.876L244.646,163.876L244.646,164.985L243.44,164.985L243.44,165.406L244.815,165.406L244.815,166.722L241.793,166.722L241.793,162.184Z" style="fill:white;fill-rule:nonzero;"/>
            <path d="M245.21,162.184L246.857,162.184L246.857,165.406L248.128,165.406L248.128,166.722L245.21,166.722L245.21,162.184Z" style="fill:white;fill-rule:nonzero;"/>
            <path d="M249.917,162.184L252.873,162.184L252.873,163.5L251.564,163.5L251.564,163.876L252.77,163.876L252.77,164.985L251.564,164.985L251.564,165.406L252.938,165.406L252.938,166.722L249.917,166.722L249.917,162.184Z" style="fill:white;fill-rule:nonzero;"/>
            <path d="M254.397,164.453L253.042,162.184L254.734,162.184L255.259,163.202L255.791,162.184L257.483,162.184L256.122,164.453L257.483,166.722L255.791,166.722L255.259,165.704L254.734,166.722L253.042,166.722L254.397,164.453Z" style="fill:white;fill-rule:nonzero;"/>
            <path d="M259.24,166.832C258.821,166.832 258.445,166.733 258.112,166.534C257.779,166.335 257.519,166.055 257.331,165.695C257.143,165.334 257.049,164.92 257.049,164.453C257.049,163.986 257.143,163.572 257.331,163.211C257.519,162.851 257.779,162.571 258.112,162.372C258.445,162.173 258.821,162.074 259.24,162.074C259.672,162.074 260.066,162.177 260.42,162.385L260.42,163.921C260.29,163.792 260.163,163.689 260.038,163.613C259.912,163.538 259.757,163.5 259.571,163.5C259.303,163.5 259.09,163.587 258.932,163.763C258.774,163.938 258.695,164.168 258.695,164.453C258.695,164.738 258.773,164.968 258.929,165.143C259.084,165.318 259.294,165.406 259.558,165.406C259.761,165.406 259.94,165.354 260.096,165.25C260.251,165.147 260.36,165.013 260.42,164.848L260.42,166.528C260.07,166.731 259.677,166.832 259.24,166.832Z" style="fill:white;fill-rule:nonzero;"/>
            <path d="M260.913,162.184L263.869,162.184L263.869,163.5L262.56,163.5L262.56,163.876L263.765,163.876L263.765,164.985L262.56,164.985L262.56,165.406L263.934,165.406L263.934,166.722L260.913,166.722L260.913,162.184Z" style="fill:white;fill-rule:nonzero;"/>
            <path d="M264.33,162.184L265.976,162.184L265.976,165.406L267.247,165.406L267.247,166.722L264.33,166.722L264.33,162.184Z" style="fill:white;fill-rule:nonzero;"/>
            <path d="M267.416,162.184L269.062,162.184L269.062,165.406L270.333,165.406L270.333,166.722L267.416,166.722L267.416,162.184Z" style="fill:white;fill-rule:nonzero;"/>
            <path d="M270.502,162.184L273.458,162.184L273.458,163.5L272.148,163.5L272.148,163.876L273.354,163.876L273.354,164.985L272.148,164.985L272.148,165.406L273.523,165.406L273.523,166.722L270.502,166.722L270.502,162.184Z" style="fill:white;fill-rule:nonzero;"/>
            <path d="M273.918,162.184L275.611,162.184L276.499,164.181L276.499,162.184L278.094,162.184L278.094,166.722L276.414,166.722L275.513,164.699L275.513,166.722L273.918,166.722L273.918,162.184Z" style="fill:white;fill-rule:nonzero;"/>
            <path d="M280.512,166.832C280.093,166.832 279.717,166.733 279.384,166.534C279.051,166.335 278.791,166.055 278.603,165.695C278.415,165.334 278.321,164.92 278.321,164.453C278.321,163.986 278.415,163.572 278.603,163.211C278.791,162.851 279.051,162.571 279.384,162.372C279.717,162.173 280.093,162.074 280.512,162.074C280.944,162.074 281.337,162.177 281.692,162.385L281.692,163.921C281.562,163.792 281.435,163.689 281.309,163.613C281.184,163.538 281.028,163.5 280.843,163.5C280.575,163.5 280.362,163.587 280.204,163.763C280.046,163.938 279.967,164.168 279.967,164.453C279.967,164.738 280.045,164.968 280.201,165.143C280.356,165.318 280.566,165.406 280.83,165.406C281.033,165.406 281.212,165.354 281.368,165.25C281.523,165.147 281.631,165.013 281.692,164.848L281.692,166.528C281.342,166.731 280.948,166.832 280.512,166.832Z" style="fill:white;fill-rule:nonzero;"/>
            <path d="M282.185,162.184L285.141,162.184L285.141,163.5L283.831,163.5L283.831,163.876L285.037,163.876L285.037,164.985L283.831,164.985L283.831,165.406L285.206,165.406L285.206,166.722L282.185,166.722L282.185,162.184Z" style="fill:white;fill-rule:nonzero;"/>
        </g>
        <g transform="matrix(3.96267,0,0,3.96267,-219.713,451.883)">
            <rect x="287.04" y="51.096" width="254.739" height="1.312" style="fill:white;"/>
        </g>
        <g transform="matrix(3.96267,0,0,3.96267,-219.713,450.678)">
            <rect x="153.6" y="51.248" width="78.819" height="1.312" style="fill:white;"/>
        </g>
        <g transform="matrix(3.96267,0,0,3.96267,-219.713,461.655)">
            <path d="M153.6,52.56L157.682,48.478L153.6,48.478L153.6,52.56Z" style="fill:white;"/>
        </g>
    </g>
</svg>
