<?xml version="1.0" encoding="UTF-8" standalone="no"?>
<!DOCTYPE svg PUBLIC "-//W3C//DTD SVG 1.1//EN" "http://www.w3.org/Graphics/SVG/1.1/DTD/svg11.dtd">
<svg width="100%" height="100%" viewBox="0 0 123 108" version="1.1" xmlns="http://www.w3.org/2000/svg" xmlns:xlink="http://www.w3.org/1999/xlink" xml:space="preserve" xmlns:serif="http://www.serif.com/" style="fill-rule:evenodd;clip-rule:evenodd;stroke-linejoin:round;stroke-miterlimit:2;">
    <g>
        <path d="M3.9,7.9C1.8,7.9 0,6.1 0,3.9C0,1.8 1.8,0 3.9,0L14.5,0C18.1,0.1 21.3,0.8 24,2.5C27,4.4 29.2,7.3 30.4,11.6C30.4,11.7 30.4,11.8 30.5,11.9L31.5,15.9L119,15.9C121.2,15.9 122.9,17.7 122.9,19.8C122.9,20.2 122.8,20.6 122.7,21L112.5,62.1C112.1,63.9 110.5,65.1 108.7,65.1L44.7,65.1C46.1,70.3 47.5,73.1 49.4,74.4C51.7,75.9 55.7,76 62.4,75.9L107.7,75.9C109.9,75.9 111.6,77.7 111.6,79.8C111.6,82 109.8,83.7 107.7,83.7L62.5,83.7C54.2,83.8 49.1,83.6 45,80.9C40.8,78.1 38.6,73.3 36.4,64.6L23,13.9C23,13.8 23,13.8 22.9,13.7C22.3,11.5 21.3,10 19.9,9.2C18.5,8.3 16.6,7.9 14.4,7.9L3.9,7.9ZM96,88.3C101.3,88.3 105.6,92.6 105.6,97.9C105.6,103.2 101.3,107.5 96,107.5C90.7,107.5 86.4,103.2 86.4,97.9C86.4,92.6 90.7,88.3 96,88.3ZM53.9,88.3C59.2,88.3 63.5,92.6 63.5,97.9C63.5,103.2 59.2,107.5 53.9,107.5C48.6,107.5 44.3,103.2 44.3,97.9C44.3,92.6 48.6,88.3 53.9,88.3ZM33.7,23.7L42.6,57.2L105.7,57.2L114,23.7L33.7,23.7Z" style="fill:white;fill-rule:nonzero;"/>
    </g>
</svg>
