<?xml version="1.0" encoding="UTF-8" standalone="no"?>
<!DOCTYPE svg PUBLIC "-//W3C//DTD SVG 1.1//EN" "http://www.w3.org/Graphics/SVG/1.1/DTD/svg11.dtd">
<svg width="100%" height="100%" viewBox="0 0 1200 400" version="1.1" xmlns="http://www.w3.org/2000/svg" xmlns:xlink="http://www.w3.org/1999/xlink" xml:space="preserve" xmlns:serif="http://www.serif.com/" style="fill-rule:evenodd;clip-rule:evenodd;stroke-linejoin:round;stroke-miterlimit:2;">
    <g transform="matrix(1,0,0,1,16,-1.13687e-13)">
        <g transform="matrix(5.80935,-1.3325,-1.3325,-5.80935,-690.304,4695.09)">
            <g id="g1972">
                <path id="polyline304" d="M424.96,655.64L424.96,673.75L425.2,674.95L425.44,675.55L425.8,676.15L426.52,677.1L426.99,677.58L427.47,677.94L428.07,678.3L428.66,678.54L429.26,678.66L429.98,678.77L430.58,678.77L431.18,678.66L431.89,678.54L432.49,678.3L432.73,678.18L440.17,674.71L440.17,686.23L443.89,692.7L447.73,686.23L447.73,670.87L447.49,669.67L447.25,669.07L446.89,668.47L446.17,667.52L445.7,667.04L445.22,666.68L443.42,665.96L442.7,665.84L442.11,665.84L441.51,665.96L440.79,666.08L440.19,666.32L439.95,666.43L432.52,669.91L432.52,655.63L428.8,659.35L424.96,655.63" style="fill:rgb(172,0,0);fill-rule:nonzero;"/>
            </g>
        </g>
        <g id="g2097" transform="matrix(3307.19,0,0,3307.19,-770.587,-1882.05)">
            <g id="polygon974" transform="matrix(0.0017361,0,0,-0.0017361,-0.188175,1.25745)">
                <path d="M410.2,326.84L468.52,326.84L447.28,363.44L442,360.92L440.92,353.6L442,352.04L440.44,350.96L441.4,340.53L440.08,339.45L438.29,329.49L428.33,329.49L432.53,331.53L432.77,334.77L430.37,336.81L426.65,338.12L425.09,337.29L423.05,337.64L419.33,333.69L420.89,330.81L422.45,330.81L423.77,329.49L411.65,329.49L410.21,326.86L410.2,326.84Z" style="fill:rgb(172,0,0);fill-rule:nonzero;"/>
            </g>
            <g id="polygon976" transform="matrix(0.0017361,0,0,-0.0017361,-0.188175,1.25745)">
                <path d="M427,340.76L429.88,342.55L430.6,345.19L428.8,346.99L427.72,346.27L426.64,346.99L424.01,344.95L424.37,343.39L424.61,341.47L427,340.75L427,340.76Z" style="fill:rgb(172,0,0);fill-rule:nonzero;"/>
            </g>
            <g id="polygon978" transform="matrix(0.0017361,0,0,-0.0017361,-0.188175,1.25745)">
                <path d="M436.72,352.04L436.72,349.64L437.32,348.8L435.16,346.28L434.08,346.28L433,344.6L430.96,346.52L431.2,349.88L434.32,352.52L436.72,352.04Z" style="fill:rgb(172,0,0);fill-rule:nonzero;"/>
            </g>
            <g id="polyline980" transform="matrix(0.0017361,0,0,-0.0017361,-0.188175,1.25745)">
                <path d="M441.16,361.16L444.64,365.36L443.08,366.67L442.48,366.31L440.44,367.63L436.24,366.91L435.88,365.11L434.09,363.8L435.64,360.56L441.16,361.16" style="fill:rgb(172,0,0);fill-rule:nonzero;"/>
            </g>
        </g>
        <g transform="matrix(5.6621,1.04121,1.04121,-5.6621,-605.313,1953.17)">
            <g id="g2019">
                <path id="polygon740" d="M155.8,359L157.48,358.04L157.48,356.36L159.04,357.2L160.72,356.25L160.72,354.33L157.48,352.41L157.48,347.25L162.04,349.89L162.04,353.49L163.72,354.57L165.4,353.49L165.4,351.81L166.84,352.65L168.63,351.69L168.63,349.77L167.07,348.93L168.63,347.98L168.63,346.06L166.84,345.1L163.72,346.9L159.28,344.38L163.72,341.74L166.84,343.66L168.63,342.58L168.63,340.66L167.07,339.82L168.63,338.98L168.63,336.95L166.84,335.99L165.4,336.83L165.4,335.15L163.72,334.19L162.04,335.15L162.04,338.87L157.48,341.39L157.48,336.23L160.72,334.43L160.72,332.52L159.04,331.56L157.48,332.4L157.48,330.6L155.8,329.64L154.12,330.6L154.12,332.4L152.68,331.56L151,332.52L151,334.43L154.12,336.23L154.12,341.39L149.68,338.87L149.68,335.15L148,334.19L146.32,335.15L146.32,336.83L144.77,335.99L143.09,336.95L143.09,338.98L144.65,339.82L143.09,340.66L143.09,342.58L144.77,343.66L148,341.74L152.44,344.38L148,346.9L144.77,345.1L143.09,346.06L143.09,347.98L144.65,348.93L143.09,349.77L143.09,351.69L144.77,352.65L146.32,351.81L146.32,353.49L148,354.57L149.68,353.49L149.68,349.89L154.12,347.25L154.12,352.41L151,354.33L151,356.25L152.68,357.2L154.12,356.36L154.12,358.04L155.8,359Z" style="fill:rgb(172,0,0);fill-rule:nonzero;"/>
            </g>
        </g>
        <g transform="matrix(6.15263,0,0,-6.13551,-2151.33,3267.11)">
            <g id="g1719">
                <path id="polyline526" d="M363.52,488.84L366.04,487.4L367.72,501.44L376.12,497.12L376.59,492.33L378.03,491.49L379.59,496.41L383.19,500.12L381.63,500.96L377.31,499.05L369.16,504.09L380.68,512.6L378.16,513.92L363.52,507.68L359.44,510.08L358.72,510.44L358,510.68L357.53,510.79L357.17,510.91L356.45,510.91L356.09,510.79L355.85,510.79L355.61,510.68L355.5,510.56L355.14,509.84L355.25,509.6L355.25,509.36L355.37,509L355.49,508.77L355.73,508.41L356.32,507.81L356.68,507.57L356.92,507.33L357.4,507.09L357.52,506.98L361.83,504.58L363.51,488.86" style="fill:rgb(172,0,0);fill-rule:nonzero;"/>
            </g>
        </g>
        <g id="g1587" transform="matrix(2875.05,823.181,-823.181,2875.05,-449.454,-1918.46)">
            <g id="polygon326" transform="matrix(0.0017361,0,0,-0.0017361,-0.03125,1.1875)">
                <path d="M301.48,342.56L301.36,342.32L301.36,341.84L301.25,341.37L301.13,341.01L300.89,340.53L300.53,340.17L300.29,339.81L299.93,339.57L299.46,339.34L299.1,339.1L298.14,338.86L297.19,338.86L296.23,339.1L295.88,339.34L295.4,339.57L295.04,339.81L294.8,340.17L294.44,340.53L294.2,341.01L294.09,341.37L293.97,341.84L293.97,343.28L294.21,344.24L294.45,344.6L294.8,344.96L295.04,345.32L295.4,345.55L295.88,345.91L296.24,346.03L296.71,346.27L297.19,346.27L297.67,346.39L298.14,346.27L298.62,346.27L299.1,346.03L299.46,345.91L299.93,345.55L300.29,345.32L300.53,344.96L300.89,344.6L301.13,344.24L301.37,343.28L301.37,342.8L301.48,342.57L301.48,342.56Z" style="fill:rgb(172,0,0);fill-rule:nonzero;"/>
            </g>
            <g id="polyline3757" transform="matrix(0.0017361,0,0,-0.0017361,-0.03125,1.1875)">
                <path d="M299.56,349.88L299.44,349.64L299.44,349.4L299.32,349.16L299.21,349.05L299.09,348.81L298.85,348.69L298.73,348.57L298.5,348.46L298.26,348.34L298.14,348.34L297.9,348.22L297.43,348.22L297.19,348.34L297.07,348.34L296.59,348.58L296.48,348.7L296.24,348.81L296.12,349.05L296,349.17L295.89,349.41L295.89,349.64L295.77,349.88L293.97,370.88L293.86,371.12L293.97,371.6L293.97,372.07L294.09,372.55L294.81,373.63L295.53,374.35L295.89,374.59L296.36,374.7L296.72,374.82L297.2,374.94L298.16,374.94L298.63,374.82L298.99,374.7L299.47,374.59L299.83,374.35L300.55,373.63L301.27,372.55L301.38,372.07L301.38,371.6L301.5,371.12L301.38,370.88L299.59,349.88" style="fill:rgb(172,0,0);fill-rule:nonzero;"/>
            </g>
        </g>
        <g id="g2105" transform="matrix(3374.64,0,0,3374.64,-240.987,-2920.59)">
            <g id="polyline1078" transform="matrix(0.0017361,0,0,-0.0017361,-0.188175,1.25745)">
                <path d="M127.48,157.52L128.44,159.08L144.64,159.08L144.4,159.08L144.28,159.2L144.16,159.2L143.93,159.43L143.81,159.43L143.81,159.67L143.69,159.79L143.69,163.63L147.53,163.63L147.53,159.79L147.41,159.67L147.41,159.55L147.05,159.2L146.82,159.2L146.82,159.08L146.58,159.08L183.3,159.08L184.14,157.52L127.5,157.52" style="fill:rgb(172,0,0);fill-rule:nonzero;"/>
            </g>
            <g id="polygon1080" transform="matrix(0.0017361,0,0,-0.0017361,-0.188175,1.25745)">
                <path d="M140.32,179.84L145,179.84L145.24,179.72L145.35,179.72L145.59,179.6L145.71,179.6L145.95,179.49L146.31,179.13L146.43,178.89L148.95,173.01L149.06,172.77L149.3,172.41L149.54,171.94L149.66,171.82L150.02,171.34L150.13,171.23L150.13,170.99L150.25,170.87L150.37,170.63L150.37,165.48L150.25,165.24L150.01,165L149.9,164.76L149.66,164.52L149.42,164.52L149.3,164.41L149.06,164.41L148.95,164.29L131.43,164.29L136.22,172.69L147.38,172.69L145.1,177.84L145.1,177.96L144.98,177.96L144.98,178.08L144.87,178.08L144.75,178.2L139.47,178.2L140.31,179.88L140.32,179.84Z" style="fill:rgb(172,0,0);fill-rule:nonzero;"/>
            </g>
            <g id="polyline1082" transform="matrix(0.0017361,0,0,-0.0017361,-0.188175,1.25745)">
                <path d="M147.52,169.16L147.52,169.52L147.4,169.75L147.4,169.99L147.04,170.35L146.93,170.59L146.69,170.71L146.57,170.82L146.33,170.94L146.09,170.94L145.85,171.06L145.38,171.06L145.14,170.94L144.9,170.94L144.43,170.7L144.07,170.34L143.95,170.1L143.83,169.99L143.83,169.75L143.71,169.51L143.71,168.79L143.83,168.55L143.83,168.32L144.07,167.84L144.31,167.72L144.43,167.6L145.15,167.25L146.1,167.25L146.58,167.48L146.7,167.6L146.93,167.72L147.29,168.08L147.41,168.32L147.41,168.55L147.53,168.79L147.53,169.15" style="fill:rgb(172,0,0);fill-rule:nonzero;"/>
            </g>
            <g id="polygon1084" transform="matrix(0.0017361,0,0,-0.0017361,-0.188175,1.25745)">
                <path d="M150.88,159.68L168.4,162.08L168.28,162.68L150.76,160.28L150.88,159.68Z" style="fill:rgb(172,0,0);fill-rule:nonzero;"/>
            </g>
            <g id="polygon1086" transform="matrix(0.0017361,0,0,-0.0017361,-0.188175,1.25745)">
                <path d="M154,161.48L170.44,168.07L170.2,168.67L153.76,162.07L154,161.48Z" style="fill:rgb(172,0,0);fill-rule:nonzero;"/>
            </g>
            <g id="polygon1088" transform="matrix(0.0017361,0,0,-0.0017361,-0.188175,1.25745)">
                <path d="M150.88,160.76L162.16,168.07L161.8,168.55L150.52,161.23L150.88,160.76Z" style="fill:rgb(172,0,0);fill-rule:nonzero;"/>
            </g>
            <g id="polygon1090" transform="matrix(0.0017361,0,0,-0.0017361,-0.188175,1.25745)">
                <path d="M164.56,170L166.12,170.6L166.71,171.8L165.4,172.4L163.84,171.8L163.24,170.6L164.56,170Z" style="fill:rgb(172,0,0);fill-rule:nonzero;"/>
            </g>
            <g id="polygon1092" transform="matrix(0.0017361,0,0,-0.0017361,-0.188175,1.25745)">
                <path d="M169.48,170.36L170.56,170.36L171.28,171.08L170.56,171.68L169.48,171.68L168.88,171.08L169.48,170.36Z" style="fill:rgb(172,0,0);fill-rule:nonzero;"/>
            </g>
            <g id="polygon1094" transform="matrix(0.0017361,0,0,-0.0017361,-0.188175,1.25745)">
                <path d="M171.88,165.8L172.96,165.8L173.55,166.52L172.96,167.11L171.88,167.11L171.16,166.52L171.88,165.8Z" style="fill:rgb(172,0,0);fill-rule:nonzero;"/>
            </g>
            <g id="polygon1096" transform="matrix(0.0017361,0,0,-0.0017361,-0.188175,1.25745)">
                <path d="M166.36,163.28L167.8,163.75L168.27,164.83L167.2,165.31L165.88,164.83L165.28,163.75L166.36,163.28Z" style="fill:rgb(172,0,0);fill-rule:nonzero;"/>
            </g>
            <g id="polygon1098" transform="matrix(0.0017361,0,0,-0.0017361,-0.188175,1.25745)">
                <path d="M170.56,160.4L171.76,160.4L172.48,161L171.76,161.71L170.56,161.71L169.84,161L170.56,160.4Z" style="fill:rgb(172,0,0);fill-rule:nonzero;"/>
            </g>
            <g id="polyline1100" transform="matrix(0.0017361,0,0,-0.0017361,-0.188175,1.25745)">
                <path d="M175.12,160.16L176.07,160.52L176.55,161.35L175.71,161.71L174.63,161.35L174.27,160.52L175.11,160.16" style="fill:rgb(172,0,0);fill-rule:nonzero;"/>
            </g>
            <g id="polygon1102" transform="matrix(0.0017361,0,0,-0.0017361,-0.188175,1.25745)">
                <path d="M172.96,162.2L174.64,162.8L175.12,164L173.92,164.59L172.36,164L171.76,162.8L172.96,162.2Z" style="fill:rgb(172,0,0);fill-rule:nonzero;"/>
            </g>
        </g>
        <g id="g1828" transform="matrix(2625.8,0,0,2625.8,-1091.78,37.1818)">
            <g id="polygon332" transform="matrix(0.0017361,0,0,-0.0017361,-0.163636,1.25546)">
                <path d="M440.92,656.36L441.04,656.6L441.04,656.84L441.15,656.95L441.15,657.19L441.27,657.19L441.51,657.55L441.62,657.79L441.86,658.03L441.98,658.39L442.1,658.5L444.02,662.94L444.02,663.06L444.49,663.53L444.61,663.53L444.73,663.65L444.96,663.65L445.08,663.77L457.68,663.77L457.92,663.65L458.16,663.65L458.27,663.53L458.39,663.53L458.63,663.3L458.63,663.18L458.75,663.06L458.75,662.95L460.79,658.51L460.79,658.39L461.02,658.03L461.26,657.55L461.62,657.2L461.74,656.96L461.74,656.84L461.86,656.72L461.86,652.77L461.74,652.65L461.74,652.41L461.62,652.29L461.5,652.18L461.39,652.18L461.15,651.94L460.91,651.94L460.67,651.82L442.07,651.82L441.96,651.94L441.72,651.94L441.48,652.05L441.36,652.17L441.25,652.17L441.25,652.29L441.13,652.41L441.01,652.65L441.01,652.88L440.89,653L440.89,656.36L440.92,656.36Z" style="fill:rgb(172,0,0);fill-rule:nonzero;"/>
            </g>
            <g id="polygon334" transform="matrix(0.0017361,0,0,-0.0017361,-0.163636,1.25546)">
                <path d="M443.32,658.28L445,662.23L445.12,662.23L445.12,662.35L445.23,662.35L445.23,662.47L457.59,662.47L457.83,662.23L459.51,658.28L443.31,658.28L443.32,658.28Z" style="fill:rgb(172,0,0);fill-rule:nonzero;"/>
            </g>
            <g id="polygon336" transform="matrix(0.0017361,0,0,-0.0017361,-0.163636,1.25546)">
                <path d="M442.24,651.32L445.24,651.32L445.24,648.44L445.12,648.44L445.12,648.2L445,648.2L445,648.08L444.89,648.08L444.89,647.97L444.65,647.97L444.53,647.85L442.97,647.85L442.86,647.97L442.62,647.97L442.26,648.32L442.26,651.32L442.24,651.32Z" style="fill:rgb(172,0,0);fill-rule:nonzero;"/>
            </g>
            <g id="polyline338" transform="matrix(0.0017361,0,0,-0.0017361,-0.163636,1.25546)">
                <path d="M457.72,651.32L460.72,651.32L460.72,648.44L460.6,648.44L460.6,648.2L460.48,648.2L460.48,648.08L460.37,648.08L460.37,647.97L460.13,647.97L460.01,647.85L458.45,647.85L458.34,647.97L458.1,647.97L457.74,648.32L457.74,651.32" style="fill:rgb(172,0,0);fill-rule:nonzero;"/>
            </g>
            <g id="polygon340" transform="matrix(0.0017361,0,0,-0.0017361,-0.163636,1.25546)">
                <path d="M432.16,663.08L432.16,663.32L432.28,663.43L432.28,663.55L432.39,663.67L432.39,663.91L432.75,664.27L432.75,664.38L432.99,664.62L433.11,664.86L433.11,664.98L434.79,668.82L435.03,669.05L435.03,669.17L435.14,669.29L435.26,669.29L435.38,669.41L446.78,669.41L446.89,669.29L447.01,669.29L447.25,669.05L447.25,668.93L447.37,668.93L447.37,668.82L449.05,664.98L449.16,664.86L449.4,664.38L449.52,664.27L449.64,664.03L444.72,664.03L444.6,663.91L444.36,663.91L444,663.55L443.89,663.31L443.77,663.2L443.77,663.08L442.09,659.36L432.97,659.36L432.86,659.48L432.74,659.48L432.62,659.59L432.5,659.59L432.39,659.71L432.39,659.83L432.27,659.95L432.27,660.06L432.15,660.18L432.15,663.06L432.16,663.08Z" style="fill:rgb(172,0,0);fill-rule:nonzero;"/>
            </g>
            <g id="polygon342" transform="matrix(0.0017361,0,0,-0.0017361,-0.163636,1.25546)">
                <path d="M434.2,664.88L435.64,668.12L435.64,668.23L435.75,668.23L435.75,668.35L446.43,668.35L446.55,668.23L446.55,668.12L447.99,664.88L434.19,664.88L434.2,664.88Z" style="fill:rgb(172,0,0);fill-rule:nonzero;"/>
            </g>
            <g id="polyline344" transform="matrix(0.0017361,0,0,-0.0017361,-0.163636,1.25546)">
                <path d="M433.24,658.88L435.76,658.88L435.76,656.24L435.64,656.24L435.64,656.12L435.52,656.12L435.52,656.01L433.61,656.01L433.37,656.25L433.37,656.36L433.25,656.36L433.25,658.88" style="fill:rgb(172,0,0);fill-rule:nonzero;"/>
            </g>
            <g id="polygon346" transform="matrix(0.0017361,0,0,-0.0017361,-0.163636,1.25546)">
                <path d="M424.36,669.2L424.36,669.32L424.48,669.43L424.48,669.67L424.59,669.79L424.83,670.15L425.07,670.39L425.19,670.62L425.19,670.74L426.62,673.98L426.62,674.1L426.74,674.1L426.74,674.22L426.98,674.45L427.22,674.45L427.34,674.57L436.57,674.57L436.69,674.45L436.93,674.45L436.93,674.34L437.05,674.34L437.16,674.22L437.16,674.1L437.28,674.1L437.28,673.98L438.72,670.75L438.72,670.63L438.84,670.39L439.07,670.15L439.19,669.79L439.31,669.79L435.35,669.79L435.11,669.55L435,669.55L434.52,669.08L434.52,668.96L433.2,665.96L425.05,665.96L425.05,666.08L424.81,666.08L424.45,666.44L424.45,666.55L424.33,666.67L424.33,669.19L424.36,669.2Z" style="fill:rgb(172,0,0);fill-rule:nonzero;"/>
            </g>
            <g id="polygon348" transform="matrix(0.0017361,0,0,-0.0017361,-0.163636,1.25546)">
                <path d="M426.16,670.64L427.36,673.52L427.48,673.52L427.48,673.63L436.48,673.63L436.48,673.52L436.59,673.52L437.79,670.64L426.16,670.64Z" style="fill:rgb(172,0,0);fill-rule:nonzero;"/>
            </g>
            <g id="polyline350" transform="matrix(0.0017361,0,0,-0.0017361,-0.163636,1.25546)">
                <path d="M425.32,665.6L427.48,665.6L427.48,663.56L427.36,663.44L427.36,663.32L427.24,663.32L427.24,663.21L427.12,663.21L427.01,663.09L425.81,663.09L425.69,663.21L425.57,663.21L425.34,663.45L425.34,665.6" style="fill:rgb(172,0,0);fill-rule:nonzero;"/>
            </g>
        </g>
        <g id="g1859" transform="matrix(3261.23,0,0,3261.23,-1183.9,-1003.38)">
            <g id="polygon668" transform="matrix(0.0017361,0,0,-0.0017361,-0.163636,1.25546)">
                <path d="M409.36,475.28L417.76,489.8L428.55,489.8L428.55,475.28L409.36,475.28Z" style="fill:rgb(172,0,0);fill-rule:nonzero;"/>
            </g>
            <g id="polygon670" transform="matrix(0.0017361,0,0,-0.0017361,-0.163636,1.25546)">
                <path d="M429.64,475.76L430.12,476L430.36,476.11L431.31,476.35L432.39,476.35L432.87,476.23L433.34,476.12L433.58,476L434.66,475.64L434.9,475.52L435.38,475.41L435.85,475.29L436.93,475.29L437.41,475.41L437.88,475.52L438.12,475.64L439.2,476L439.44,476.12L439.91,476.23L440.39,476.35L441.47,476.35L442.43,476.11L442.66,476L443.74,475.64L443.98,475.52L444.94,475.28L446.02,475.28L446.97,475.52L447.21,475.64L448.29,476L448.53,476.11L449.48,476.35L450.44,476.35L451.04,476.23L451.52,476.12L451.75,476L452.83,475.64L453.07,475.52L454.03,475.29L454.98,475.29L455.58,475.4L456.06,475.52L456.3,475.64L457.25,476L457.49,476.11L458.09,476.23L458.57,476.35L459.52,476.35L460.12,476.23L460.6,476.11L460.84,476L461.79,475.64L462.03,475.52L462.51,475.4L463.11,475.29L464.06,475.29L465.02,475.52L465.26,475.64L466.34,476L466.57,476.12L467.05,476.23L467.41,476.35L468.49,476.35L467.53,478.03L467.41,478.03L466.94,477.91L466.58,477.8L466.34,477.68L465.26,477.32L465.02,477.2L464.07,476.96L463.11,476.96L462.51,477.08L462.04,477.2L461.8,477.32L460.84,477.68L460.6,477.79L460.12,477.91L459.53,478.03L458.57,478.03L458.09,477.91L457.5,477.79L457.26,477.68L456.3,477.32L456.06,477.2L455.59,477.08L454.99,476.96L454.03,476.96L453.07,477.2L452.84,477.32L451.76,477.68L451.52,477.8L451.04,477.91L450.45,478.03L449.49,478.03L448.53,477.79L448.29,477.68L447.21,477.32L446.98,477.2L446.02,476.96L444.94,476.96L443.98,477.2L443.75,477.32L442.67,477.68L442.43,477.79L441.47,478.03L440.39,478.03L439.92,477.91L439.44,477.8L439.2,477.68L438.12,477.32L437.89,477.2L437.41,477.09L436.93,476.97L435.86,476.97L435.38,477.09L434.9,477.2L434.66,477.32L433.59,477.68L433.35,477.8L432.87,477.91L432.39,478.03L431.32,478.03L430.36,477.79L429.64,477.43L429.64,475.75L429.64,475.76Z" style="fill:rgb(172,0,0);fill-rule:nonzero;"/>
            </g>
            <g id="polygon672" transform="matrix(0.0017361,0,0,-0.0017361,-0.163636,1.25546)">
                <path d="M429.64,479.24L430.12,479.36L430.36,479.47L430.83,479.59L431.31,479.71L432.39,479.71L432.86,479.59L433.34,479.47L433.58,479.36L434.66,479L434.89,478.88L435.85,478.64L436.93,478.64L437.4,478.76L437.88,478.88L438.12,479L439.2,479.36L439.43,479.47L440.39,479.71L441.46,479.71L442.42,479.47L442.66,479.36L443.73,479L443.97,478.88L444.93,478.64L446.01,478.64L446.96,478.88L447.2,479L448.28,479.36L448.52,479.47L449,479.59L449.47,479.71L450.43,479.71L451.03,479.59L451.5,479.47L451.74,479.36L452.82,479L453.06,478.88L454.02,478.64L454.97,478.64L455.57,478.76L456.05,478.88L456.29,478.99L457.24,479.35L457.48,479.47L458.08,479.59L458.55,479.7L459.51,479.7L460.11,479.59L460.59,479.47L460.82,479.35L461.78,478.99L462.02,478.88L462.5,478.76L463.09,478.64L464.05,478.64L465.01,478.88L465.25,479L466.32,479.36L466.44,479.47L466.68,479.47L465.84,480.91L465.24,480.67L465,480.55L464.53,480.44L464.05,480.32L463.09,480.32L462.5,480.44L462.02,480.55L460.82,481.15L460.58,481.15L460.11,481.39L458.07,481.39L457.47,481.15L457.23,481.15L456.03,480.55L455.55,480.44L454.96,480.32L454,480.32L453.52,480.44L453.05,480.55L452.81,480.67L451.73,481.15L451.49,481.15L451.02,481.39L448.98,481.39L448.5,481.15L448.26,481.15L447.18,480.67L446.95,480.55L446.47,480.44L445.99,480.32L444.91,480.32L444.44,480.44L443.96,480.55L443.72,480.67L442.64,481.15L442.41,481.15L441.93,481.39L439.89,481.39L439.41,481.15L439.18,481.15L438.1,480.67L437.86,480.55L437.38,480.44L436.91,480.32L435.83,480.32L435.35,480.44L434.88,480.55L434.64,480.67L433.56,481.15L433.32,481.15L432.84,481.39L430.8,481.39L430.33,481.15L430.09,481.15L429.61,480.91L429.61,479.23L429.64,479.24Z" style="fill:rgb(172,0,0);fill-rule:nonzero;"/>
            </g>
            <g id="polygon674" transform="matrix(0.0017361,0,0,-0.0017361,-0.163636,1.25546)">
                <path d="M446.08,488.47L446.08,488.71L446.32,489.19L446.55,489.43L446.67,489.67L447.63,490.14L448.71,490.14L448.95,490.03L449.42,489.79L450.02,489.19L450.26,488.71L450.26,487.64L450.14,487.4L450.14,487.16L449.9,486.92L449.66,486.45L448.71,485.97L448.35,485.97L448.11,485.85L447.87,485.97L447.63,485.97L447.39,486.09L447.04,486.2L446.92,486.32L446.68,486.44L446.44,486.68L446.08,487.39L446.08,487.63L445.96,487.87L445.96,488.23L446.08,488.47Z" style="fill:rgb(172,0,0);fill-rule:nonzero;"/>
            </g>
            <g id="polygon676" transform="matrix(0.0017361,0,0,-0.0017361,-0.163636,1.25546)">
                <path d="M427.48,493.52L427.6,493.64L427.6,493.88L427.84,494.11L428.07,494.59L429.03,495.07L429.39,495.07L429.63,495.18L429.87,495.07L430.11,495.07L430.34,494.95L430.7,494.83L430.82,494.71L431.06,494.6L431.3,494.36L431.66,493.64L431.66,493.4L431.77,493.16L431.77,492.8L431.66,492.57L431.66,492.33L431.42,491.85L431.18,491.61L431.06,491.38L430.59,491.14L430.11,490.9L429.03,490.9L428.55,491.14L428.32,491.25L427.72,491.85L427.48,492.33L427.48,493.53L427.48,493.52Z" style="fill:rgb(172,0,0);fill-rule:nonzero;"/>
            </g>
            <g id="polygon678" transform="matrix(0.0017361,0,0,-0.0017361,-0.163636,1.25546)">
                <path d="M450.76,487.4L452.07,487.04L452.55,487.04L452.55,487.16L452.67,487.16L452.67,487.39L452.79,487.39L453.38,489.79L453.38,490.15L453.27,490.27L453.27,490.39L453.15,490.39L445.95,493.62L443.43,498.06L443.19,498.3L443.07,498.3L433.12,500.94L432.76,500.94L426.76,498.3L426.64,498.3L426.64,498.18L426.52,498.18L426.52,497.95L425.57,494.59L425.57,494.23L425.8,493.99L425.92,493.99L427,493.63L427,493.87L427.12,494.11L427.36,494.46L427.47,494.7L427.71,494.94L428.07,495.18L428.31,495.3L428.67,495.54L428.91,495.54L429.27,495.65L429.98,495.65L430.22,495.54L430.94,495.3L431.18,495.18L431.66,494.71L431.89,494.35L432.01,494.11L432.13,493.75L432.25,493.51L432.25,492.43L432.13,492.32L445.57,488.72L445.57,488.96L445.68,489.2L445.8,489.55L446.52,490.27L446.88,490.39L447.12,490.51L447.84,490.75L448.43,490.75L449.15,490.51L449.39,490.39L449.75,490.15L449.99,490.04L450.23,489.8L450.46,489.44L450.58,489.2L450.82,488.48L450.82,487.88L450.7,487.52L450.7,487.41L450.76,487.4Z" style="fill:rgb(172,0,0);fill-rule:nonzero;"/>
            </g>
            <g id="polygon680" transform="matrix(0.0017361,0,0,-0.0017361,-0.163636,1.25546)">
                <path d="M437.56,495.32L444.76,493.4L445,493.4L445,493.64L445.11,493.64L445.11,493.75L445,493.75L443.2,496.99L442.96,497.23L442.85,497.23L438.41,498.43L437.57,495.31L437.56,495.32Z" style="fill:rgb(172,0,0);fill-rule:nonzero;"/>
            </g>
            <g id="polyline682" transform="matrix(0.0017361,0,0,-0.0017361,-0.163636,1.25546)">
                <path d="M436.72,495.56L437.56,498.68L433.84,499.63L433.48,499.63L430.84,498.07L430.73,498.07L430.73,497.96L430.61,497.96L430.61,497.72L430.49,497.6L430.61,497.48L430.61,497.25L430.73,497.25L430.84,497.13L430.96,497.13L436.72,495.57" style="fill:rgb(172,0,0);fill-rule:nonzero;"/>
            </g>
        </g>
        <g id="g3798" transform="matrix(4.01501,0,0,4.01501,-1015,-523.241)">
            <path id="polygon848" d="M323.411,209.576C323.766,209.491 324.356,210.009 323.711,210.164C322.983,210.463 321.69,210.233 320.729,210.473C318.74,210.566 316.768,210.876 314.817,211.258C313.17,211.748 311.444,211.98 309.886,212.739C309.135,213.077 308.303,213.588 308.136,214.451C308.09,215.609 309.63,215.837 310.211,216.126C310.205,216.527 310.456,216.416 310.211,216.714C309.869,217.296 308.425,217.186 307.598,217.083C306.86,216.984 306.051,216.841 305.423,216.42C304.665,216.006 303.957,214.93 304.255,214.151C304.547,213.247 305.303,212.742 306.136,212.392C307.346,211.652 308.768,211.38 310.111,210.967C312.001,210.453 313.952,210.193 315.894,209.973C318.4,209.846 320.9,209.551 323.411,209.551L323.411,209.576L323.411,209.576Z" style="fill:rgb(172,0,0);fill-rule:nonzero;"/>
            <path id="polygon850" d="M311.411,223.226C310.181,223.218 308.941,223.017 307.748,222.789C306.71,222.64 306.711,220.772 307.823,220.576C309.131,220.5 310.318,221.339 311.636,221.164C313.228,221.167 314.831,221.253 316.386,220.834C317.587,220.534 318.814,220.081 319.636,219.089C319.969,217.715 318.436,217.37 317.454,217.101C316.352,217.085 315.091,216.061 315.086,215.201C315.405,213.951 316.715,213.304 317.854,212.964C318.976,212.666 320.038,212.171 321.203,212.028C323.116,211.658 325.036,211.344 326.986,211.251C328.331,211.112 329.686,211.202 331.036,211.176C331.913,212.083 329.527,211.737 328.786,212.064C326.709,212.186 324.642,212.446 322.639,213.023C321.652,213.261 320.635,213.455 319.798,214.064C318.505,214.4 318.472,216.072 319.792,216.364C320.808,216.704 321.91,216.862 322.773,217.551C323.988,218.393 322.925,219.905 322.136,220.651C320.768,221.636 319.149,222.118 317.523,222.476C315.772,222.976 313.934,222.998 312.136,223.226C311.926,223.226 311.535,223.226 311.411,223.226Z" style="fill:rgb(172,0,0);fill-rule:nonzero;"/>
            <path id="polygon852" d="M334.361,212.576C335.648,212.992 333.15,213.186 332.736,213.901C332.02,214.65 332.429,215.819 333.223,216.359C334.065,216.98 335.044,217.338 336.023,217.626C337.133,218.056 338.36,218.079 339.545,218.078C342.265,218.259 344.998,218.372 347.71,218.589C348.992,218.63 350.214,218.986 351.448,219.326C352.377,219.791 353.781,220.142 353.535,221.476C352.932,222.446 351.676,222.885 350.56,222.964C349.827,223.276 348.505,223.109 349.51,222.526C350.62,221.641 349.272,220.229 348.173,220.089C346.909,219.632 345.547,219.733 344.211,219.632C341.566,219.472 338.911,219.393 336.273,219.201C334.15,218.851 331.82,218.704 330.098,217.264C329.314,216.715 328.641,215.548 329.311,214.645C330.039,213.532 331.404,212.954 332.686,212.72C333.19,212.516 334.01,212.528 334.361,212.576Z" style="fill:rgb(172,0,0);fill-rule:nonzero;"/>
            <path id="polygon854" d="M314.248,191.889L314.398,191.739L314.698,191.589L315.298,191.152L316.348,190.102L320.836,184.402C320.836,184.402 321.101,183.952 321.586,183.802C322.07,183.652 322.773,183.802 322.773,183.802L340.323,188.452L340.923,188.752L341.211,189.052L341.361,189.339L341.458,189.632L341.511,189.939L342.711,197.127L342.998,198.464C342.998,198.464 343.186,198.951 343.298,199.214C343.411,199.476 343.38,199.282 343.448,199.514C343.543,199.84 343.448,200.564 343.448,200.564L342.098,205.051L342.098,205.351L341.948,205.651L341.348,206.251L340.911,206.389L340.011,206.389C340.011,206.389 313.911,199.611 313.611,199.351C313.311,199.092 312.936,198.789 312.711,198.451C312.486,198.114 312.576,197.859 312.711,197.264C313.015,195.918 313.911,192.614 313.911,192.614L314.248,191.889Z" style="fill:rgb(172,0,0);fill-rule:nonzero;"/>
            <path id="polygon856" d="M318.011,190.827L321.911,185.877L322.048,185.739L322.348,185.589L322.636,185.589L339.436,190.089C339.436,190.089 339.645,190.14 339.736,190.227C339.782,190.271 339.818,190.332 339.843,190.392L340.773,196.827L317.973,190.827L318.011,190.827Z" style="fill:rgb(172,0,0);fill-rule:nonzero;"/>
            <path id="polygon858" d="M313.811,200.126L318.011,201.326L316.961,205.226C316.961,205.226 316.839,205.794 316.505,205.978C316.17,206.162 315.623,205.964 315.623,205.964L313.523,205.364C313.523,205.364 313.044,205.245 312.863,204.914C312.682,204.583 312.798,204.039 312.798,204.039L313.848,200.139L313.811,200.126Z" style="fill:rgb(172,0,0);fill-rule:nonzero;"/>
            <path id="path1424" d="M335.578,205.921L339.778,207.121L338.728,211.021C338.728,211.021 338.606,211.588 338.272,211.773C337.937,211.957 337.39,211.759 337.39,211.759L335.29,211.159C335.29,211.159 334.811,211.04 334.63,210.709C334.449,210.378 334.565,209.834 334.565,209.834L335.615,205.934L335.578,205.921Z" style="fill:rgb(172,0,0);fill-rule:nonzero;"/>
        </g>
        <g id="polygon104" transform="matrix(5.18221,-2.19351,-2.19351,-5.18221,1483.32,3932.85)">
            <path d="M155.8,667.4L146.68,658.28L143.09,661.88L152.2,671.12L143.45,679.88L147.04,683.47L155.8,674.72L164.56,683.47L168.28,679.88L159.52,671.12L168.64,661.88L164.92,658.28L155.8,667.4Z" style="fill:rgb(172,0,0);fill-rule:nonzero;"/>
        </g>
        <g id="polyline210" transform="matrix(4.94146,-1.79932,-1.79932,-4.94146,75.373,3945.44)">
            <path d="M291.16,656.48L291.16,669.43L291.28,670.15L291.39,670.75L291.63,671.35L291.99,671.95L292.71,672.9L293.19,673.38L293.79,673.74L294.26,673.98L294.86,674.22L295.58,674.33L296.18,674.45L304.33,674.45L310.81,678.17L304.33,681.89L295.7,681.89L294.14,681.65L292.7,681.29L291.26,680.81L289.95,680.09L288.63,679.14L287.43,678.18L286.47,676.98L285.63,675.78L284.91,674.34L284.32,672.91L283.96,671.47L283.84,669.91L283.72,669.19L283.72,656.47L287.44,660.19L291.16,656.47" style="fill:rgb(172,0,0);fill-rule:nonzero;"/>
        </g>
        <g transform="matrix(3.14371,0.711631,-0.624834,2.76028,1028.19,-705.297)">
            <g id="polygon456" transform="matrix(1.30693,0,0,-1.30693,-130.003,904.604)">
                <path d="M146.56,479.96L139.36,487.16L139.36,492.2L144.52,487.16L144.52,504.43L148.59,504.43L148.59,487.16L153.75,492.2L153.75,487.16L146.55,479.96L146.56,479.96Z" style="fill:rgb(172,0,0);fill-rule:nonzero;"/>
            </g>
            <g id="polyline458" transform="matrix(1.30693,0,0,-1.30693,-130.003,904.604)">
                <path d="M163.12,506.48L170.32,499.4L170.32,494.24L165.16,499.4L165.16,482L160.96,482L160.96,499.4L155.8,494.24L155.8,499.4L163.12,506.48" style="fill:rgb(172,0,0);fill-rule:nonzero;"/>
            </g>
        </g>
        <g id="polyline644" transform="matrix(6.02191,-0.957167,-0.957167,-6.02191,-2091.7,3444.16)">
            <path d="M419.32,488.6L419.32,492.8L420.76,492.8L421.96,493.04L422.55,493.27L423.03,493.51L423.63,493.87L424.71,494.95L425.55,496.03L425.66,496.27L426.14,496.74L427.1,497.46L427.7,497.82L428.29,497.94L428.89,498.18L430.81,498.18L431.41,497.94L432,497.82L432.48,497.46L433.08,497.1L433.55,496.74L433.91,496.27L434.15,496.03L434.99,494.95L435.11,494.71L435.59,494.35L436.06,493.88L436.54,493.52L437.74,493.04L438.34,492.92L438.93,492.8L439.53,492.8L440.25,492.92L440.85,493.04L441.45,493.28L441.92,493.52L442.52,493.88L443.6,494.95L444.32,496.03L445.39,497.11L446.59,497.83L447.07,497.95L447.79,498.18L449.59,498.18L450.18,497.95L450.78,497.83L451.38,497.47L452.34,496.75L452.81,496.27L452.93,496.04L453.89,494.96L454,494.72L454.48,494.36L454.96,493.88L455.43,493.52L456.63,493.05L457.83,492.81L459.27,492.81L459.27,488.61L419.19,488.61" style="fill:rgb(172,0,0);fill-rule:nonzero;"/>
        </g>
    </g>
</svg>
